<svg height="27" viewBox="0 0 27 27" width="27" xmlns="http://www.w3.org/2000/svg"><path d="m13.5 0a13.5 13.5 0 1 0 13.5 13.5 13.512 13.512 0 0 0 -13.5-13.5zm-6.679 22.595a10.668 10.668 0 0 1 3.638-6.2 5.853 5.853 0 0 0 3.069.853 6.005 6.005 0 0 0 3.072-.848 10.641 10.641 0 0 1 3.638 6.2 11.128 11.128 0 0 1 -6.679 2.188 11.363 11.363 0 0 1 -6.738-2.193zm6.679-7.56a3.695 3.695 0 1 1 3.695-3.695 3.706 3.706 0 0 1 -3.695 3.695zm8.526 5.826a12.733 12.733 0 0 0 -3.808-5.968 5.886 5.886 0 1 0 -10.6-3.524 5.616 5.616 0 0 0 1.194 3.524 12.655 12.655 0 0 0 -3.812 5.968 11.3 11.3 0 1 1 17.024 0z" fill="#304351"/></svg>