<svg height="35.107" viewBox="0 0 30 35.107" width="30" xmlns="http://www.w3.org/2000/svg"><g fill="#9aabb8"><path d="m16.578 0h-11.7a4.883 4.883 0 0 0 -4.878 4.876v25.351a4.883 4.883 0 0 0 4.876 4.876h11.7a4.883 4.883 0 0 0 4.874-4.876v-25.351a4.882 4.882 0 0 0 -4.872-4.876zm2.926 30.227a2.93 2.93 0 0 1 -2.926 2.926h-11.7a2.93 2.93 0 0 1 -2.928-2.926v-25.351a2.93 2.93 0 0 1 2.926-2.926h11.7a2.93 2.93 0 0 1 2.926 2.926z"/><circle cx="10.727" cy="30.229" r="1.95"/><path d="m12.677 2.925h-3.9a.975.975 0 1 0 0 1.95h3.9a.975.975 0 1 0 0-1.95z"/></g><rect fill="#f6f6f8" height="13" rx="4" width="19" x="11" y="10.606"/><path d="m29.942 16.258h-18.939" fill="#f6f6f8" stroke="#9aabb8" stroke-width="3"/></svg>