<svg height="23.44" viewBox="0 0 23.44 23.44" width="23.44" xmlns="http://www.w3.org/2000/svg"><path d="m20.244 8.524a3.2 3.2 0 1 0 3.2 3.2 3.206 3.206 0 0 0 -3.2-3.2zm0 4.262a1.065 1.065 0 1 1 1.065-1.065 1.069 1.069 0 0 1 -1.065 1.064zm-12.306-4.529 2.237-2.237a3.387 3.387 0 0 0 3.09 0l2.291 2.291a.9.9 0 0 0 1.279-1.279l-2.292-2.291a3.668 3.668 0 0 0 .373-1.541 3.2 3.2 0 1 0 -6.393 0 3.056 3.056 0 0 0 .426 1.545l-2.237 2.237a.9.9 0 0 0 0 1.225.852.852 0 0 0 1.226.05zm3.782-6.126a1.065 1.065 0 1 1 -1.065 1.069 1.069 1.069 0 0 1 1.065-1.069zm-8.52 6.393a3.2 3.2 0 1 0 3.2 3.2 3.206 3.206 0 0 0 -3.2-3.2zm0 4.262a1.065 1.065 0 1 1 1.062-1.066 1.069 1.069 0 0 1 -1.062 1.065zm12.359 2.4-2.291 2.291a3.056 3.056 0 0 0 -1.545-.426 3.668 3.668 0 0 0 -1.545.373l-2.291-2.291a.9.9 0 0 0 -1.279 1.279l2.292 2.288a3.668 3.668 0 0 0 -.373 1.545 3.2 3.2 0 1 0 6.393 0 3.056 3.056 0 0 0 -.43-1.545l2.291-2.291a.9.9 0 0 0 0-1.225.811.811 0 0 0 -1.225-.001zm-3.839 6.123a1.065 1.065 0 1 1 1.065-1.065 1.069 1.069 0 0 1 -1.065 1.065z" fill-rule="evenodd"/></svg>