<svg fill="none" height="28" viewBox="0 0 23 28" width="23" xmlns="http://www.w3.org/2000/svg"><g clip-rule="evenodd" fill="#304351" fill-rule="evenodd"><path d="m11.3169 2.6919c-5.13308 0-9.35154 4.13835-9.35154 9.3515v2.7436h-1.96534474v-2.7436c0-6.3099 5.10972474-11.316838 11.31688474-11.316838 6.3099 0 11.3168 5.109728 11.3168 11.316838v8.3222c0 3.1949-2.5434 5.7382-5.7382 5.7382h-2.9265v-1.9653h2.9265c2.1094 0 3.7729-1.6635 3.7729-3.7729v-8.3222c0-5.13303-4.1384-9.3515-9.3515-9.3515z"/><path d="m3.26899 12.203c-.73762 0-1.30365.566-1.30365 1.3037v4.847c0 .7376.56603 1.3036 1.30365 1.3036.29291 0 .62436-.1397.89414-.4095s.40951-.6012.40951-.8941v-4.847c0-.7377-.56602-1.3037-1.30365-1.3037zm-3.26899 1.3037c0-1.8231 1.44594-3.269 3.26899-3.269 1.82306 0 3.26899 1.4459 3.26899 3.269v4.847c0 .8959-.40899 1.7077-.98514 2.2838-.57616.5762-1.38787.9852-2.28385.9852-1.82305 0-3.26899-1.446-3.26899-3.269z"/><path d="m19.3647 12.203c-.7376 0-1.3036.566-1.3036 1.3037v4.847c0 .7376.566 1.3036 1.3036 1.3036.7124 0 1.3037-.6319 1.3037-1.3036v-4.847c0-.7377-.5661-1.3037-1.3037-1.3037zm-3.269 1.3037c0-1.8231 1.446-3.269 3.269-3.269 1.8231 0 3.269 1.4459 3.269 3.269v4.847c0 1.706-1.4207 3.269-3.269 3.269-1.823 0-3.269-1.446-3.269-3.269z"/><path d="m10.6767 24.3662c-.3718 0-.6635.2917-.6635.6635v.0915c0 .3718.2917.6635.6635.6635h1.6462c.3718 0 .6634-.2917.6634-.6635v-.0915c0-.3718-.2916-.6635-.6634-.6635zm-2.62882.6635c0-1.4572 1.17158-2.6288 2.62882-2.6288h1.6462c1.4572 0 2.6288 1.1716 2.6288 2.6288v.0915c0 1.4572-1.1716 2.6288-2.6288 2.6288h-1.6462c-1.45724 0-2.62882-1.1716-2.62882-2.6288z"/></g></svg>