<svg height="28.637" viewBox="0 0 23.964 28.637" width="23.964" xmlns="http://www.w3.org/2000/svg"><g fill="#304351"><path d="m20.456 22.318a5.9 5.9 0 0 0 .6-.012 3.291 3.291 0 0 0 1.3-.384 3.157 3.157 0 0 0 1.5-1.926 7.744 7.744 0 0 0 .1-1.935v-4.728a3.126 3.126 0 0 0 -2.435-3.1 4.118 4.118 0 0 0 -1.967.058 3.147 3.147 0 0 0 -1.869 1.568 3.374 3.374 0 0 0 -.344 1.51v5.669a3.312 3.312 0 0 0 .179 1.187 3.136 3.136 0 0 0 1.626 1.788 3.249 3.249 0 0 0 1.311.3.866.866 0 1 0 0-1.733 2.352 2.352 0 0 1 -.318-.023l.231.032a2.319 2.319 0 0 1 -.557-.156l.208.087a2.486 2.486 0 0 1 -.367-.2.541.541 0 0 1 -.092-.066s.191.159.072.055c-.052-.046-.1-.09-.153-.139s-.087-.09-.127-.139-.1-.159.04.058c-.02-.032-.043-.061-.066-.092a2.234 2.234 0 0 1 -.2-.367l.087.208a2.315 2.315 0 0 1 -.156-.557c.012.078.02.153.032.231a6.411 6.411 0 0 1 -.023-.817v-4.777a7.075 7.075 0 0 1 .023-.959c-.012.078-.02.153-.032.231a2.314 2.314 0 0 1 .156-.557l-.087.208a2.479 2.479 0 0 1 .2-.367.535.535 0 0 1 .066-.092s-.159.191-.055.072c.046-.052.089-.1.139-.153s.09-.087.139-.127.159-.1-.058.04c.032-.02.061-.043.092-.066a2.238 2.238 0 0 1 .367-.2l-.208.087a2.317 2.317 0 0 1 .557-.156l-.231.032a3.969 3.969 0 0 1 1.014 0l-.231-.032a2.317 2.317 0 0 1 .557.156l-.208-.087a2.486 2.486 0 0 1 .367.2.535.535 0 0 1 .092.066s-.191-.159-.072-.055c.052.046.1.09.153.139s.087.09.127.139.1.159-.04-.058c.02.032.043.061.066.092a2.237 2.237 0 0 1 .2.367l-.087-.208a2.314 2.314 0 0 1 .156.557c-.012-.078-.02-.153-.032-.231a6.423 6.423 0 0 1 .023.817v4.777a7.076 7.076 0 0 1 -.023.959c.012-.078.02-.153.032-.231a2.314 2.314 0 0 1 -.156.557l.087-.208a2.486 2.486 0 0 1 -.2.367.535.535 0 0 1 -.066.092s.159-.191.055-.072c-.046.052-.09.1-.139.153s-.09.087-.139.127-.159.1.058-.04c-.032.02-.061.043-.092.066a2.238 2.238 0 0 1 -.367.2l.208-.087a2.318 2.318 0 0 1 -.557.156l.231-.032a5.083 5.083 0 0 1 -.7.023.866.866 0 1 0 0 1.733z"/><path d="m3.116 22.318a5.9 5.9 0 0 0 .6-.012 3.291 3.291 0 0 0 1.3-.384 3.157 3.157 0 0 0 1.5-1.926 7.744 7.744 0 0 0 .1-1.935v-4.728a3.126 3.126 0 0 0 -2.435-3.1 4.118 4.118 0 0 0 -1.967.058 3.147 3.147 0 0 0 -1.869 1.568 3.374 3.374 0 0 0 -.344 1.51v5.669a3.312 3.312 0 0 0 .179 1.187 3.135 3.135 0 0 0 1.626 1.788 3.249 3.249 0 0 0 1.311.3.866.866 0 1 0 0-1.733 2.352 2.352 0 0 1 -.318-.023l.231.032a2.319 2.319 0 0 1 -.557-.156l.208.087a2.485 2.485 0 0 1 -.367-.2.539.539 0 0 1 -.092-.066s.191.159.072.055c-.052-.046-.1-.09-.153-.139s-.087-.09-.127-.139-.1-.159.04.058c-.02-.032-.043-.061-.066-.092a2.239 2.239 0 0 1 -.2-.367l.087.208a2.317 2.317 0 0 1 -.156-.557c.012.078.02.153.032.231a6.425 6.425 0 0 1 -.023-.817v-4.777a7.078 7.078 0 0 1 .023-.959c-.012.078-.02.153-.032.231a2.317 2.317 0 0 1 .156-.557l-.087.208a2.481 2.481 0 0 1 .2-.367.536.536 0 0 1 .066-.092s-.159.191-.055.072c.046-.052.09-.1.139-.153s.09-.087.139-.127.159-.1-.058.04c.032-.02.061-.043.092-.066a2.238 2.238 0 0 1 .367-.2l-.208.087a2.317 2.317 0 0 1 .557-.156l-.231.032a3.969 3.969 0 0 1 1.014 0l-.231-.032a2.317 2.317 0 0 1 .557.156l-.208-.087a2.482 2.482 0 0 1 .367.2.536.536 0 0 1 .092.066s-.191-.159-.072-.055c.052.046.1.09.153.139s.087.09.127.139.1.159-.04-.058c.02.032.043.061.066.092a2.24 2.24 0 0 1 .2.367l-.087-.208a2.316 2.316 0 0 1 .156.557c-.012-.078-.02-.153-.032-.231a6.423 6.423 0 0 1 .023.817v4.777a7.076 7.076 0 0 1 -.023.959c.012-.078.02-.153.032-.231a2.316 2.316 0 0 1 -.156.557l.087-.208a2.486 2.486 0 0 1 -.2.367.535.535 0 0 1 -.066.092s.159-.191.055-.072c-.046.052-.09.1-.139.153s-.09.087-.139.127-.159.1.058-.04c-.032.02-.061.043-.092.066a2.24 2.24 0 0 1 -.367.2l.208-.087a2.319 2.319 0 0 1 -.557.156l.231-.032a5.082 5.082 0 0 1 -.7.023.866.866 0 0 0 0 1.733z"/><path d="m1.73 19.011v-6.663a13.9 13.9 0 0 1 .1-1.866c-.012.078-.02.153-.032.231a11.094 11.094 0 0 1 .774-2.819l-.087.208a11.318 11.318 0 0 1 .774-1.5c.144-.234.295-.459.456-.682.04-.058.084-.113.124-.168.014-.02.032-.04.046-.061.092-.124-.139.176-.043.055s.173-.219.266-.323a11.183 11.183 0 0 1 1.158-1.181c.1-.087.2-.173.306-.26.049-.04.1-.081.147-.118s.173-.13-.055.04l.092-.069c.222-.168.453-.329.69-.479a11.242 11.242 0 0 1 1.661-.875l-.208.087a11.094 11.094 0 0 1 2.819-.774l-.231.032a11.13 11.13 0 0 1 2.972 0l-.231-.032a11.094 11.094 0 0 1 2.819.774l-.208-.087a11.316 11.316 0 0 1 1.5.774c.234.144.459.295.682.456.058.04.113.084.168.124l.061.046c.124.092-.176-.139-.055-.043s.219.173.323.266a11.183 11.183 0 0 1 1.181 1.158c.087.1.173.2.26.306.04.049.081.1.118.147s.13.173-.04-.055l.069.092c.168.222.329.453.479.69a11.244 11.244 0 0 1 .875 1.661l-.087-.208a11.094 11.094 0 0 1 .774 2.819c-.012-.078-.02-.153-.032-.231a14.584 14.584 0 0 1 .1 1.944v7.308a12.925 12.925 0 0 1 -.049 1.672c.012-.078.02-.153.032-.231a5.471 5.471 0 0 1 -.358 1.314l.087-.208a5.376 5.376 0 0 1 -.488.907c-.046.069-.1.136-.142.2-.107.15.127-.156.032-.04-.023.029-.046.061-.072.09-.11.133-.222.257-.344.378s-.248.237-.378.344c-.029.023-.058.049-.09.072-.118.1.17-.127.055-.043-.072.052-.144.1-.217.153a5.376 5.376 0 0 1 -.907.488l.208-.087a5.434 5.434 0 0 1 -1.314.358l.231-.032a10.478 10.478 0 0 1 -1.412.049h-2.2a.866.866 0 1 0 0 1.733h2.192c.274 0 .552.006.826 0a6.051 6.051 0 0 0 2.143-.436 6.247 6.247 0 0 0 3.238-2.949 6.546 6.546 0 0 0 .67-2.963v-8.528a11.832 11.832 0 0 0 -.7-4.017 12.3 12.3 0 0 0 -2.14-3.7 12.006 12.006 0 0 0 -3.111-2.624 11.808 11.808 0 0 0 -3.9-1.444 12.28 12.28 0 0 0 -4.43.032 11.775 11.775 0 0 0 -3.859 1.49 11.915 11.915 0 0 0 -3.076 2.663 12.33 12.33 0 0 0 -2.1 3.749 11.953 11.953 0 0 0 -.641 3.861v7.03a.865.865 0 1 0 1.73 0z"/><path d="m14.019 25.988a1.606 1.606 0 0 1 -.017.237c.012-.078.02-.153.032-.231a1.99 1.99 0 0 1 -.121.445l.087-.208a2.035 2.035 0 0 1 -.15.283.406.406 0 0 1 -.052.078s.144-.176.066-.087c-.038.043-.075.084-.113.124s-.072.069-.11.1c-.055.049-.133.066.072-.055-.02.012-.04.029-.061.043a2 2 0 0 1 -.3.162l.208-.087a1.99 1.99 0 0 1 -.445.121l.231-.032a9.669 9.669 0 0 1 -1.193.017 10.728 10.728 0 0 1 -1.219-.014l.231.032a2.09 2.09 0 0 1 -.439-.116l.208.087a1.816 1.816 0 0 1 -.315-.167c-.081-.055-.1-.118.032.029-.038-.043-.09-.078-.13-.118a.626.626 0 0 1 -.118-.13c.026.035.055.069.081.107-.017-.023-.035-.049-.052-.072a1.822 1.822 0 0 1 -.168-.315l.087.208a1.891 1.891 0 0 1 -.116-.439c.012.078.02.153.032.231a1.973 1.973 0 0 1 0-.471c-.012.078-.02.153-.032.231a1.99 1.99 0 0 1 .121-.445l-.087.208a2.042 2.042 0 0 1 .15-.283.4.4 0 0 1 .052-.078s-.144.176-.066.087c.038-.043.075-.084.113-.124s.072-.069.11-.1c.055-.049.133-.066-.072.055.02-.012.04-.029.061-.043a2 2 0 0 1 .3-.162l-.208.087a1.987 1.987 0 0 1 .445-.121l-.231.032a9.656 9.656 0 0 1 1.193-.017 10.728 10.728 0 0 1 1.219.014l-.231-.032a2.09 2.09 0 0 1 .439.115l-.208-.087a1.832 1.832 0 0 1 .315.168c.081.055.1.118-.032-.029.038.043.09.078.13.118a.631.631 0 0 1 .118.13c-.026-.035-.055-.069-.081-.107l.052.072a1.83 1.83 0 0 1 .168.315l-.087-.208a1.89 1.89 0 0 1 .116.439c-.012-.078-.02-.153-.032-.231a1.6 1.6 0 0 1 .017.234.866.866 0 1 0 1.733 0 2.67 2.67 0 0 0 -1.458-2.365 2.808 2.808 0 0 0 -1.2-.286h-1.661a3.111 3.111 0 0 0 -1.56.338 2.688 2.688 0 0 0 -1.343 2.074 2.656 2.656 0 0 0 1.21 2.469 2.933 2.933 0 0 0 1.681.419h1.681a2.767 2.767 0 0 0 1.265-.321 2.683 2.683 0 0 0 1.392-2.331.875.875 0 0 0 -.866-.866.889.889 0 0 0 -.874.869z"/></g></svg>