<svg height="17.815" viewBox="0 0 14.95 17.815" width="14.95" xmlns="http://www.w3.org/2000/svg"><g fill="#304351"><path d="m5.533 17.815h6.808a2.611 2.611 0 0 0 2.609-2.609v-9.627a2.611 2.611 0 0 0 -2.609-2.609h-6.808a2.611 2.611 0 0 0 -2.609 2.609v9.627a2.611 2.611 0 0 0 2.609 2.609zm6.808-13.346a1.107 1.107 0 0 1 1.11 1.11v9.627a1.107 1.107 0 0 1 -1.11 1.11h-6.808a1.107 1.107 0 0 1 -1.11-1.11v-9.627a1.107 1.107 0 0 1 1.11-1.11z"/><path d="m.75 13.901a.742.742 0 0 0 .75-.75v-8.832a2.816 2.816 0 0 1 2.819-2.819h6a.75.75 0 0 0 0-1.5h-6a4.32 4.32 0 0 0 -4.319 4.319v8.832a.752.752 0 0 0 .75.75z"/></g></svg>