<svg fill="none" height="23" viewBox="0 0 20 23" width="20" xmlns="http://www.w3.org/2000/svg"><path d="m9.84201 21.227c4.96619 0 8.99199-4.0259 8.99199-8.992 0-4.96615-4.0258-8.992-8.99199-8.992-4.96615 0-8.992004 4.02585-8.992004 8.992 0 4.9661 4.025854 8.992 8.992004 8.992z" fill="#1e4437"/><path clip-rule="evenodd" d="m9.842 4.09301c-4.4967 0-8.142 3.64529-8.142 8.14199s3.6453 8.142 8.142 8.142 8.142-3.6453 8.142-8.142-3.6453-8.14199-8.142-8.14199zm-9.842 8.14199c0-5.43558 4.40641-9.84199 9.842-9.84199 5.4356 0 9.842 4.40641 9.842 9.84199 0 5.4356-4.4064 9.842-9.842 9.842-5.43559 0-9.842-4.4064-9.842-9.842z" fill="#fff" fill-rule="evenodd"/><path d="m13.758 4.11301c.435 1.6 2.175 7.97679-3.99298 9.73579-4.5 1.283-3.612 8.6854 2.99998 6.8404 1.6897-.57 3.1708-1.6314 4.2541-3.0479 1.0832-1.4164 1.7192-3.1238 1.8265-4.9038.1074-1.7799-.3187-3.55146-1.2238-5.08787-.905-1.53642-2.2479-2.76769-3.8568-3.53662z" fill="#009060"/><path clip-rule="evenodd" d="m12.6461 3.263h1.3116l.1739.08309c1.7614.84185 3.2317 2.18991 4.2226 3.87211.9909 1.68214 1.4575 3.6217 1.3399 5.5705s-.8139 3.8181-1.9998 5.369c-1.1859 1.5507-2.8076 2.7129-4.6576 3.3369l-.0214.0072-.0218.0061c-1.7966.5013-3.31371.4034-4.48864-.1631-1.18044-.5692-1.9239-1.5692-2.22683-2.6789-.59687-2.1865.51425-4.8534 3.25394-5.6345 1.39413-.3976 2.28313-1.0365 2.85703-1.7525.579-.7223.8815-1.57911 1.0068-2.47531.2549-1.82243-.2391-3.66242-.458-4.46759zm2.3752 2.64455c.7429.60469 1.3768 1.33942 1.8682 2.1735.8192 1.39068 1.2049 2.99415 1.1077 4.60525s-.6729 3.1566-1.6533 4.4387c-.976 1.2762-2.3088 2.2339-3.8292 2.7515-1.4979.4138-2.56437.278-3.2715-.063-.70506-.34-1.14211-.9247-1.32518-1.5953-.37513-1.3742.31975-3.05 2.08006-3.5519 1.68992-.482 2.89642-1.2998 3.71742-2.3242.8159-1.018 1.2076-2.1852 1.364-3.3031.1557-1.11412.0814-2.21362-.0582-3.13145z" fill="#fff" fill-rule="evenodd"/><path d="m9.842 13.758c2.5228 0 4.568-2.8895 4.568-6.45399 0-3.56445-2.0452-6.454004-4.568-6.454004-2.52283 0-4.568 2.889554-4.568 6.454004 0 3.56449 2.04517 6.45399 4.568 6.45399z" fill="#02d06c"/><path clip-rule="evenodd" d="m7.30573 3.23139c-.71359 1.00822-1.18173 2.44542-1.18173 4.07261s.46814 3.0644 1.18173 4.0726c.71508 1.0103 1.62409 1.5314 2.53627 1.5314.9122 0 1.8212-.5211 2.5363-1.5314.7136-1.0082 1.1817-2.44541 1.1817-4.0726s-.4681-3.06439-1.1817-4.07261c-.7151-1.01031-1.6241-1.53139-2.5363-1.53139-.91218 0-1.82119.52108-2.53627 1.53139zm-1.3876-.98212c.93822-1.325574 2.3132-2.24927 3.92387-2.24927 1.6107 0 2.9856.923696 3.9239 2.24927.9397 1.32767 1.4941 3.11747 1.4941 5.05473s-.5544 3.7271-1.4941 5.0547c-.9383 1.3256-2.3132 2.2493-3.9239 2.2493-1.61067 0-2.98565-.9237-3.92387-2.2493-.93969-1.3276-1.49413-3.11744-1.49413-5.0547s.55444-3.72706 1.49413-5.05473z" fill="#fff" fill-rule="evenodd"/></svg>