<svg height="27.788" viewBox="0 0 58.3 27.788" width="58.3" xmlns="http://www.w3.org/2000/svg"><circle cx="40.788" cy="10.767" fill="#02cf6c" r="2.234"/><g fill="#304351"><path d="m20.684 24.392h1.653c.581 0 1.161-.045 1.7-.089a10.063 10.063 0 0 0 1.608-.268 5.945 5.945 0 0 0 1.34-.491 2.619 2.619 0 0 0 .893-.8 1.991 1.991 0 0 0 .357-1.162 2.6 2.6 0 0 0 -.313-1.251 9.806 9.806 0 0 0 -.8-1.251c-.357-.4-.759-.8-1.206-1.251-.447-.4-.893-.8-1.385-1.206s-.938-.76-1.43-1.117-.893-.715-1.3-1.028l.357-3.261 11.442-4.918 1.251 2.948-9.516 4.021c.625.536 1.206 1.072 1.832 1.608a19.685 19.685 0 0 1 1.653 1.7 17.451 17.451 0 0 1 1.34 1.832 6.974 6.974 0 0 1 .849 1.876 5.234 5.234 0 0 0 .715 1.519 6.5 6.5 0 0 0 1.162 1.3 6.348 6.348 0 0 0 1.474.938 4.228 4.228 0 0 0 1.653.357h.491v3.172h-.357a7.773 7.773 0 0 1 -3.44-.715 6.977 6.977 0 0 1 -2.681-2.055 4.271 4.271 0 0 1 -1.028 1.161 7.02 7.02 0 0 1 -1.385.8 8.937 8.937 0 0 1 -1.653.491c-.581.134-1.162.179-1.742.268-.581.045-1.161.089-1.742.089h-1.608c-.849 0-9.694 0-10.5-.045-.8 0-1.608-.089-2.368-.134a17.927 17.927 0 0 1 -2.234-.357 11.056 11.056 0 0 1 -2.055-.67 7.048 7.048 0 0 1 -1.742-1.072 6.686 6.686 0 0 1 -1.385-1.564 4.18 4.18 0 0 1 -.581-1.876v-.492a7.083 7.083 0 0 1 .179-1.608 7.778 7.778 0 0 1 .625-1.787c.313-.625.581-1.206.893-1.7l2.323 1.921a7.632 7.632 0 0 0 -.491.759 7.128 7.128 0 0 0 -.447 1.028 4.718 4.718 0 0 0 -.268 1.072c0 .134-.045.223-.045.357a1.664 1.664 0 0 0 .089.536 2.033 2.033 0 0 0 .715.8 6.526 6.526 0 0 0 1.251.625 12.5 12.5 0 0 0 1.653.447 13.057 13.057 0 0 0 1.966.268 16.254 16.254 0 0 0 2.144.134c.757.007 9.335.141 10.094.141z"/><path d="m44.362 3.934-7.014 2.457v-1.787l7.014-2.368z"/><path d="m35.918 24.392h2.01a10.952 10.952 0 0 0 1.206-.089 4.534 4.534 0 0 0 1.117-.268 1.874 1.874 0 0 0 .8-.625 1.614 1.614 0 0 0 .313-1.072 3.928 3.928 0 0 0 -.134-.893c-.089-.4-.223-.8-.357-1.3a11.941 11.941 0 0 0 -.536-1.474c-.223-.491-.4-.983-.625-1.43l2.859-1.43c.223.491.4.983.625 1.519a10.2 10.2 0 0 1 .536 1.653 10.439 10.439 0 0 1 .4 1.7 10.73 10.73 0 0 1 .134 1.653 5.312 5.312 0 0 1 -.491 2.368 4.643 4.643 0 0 1 -3.306 2.591 9.583 9.583 0 0 1 -2.591.313h-1.96z"/><path d="m46.908 6.567c.179-.045.447-.134.8-.223.313-.089.67-.179 1.072-.313.357-.134.76-.268 1.117-.4a7.442 7.442 0 0 0 1.028-.536l-.76-.357a4.534 4.534 0 0 1 -.8-.581 3.124 3.124 0 0 1 -.581-.76 1.516 1.516 0 0 1 -.223-.849v-.134a1.579 1.579 0 0 1 .179-.76 3.278 3.278 0 0 1 .625-.8 3.08 3.08 0 0 1 1.832-.849h.134a2.071 2.071 0 0 1 .849.179 2.338 2.338 0 0 1 1.072 1.072 1.974 1.974 0 0 1 .268.715 3.272 3.272 0 0 1 0 1.519q-.067.4-.134.67l.4.089-.491 1.608-.715-.179a8.751 8.751 0 0 1 -1.251.849c-.491.268-.938.491-1.43.715-.447.223-.893.357-1.3.536a7.453 7.453 0 0 0 -.849.313l-.357.089zm4.2-5a1.671 1.671 0 0 0 -.67.223 1.8 1.8 0 0 0 -.581.581.534.534 0 0 0 .179.357 4.74 4.74 0 0 0 .491.4 2.843 2.843 0 0 0 .625.357 2.385 2.385 0 0 0 .625.268 1.532 1.532 0 0 0 .045-.491 3.444 3.444 0 0 0 -.089-.67 2.583 2.583 0 0 0 -.223-.625 1.054 1.054 0 0 0 -.357-.4z"/><path d="m47.27 22.694c.313.179.715.4 1.117.625a7.406 7.406 0 0 0 1.385.536 9.44 9.44 0 0 0 1.385.4 6.57 6.57 0 0 0 1.206.179h.536c.223 0 .447-.045.67-.045.223-.045.447-.089.715-.134a1.565 1.565 0 0 0 .625-.268 2.015 2.015 0 0 0 .447-.4.946.946 0 0 0 .179-.625v-.045a2.885 2.885 0 0 0 -.268-1.117 8.075 8.075 0 0 0 -.759-1.3 15.165 15.165 0 0 0 -1.117-1.385c-.4-.447-.849-.893-1.3-1.34a11.23 11.23 0 0 0 -1.385-1.161 9.7 9.7 0 0 0 -1.3-.893l1.836-2.721a27.357 27.357 0 0 1 2.234 1.742 18.2 18.2 0 0 1 2.055 2.1 15.462 15.462 0 0 1 1.608 2.323 9.15 9.15 0 0 1 .983 2.412 7.923 7.923 0 0 1 .179 1.34 6.956 6.956 0 0 1 -.223 1.474 3.629 3.629 0 0 1 -1.028 1.7 5.586 5.586 0 0 1 -2.055 1.3 6.507 6.507 0 0 1 -2.323.4h-.447a10.31 10.31 0 0 1 -1.653-.134 11.347 11.347 0 0 1 -1.653-.447 16.312 16.312 0 0 1 -1.564-.625 10.136 10.136 0 0 1 -1.385-.76z"/></g></svg>