<svg fill="none" height="19" viewBox="0 0 18 19" width="18" xmlns="http://www.w3.org/2000/svg"><g stroke="#f6f6f8" stroke-miterlimit="10" stroke-width="1.2"><path d="m8.98763 18.1541c4.41147 0 7.98767-3.4043 7.98767-7.6037 0-4.19936-3.5762-7.60362-7.98767-7.60362-4.41145 0-7.98763 3.40426-7.98763 7.60362 0 4.1994 3.57618 7.6037 7.98763 7.6037z" fill="#1e4437"/><path d="m12.4662 3.68262c.3864 1.35296 1.9321 6.74518-3.54696 8.23268-3.99736 1.0849-3.20855 7.3443 2.66496 5.7841 1.5009-.4819 2.8166-1.3795 3.7788-2.5772.9622-1.1978 1.5272-2.6416 1.6226-4.1467.0954-1.50511-.2831-3.00312-1.0871-4.30231-.804-1.2992-1.9969-2.34036-3.426-2.99057z" fill="#009060"/><path d="m8.98777 11.8384c2.24103 0 4.05773-2.44345 4.05773-5.45755s-1.8167-5.45751-4.05773-5.45751c-2.24105 0-4.05778 2.44341-4.05778 5.45751s1.81673 5.45755 4.05778 5.45755z" fill="#02d06c"/></g></svg>