<svg height="21.58" viewBox="0 0 46.258 21.58" width="46.258" xmlns="http://www.w3.org/2000/svg"><ellipse cx="32.041" cy="7.923" fill="#02cf6c" rx="1.926" ry="1.926"/><g fill="#304351"><path d="m28.784 21.439h-.42a6.553 6.553 0 0 1 -2.731-.525 6.911 6.911 0 0 1 -2.136-1.541 2.4 2.4 0 0 1 -.805.875 5.693 5.693 0 0 1 -1.226.6 9.044 9.044 0 0 1 -1.471.35c-.525.07-1.086.14-1.611.175s-1.086.07-1.576.07h-7.739c-.7-.035-1.436-.035-2.171-.07a13.265 13.265 0 0 1 -2.1-.245 8.376 8.376 0 0 1 -1.891-.525 4.938 4.938 0 0 1 -1.506-.91 4.085 4.085 0 0 1 -1.016-1.471 5.543 5.543 0 0 1 -.385-2.136 8.616 8.616 0 0 1 .07-.91c.07-.315.14-.63.245-.981a5.481 5.481 0 0 1 .385-.91 4.149 4.149 0 0 1 .49-.77l2.31 1.671c-.07.14-.175.28-.28.455a3.815 3.815 0 0 0 -.28.525 3.886 3.886 0 0 0 -.245.56 1.741 1.741 0 0 0 -.105.56 1.008 1.008 0 0 0 .315.735 2.645 2.645 0 0 0 .875.525 9.559 9.559 0 0 0 1.3.385c.49.1 1.016.175 1.541.245.56.07 1.086.105 1.646.14s7.389.035 7.914.035c.385 0 .77 0 1.226-.035a8.515 8.515 0 0 0 1.331-.105c.455-.07.875-.1 1.3-.21a7.08 7.08 0 0 0 1.121-.35 2.194 2.194 0 0 0 .77-.56 1.053 1.053 0 0 0 .28-.77 2 2 0 0 0 -.245-.945 5.6 5.6 0 0 0 -.665-1.016 12.525 12.525 0 0 0 -.945-1.016c-.35-.35-.735-.665-1.086-.98s-.735-.6-1.05-.875c-.35-.28-.63-.49-.875-.7l.315-2.661 8.964-3.747 1.086 2.7-7.459 3.012c.455.385.91.735 1.331 1.12s.84.77 1.191 1.156a11.8 11.8 0 0 1 1.05 1.261 9.642 9.642 0 0 1 .84 1.436 9.393 9.393 0 0 0 .63 1.156 5.8 5.8 0 0 0 .77 1.05 4.14 4.14 0 0 0 .98.77 2.614 2.614 0 0 0 1.3.28h.42v3.117z"/><path d="m35.019 2.426-5.5 1.926v-1.4l5.5-1.857z"/><path d="m28.399 18.358h1.3c.28 0 .56-.035.911-.07a3.839 3.839 0 0 0 .91-.21 1.965 1.965 0 0 0 .7-.42.877.877 0 0 0 .28-.63 2.39 2.39 0 0 0 -.14-.7c-.105-.315-.21-.665-.35-1.015-.14-.385-.315-.77-.49-1.191s-.385-.805-.56-1.191l2.766-1.366c.175.42.35.84.525 1.3s.35.91.49 1.4.245.945.35 1.4a9.045 9.045 0 0 1 .14 1.331 4.947 4.947 0 0 1 -.385 2 3.49 3.49 0 0 1 -1.086 1.366 4.691 4.691 0 0 1 -1.681.805 8.312 8.312 0 0 1 -2.136.245h-1.544z"/><path d="m37.013 5.157c.14-.035.35-.1.63-.175.245-.07.525-.14.84-.245.28-.1.6-.21.875-.315a5.861 5.861 0 0 0 .805-.42l-.6-.28a3.556 3.556 0 0 1 -.63-.455 3.82 3.82 0 0 1 -.455-.6 1.189 1.189 0 0 1 -.175-.665 1.78 1.78 0 0 1 .14-.7 2.568 2.568 0 0 1 .49-.63 2.052 2.052 0 0 1 .665-.455 2.783 2.783 0 0 1 .77-.21 1.446 1.446 0 0 1 .771.14 1.833 1.833 0 0 1 .84.84 1.549 1.549 0 0 1 .21.56 2.568 2.568 0 0 1 0 1.191q-.053.315-.105.525l.315.07-.385 1.261-.56-.14a6.859 6.859 0 0 1 -.981.665c-.385.21-.735.385-1.12.56-.35.175-.7.28-1.016.42a5.865 5.865 0 0 0 -.665.245l-.28.07zm3.292-3.887a1.31 1.31 0 0 0 -.525.175 1.416 1.416 0 0 0 -.455.455.419.419 0 0 0 .14.28 3.732 3.732 0 0 0 .385.315 2.237 2.237 0 0 0 .49.28 1.873 1.873 0 0 0 .49.21 1.2 1.2 0 0 0 .035-.385 2.693 2.693 0 0 0 -.07-.525 2.019 2.019 0 0 0 -.175-.49.827.827 0 0 0 -.28-.315z"/><path d="m38.134 17.413a10.87 10.87 0 0 0 1.121.49 8.148 8.148 0 0 0 1.121.35 3.253 3.253 0 0 0 .945.14 4.75 4.75 0 0 0 .63-.035 5.022 5.022 0 0 0 .77-.14 1.954 1.954 0 0 0 .665-.315.831.831 0 0 0 .315-.525 1.733 1.733 0 0 0 -.245-.84 7.7 7.7 0 0 0 -.63-.98 12.775 12.775 0 0 0 -.945-1.05c-.35-.35-.735-.7-1.086-1.016-.385-.315-.735-.63-1.121-.911s-.735-.525-1.05-.735l1.716-2.556c.63.455 1.261.945 1.856 1.471a16.185 16.185 0 0 1 1.716 1.751 11.766 11.766 0 0 1 1.366 1.891 7.887 7.887 0 0 1 .841 1.961c.035.175.07.385.1.56a3.005 3.005 0 0 1 .035.56 3.656 3.656 0 0 1 -.35 1.646 3.971 3.971 0 0 1 -.98 1.3 4.2 4.2 0 0 1 -1.506.84 5.7 5.7 0 0 1 -1.926.315h-.28a6.029 6.029 0 0 1 -1.366-.14 10.446 10.446 0 0 1 -1.4-.385 8.916 8.916 0 0 1 -1.331-.56 9.58 9.58 0 0 1 -1.191-.665l1.265-2.946a5.708 5.708 0 0 0 .945.524z"/></g></svg>