<svg fill="none" height="13" viewBox="0 0 14 13" width="14" xmlns="http://www.w3.org/2000/svg"><path clip-rule="evenodd" d="m11.349.161181c.3713.004167.6848.276951.7403.644118l1.5794 10.455101c.0625.4136-.2221.7995-.6356.8619-.4136.0625-.7995-.2221-.8619-.6356l-.8837-5.84917-1.0213 5.86587c-.062.3563-.36733.6191-.72891.6272-.36157.0082-.67846-.2404-.75654-.5936l-.92467-4.18227-.85994 2.92547c-.09642.328-.40067.5508-.74249.5436s-.63643-.2426-.71895-.5744l-.8973-3.60752h-2.91863c-.41824 0-.757283-.33904-.757283-.75728s.339043-.75729.757283-.75729h3.51063c.34784 0 .65094.23695.7349.5745l.36621 1.47235.90284-3.0714c.09746-.33155.40702-.55507.75241-.54327.34538.0118.63896.25593.71357.59336l.7325 3.31316 1.16257-6.677487c.0637-.36583.3833-.631509.7546-.627342z" fill="#9aabb8" fill-rule="evenodd"/></svg>