<svg fill="none" height="11" viewBox="0 0 15 11" width="15" xmlns="http://www.w3.org/2000/svg"><g clip-rule="evenodd" fill="#fff" fill-rule="evenodd"><path d="m2.4 2.16697c2.8893-2.889295 7.57378-2.889294 10.4631 0l1.3101 1.31017c1.0319 1.03189 1.0319 2.70492 0 3.73681l-1.3101 1.31016c-2.88932 2.88929-7.5738 2.88929-10.4631 0l-1.31016-1.31016c-1.0318955-1.03189-1.0318947-2.70492 0-3.73681zm9.7157.74737c-2.47653-2.476545-6.49179-2.476545-8.96834 0l-1.31016 1.31016c-.61914.61914-.61914 1.62295 0 2.24209l1.31016 1.31016c2.47655 2.47655 6.49181 2.47655 8.96834 0l1.3102-1.31016c.6191-.61914.6191-1.62295 0-2.24209z"/><path d="m6.12932 5.40596c0 .94272.76422 1.70695 1.70694 1.70695s1.70694-.76423 1.70694-1.70695-.76422-1.70694-1.70694-1.70694-1.70694.76422-1.70694 1.70694zm1.70694-2.76387c-1.52644 0-2.76387 1.23743-2.76387 2.76387 0 1.52645 1.23743 2.76388 2.76387 2.76388 1.52645 0 2.76384-1.23743 2.76384-2.76388 0-1.52644-1.23739-2.76387-2.76384-2.76387z"/></g></svg>