<svg height="24.152" viewBox="0 0 23.928 24.152" width="23.928" xmlns="http://www.w3.org/2000/svg"><path d="m11.745 7.088a3.175 3.175 0 0 1 3.116 2.247.391.391 0 1 1 -.758.189 2.457 2.457 0 0 0 -2.358-1.654 2.671 2.671 0 0 0 -1.637.568 1.763 1.763 0 0 0 -.7 1.386 1.891 1.891 0 0 0 .348 1.27 3.954 3.954 0 0 0 .849.708 3.277 3.277 0 0 1 1.057 1.129 4.916 4.916 0 0 1 .477 2.363.391.391 0 0 1 -.782 0 4.149 4.149 0 0 0 -.379-1.99 2.457 2.457 0 0 0 -.825-.867 4.334 4.334 0 0 1 -1.02-.861 2.756 2.756 0 0 1 -.51-1.75 2.574 2.574 0 0 1 1-1.99 3.391 3.391 0 0 1 2.122-.748zm0 10.245a.586.586 0 1 1 -.587.586.586.586 0 0 1 .587-.586z" stroke="#304351"/><g fill="none"><path d="m5.712 22.374-4.43 1.187a1 1 0 0 1 -1.229-1.208l1.217-4.858a12.116 12.116 0 0 1 -1.269-5.418 12.019 12.019 0 0 1 11.963-12.077 12.02 12.02 0 0 1 11.965 12.076 12.02 12.02 0 0 1 -11.965 12.076 11.828 11.828 0 0 1 -6.252-1.778z"/><path d="m11.96369141 22.15185547c5.4946289 0 9.96484375-4.52001953 9.96484375-10.0756836 0-5.55615234-4.47021485-10.07617187-9.96484375-10.07617187-5.49365235 0-9.96337891 4.52001953-9.96337891 10.07617187 0 1.59326172.35644531 3.11621094 1.05908203 4.52636719l.32958984.66113281-.1796875.71679688-.80371093 3.20898437 2.78857422-.74707031.83544921-.22412109.73583985.4555664c1.56005859.96679688 3.35742187 1.47802735 5.19824219 1.47802735m0 2c-2.29150391 0-4.43261719-.65039063-6.25195313-1.77783203l-4.43017578 1.18701172c-.08886719.02392578-.17724609.03515625-.26318359.03515625-.62402344 0-1.12841797-.59423829-.96582032-1.24365235l1.21679688-4.85791015c-.81201172-1.62939454-1.26904297-3.47021485-1.26904297-5.41845704 0-6.66992187 5.35546875-12.07617187 11.96337891-12.07617187 6.60839843 0 11.96484375 5.40625 11.96484375 12.07617187 0 6.6694336-5.35644532 12.0756836-11.96484375 12.0756836z" fill="#304351"/></g></svg>