<svg fill="none" height="14" viewBox="0 0 11 14" width="11" xmlns="http://www.w3.org/2000/svg"><path d="m6.17718 8.21474c-.19906-.77423-.19906-1.29039-.39813-2.06462-.19906-1.0323-.19906-2.06461-.19906-3.09692s.39813-2.064614.99532-2.838845c0 .258077.19907.516154.19907 1.032305.19906.77423.79626 1.54846 1.19439 2.3227.59719.77423 1.19438 1.80653 1.79158 2.58076.39815.77423.79625 1.54847.99535 2.3227.199.51615.199 1.0323.199 1.29038 0 .7742-.199 1.5485-.3981 2.0646-.1561.4047-.3121.6507-.4682.9869-.09211.1984-.32805.5222-.32805.3035 0 0 4.79225 0-7.36539 0-.19907 0-.19907 0-.39814-.2581-.39812-.7742-.79625-1.8065-.99532-2.5807-.199063-1.29043 0-2.58081.79626-3.61312.19906-.25808.19907-.25808.39813-.51616v.77423c.19906.77424.19906 1.29039.59719 2.06462.19907.25808.19907.51615.39813.51615 0-.51615-.19906-.77423-.19906-1.29038s0-1.03231 0-1.54846c0-.77423.19906-1.80654.39813-2.58077.19906-.51615.59719-1.03231.99532-1.29039v.25808 1.80654c0 .77423.19907 1.54846.59719 2.32269.39813.25808.79626.77423 1.19439 1.03231 0 .25808 0 .25808 0 0z" fill="#9aabb8"/></svg>