<svg width="36" height="37" viewBox="0 0 36 37" fill="none" xmlns="http://www.w3.org/2000/svg">
<path d="M30.1055 36.9999H6.41647C3.32196 36.9999 0.867694 34.3958 0.760986 31.2492V13.8885C0.760986 10.8503 3.32196 8.35474 6.41647 8.35474H30.2122C33.3067 8.35474 35.8677 10.9588 35.8677 13.997V31.3577C35.761 34.5043 33.2 36.9999 30.1055 36.9999ZM6.30977 10.9588C4.70916 10.9588 3.32196 12.2609 3.32196 13.997V31.3577C3.32196 32.9852 4.60245 34.3958 6.30977 34.3958H30.1055C31.7061 34.3958 33.0933 33.0937 33.0933 31.3577V13.997C33.0933 12.3694 31.8128 10.9588 30.1055 10.9588H6.30977Z" fill="#304351"/>
<path d="M18.261 0C13.7793 0 10.0445 3.68915 10.0445 8.35484V21.8094C10.0445 26.3666 13.6726 30.1642 18.261 30.1642C22.8494 30.1642 26.4775 26.4751 26.4775 21.8094V8.35484C26.4775 3.68915 22.7427 0 18.261 0Z" fill="#02D06C"/>
<path d="M18.261 36.2404C17.5141 36.2404 16.9805 35.5894 16.9805 34.8298V18.9882C16.9805 18.2287 17.6208 17.5776 18.261 17.5776C19.008 17.5776 19.6482 18.2287 19.6482 18.9882V34.9383C19.5415 35.5894 19.008 36.2404 18.261 36.2404Z" fill="#304351"/>
<path d="M18.261 19.5309C19.7932 19.5309 21.0354 18.2678 21.0354 16.7098C21.0354 15.1517 19.7932 13.8887 18.261 13.8887C16.7287 13.8887 15.4866 15.1517 15.4866 16.7098C15.4866 18.2678 16.7287 19.5309 18.261 19.5309Z" fill="#304351"/>
</svg>
