<svg width="513" height="534" viewBox="0 0 513 534" fill="none" xmlns="http://www.w3.org/2000/svg">
<path d="M430.839 533.999H82.1614C60.3835 533.957 39.5095 525.293 24.1102 509.901C8.71091 494.51 0.0413635 473.647 0 451.881L0 201.617C0.0828054 179.893 8.77561 159.086 24.1749 143.754C39.5742 128.421 60.4249 119.812 82.1614 119.813H430.839C452.629 119.813 473.527 128.464 488.936 143.864C504.344 159.264 513 180.151 513 201.93V452.194C512.876 473.906 504.17 494.689 488.78 510.012C473.389 525.336 452.562 533.958 430.839 533.999ZM82.1614 158.603C70.7473 158.603 59.8007 163.135 51.7297 171.202C43.6587 179.269 39.1245 190.209 39.1245 201.617V451.881C39.1245 463.289 43.6587 474.23 51.7297 482.297C59.8007 490.363 70.7473 494.895 82.1614 494.895H430.839C442.253 494.895 453.199 490.363 461.27 482.297C469.341 474.23 473.876 463.289 473.876 451.881V201.617C473.876 190.209 469.341 179.269 461.27 171.202C453.199 163.135 442.253 158.603 430.839 158.603H82.1614Z" fill="#9AABB8"/>
<path d="M256.5 0C224.69 0.0825788 194.207 12.7488 171.714 35.2297C149.221 57.7105 136.548 88.1775 136.466 119.97V313.924C136.466 345.742 149.112 376.257 171.623 398.756C194.134 421.255 224.665 433.895 256.5 433.895C288.335 433.895 318.866 421.255 341.376 398.756C363.887 376.257 376.534 345.742 376.534 313.924V119.97C376.451 88.1775 363.778 57.7105 341.285 35.2297C318.792 12.7488 288.309 0.0825788 256.5 0V0Z" fill="#C2CDD4"/>
<path d="M256.5 522.268C251.312 522.268 246.336 520.209 242.668 516.542C238.999 512.875 236.938 507.902 236.938 502.717V273.256C236.938 268.071 238.999 263.098 242.668 259.431C246.336 255.764 251.312 253.704 256.5 253.704C261.688 253.704 266.664 255.764 270.333 259.431C274.001 263.098 276.062 268.071 276.062 273.256V502.717C276.062 507.902 274.001 512.875 270.333 516.542C266.664 520.209 261.688 522.268 256.5 522.268Z" fill="#9AABB8"/>
<path d="M256.499 281.079C278.712 281.079 296.719 263.081 296.719 240.88C296.719 218.679 278.712 200.681 256.499 200.681C234.286 200.681 216.279 218.679 216.279 240.88C216.279 263.081 234.286 281.079 256.499 281.079Z" fill="#9AABB8"/>
</svg>
