<svg fill="none" height="35" viewBox="0 0 32 35" width="32" xmlns="http://www.w3.org/2000/svg"><path clip-rule="evenodd" d="m.8302 14.9558c0-3.3137 2.68629-5.99997 6-5.99997h19.0925c3.3137 0 6 2.68627 6 5.99997v13.0458c0 3.3138-2.6863 6-6 6h-19.0925c-3.31371 0-6-2.6863-6-6zm6-4c-2.20914 0-4 1.7909-4 4v13.0458c0 2.2092 1.79086 4 4 4h19.0925c2.2091 0 4-1.7908 4-4v-13.0458c0-2.2091-1.7909-4-4-4z" fill="#9aabb8" fill-rule="evenodd"/><path d="m16.3766.828766c-4.0905 0-7.49923 3.367104-7.49923 7.625504v12.28003c0 4.1594 3.31133 7.6255 7.49923 7.6255s7.4992-3.3671 7.4992-7.6255v-12.28003c0-4.2584-3.4087-7.625504-7.4992-7.625504z" fill="#bdc8d1"/><g fill="#9aabb8"><path d="m16.3767 18.6546c1.3985 0 2.5322-1.1528 2.5322-2.5748 0-1.4221-1.1337-2.5749-2.5322-2.5749s-2.5322 1.1528-2.5322 2.5749c0 1.422 1.1337 2.5748 2.5322 2.5748z"/><path clip-rule="evenodd" d="m16.5208 16.0798c.5523 0 1 .4477 1 1v14.9218c0 .5523-.4477 1-1 1s-1-.4477-1-1v-14.9218c0-.5523.4477-1 1-1z" fill-rule="evenodd"/></g></svg>