<svg height="19.531" viewBox="0 0 21.306 19.531" width="21.306" xmlns="http://www.w3.org/2000/svg"><path d="m20.979 8.19-9.765-7.988a.888.888 0 0 0 -1.123 0l-9.765 7.99a.888.888 0 0 0 1.123 1.376l1.214-.994v8.3a2.663 2.663 0 0 0 2.663 2.663h10.653a2.663 2.663 0 0 0 2.663-2.663v-8.3l1.214.994a.888.888 0 0 0 1.123-1.376zm-12.1 9.565v-4.438a.888.888 0 0 1 .888-.888h1.775a.888.888 0 0 1 .888.888v4.439zm7.99-.888a.888.888 0 0 1 -.888.888h-1.78v-4.438a2.663 2.663 0 0 0 -2.663-2.663h-1.773a2.663 2.663 0 0 0 -2.664 2.663v4.439h-1.775a.888.888 0 0 1 -.888-.888v-9.748l6.214-5.084 6.214 5.084z" fill="#02d06c"/></svg>