<svg viewBox="0 0 16 16" xmlns="http://www.w3.org/2000/svg" xmlns:xlink="http://www.w3.org/1999/xlink"><linearGradient id="a"><stop offset="0" stop-color="#ffc107"/><stop offset=".5074" stop-color="#f44336"/><stop offset=".9901" stop-color="#9c27b0"/></linearGradient><linearGradient id="b" gradientUnits="userSpaceOnUse" x1="1.4645" x2="14.5355" xlink:href="#a" y1="14.5355" y2="1.4645"/><linearGradient id="c" gradientUnits="userSpaceOnUse" x1="5.1716" x2="10.8284" xlink:href="#a" y1="10.8284" y2="5.1716"/><linearGradient id="d" gradientUnits="userSpaceOnUse" x1="11.9229" x2="12.6771" xlink:href="#a" y1="4.0771" y2="3.3229"/><path d="m11 0h-6a5 5 0 0 0 -5 5v6a5 5 0 0 0 5 5h6a5 5 0 0 0 5-5v-6a5 5 0 0 0 -5-5zm3.5 11c0 1.93-1.57 3.5-3.5 3.5h-6c-1.93 0-3.5-1.57-3.5-3.5v-6c0-1.93 1.57-3.5 3.5-3.5h6c1.93 0 3.5 1.57 3.5 3.5z" fill="url(#b)"/><path d="m8 4a4 4 0 1 0 0 8 4 4 0 0 0 0-8zm0 6.5a2.503 2.503 0 0 1 -2.5-2.5c0-1.379 1.122-2.5 2.5-2.5s2.5 1.121 2.5 2.5c0 1.378-1.122 2.5-2.5 2.5z" fill="url(#c)"/><circle cx="12.3" cy="3.7" fill="url(#d)" r=".533"/></svg>