<svg height="43.195" viewBox="0 0 35.159 43.195" width="35.159" xmlns="http://www.w3.org/2000/svg"><path d="m17.768 8.395a13.031 13.031 0 0 0 -1.4.078 12.282 12.282 0 0 0 -1.26.2l-.24.051a13.012 13.012 0 0 0 -6.419 3.594q-.244.25-.478.515a13.026 13.026 0 0 0 19.109 17.692q.244-.25.478-.515a13.026 13.026 0 0 0 -9.79-21.615zm-8.74 4.578c.069-.071.14-.139.21-.208s.161-.159.244-.236.147-.133.221-.2.167-.149.253-.22.153-.125.231-.187.174-.139.263-.206.159-.117.24-.174.18-.13.272-.19.165-.109.248-.163.186-.118.281-.174.17-.1.256-.149.193-.108.29-.16.174-.092.261-.136.2-.1.3-.145.177-.083.267-.122l.303-.13c.09-.037.179-.073.27-.108s.211-.077.318-.115c.091-.032.182-.063.274-.093.108-.035.217-.067.327-.1.092-.026.182-.054.274-.079l.106-.026a10.774 10.774 0 0 0 -2.769 4.506 14.584 14.584 0 0 1 -2.979-1.145zm-.624.7a15.086 15.086 0 0 0 3.3 1.311 22.532 22.532 0 0 0 -.877 6.007h-5.211a12.132 12.132 0 0 1 2.788-7.318zm0 15.506a12.133 12.133 0 0 1 -2.788-7.323h5.206a22.53 22.53 0 0 0 .877 6.007 15.1 15.1 0 0 0 -3.295 1.31zm6.227 3.993c-.088-.022-.178-.051-.269-.077-.11-.032-.22-.064-.329-.1-.092-.03-.182-.061-.272-.093-.107-.037-.214-.075-.319-.115-.09-.034-.179-.07-.269-.107l-.31-.13q-.133-.059-.264-.121c-.1-.048-.2-.1-.3-.147-.087-.043-.174-.087-.261-.134s-.2-.106-.293-.162-.169-.1-.253-.148-.189-.116-.283-.177-.165-.106-.246-.161-.184-.128-.275-.193-.159-.114-.237-.174-.178-.138-.266-.208-.153-.122-.228-.185-.171-.147-.255-.222-.148-.13-.22-.2-.163-.158-.244-.237-.141-.137-.21-.208l-.037-.04a14.574 14.574 0 0 1 2.975-1.145 10.777 10.777 0 0 0 2.771 4.505zm2.7.378c-1.858-.264-3.487-2.2-4.511-5.067a22.066 22.066 0 0 1 4.511-.531v5.6zm0-6.466a22.866 22.866 0 0 0 -4.784.571 21.722 21.722 0 0 1 -.855-5.794h5.639zm0-6.092h-5.64a21.718 21.718 0 0 1 .855-5.799 22.874 22.874 0 0 0 4.784.571zm0-6.092a22.043 22.043 0 0 1 -4.513-.535c1.025-2.864 2.65-4.803 4.512-5.067v5.6zm9.793-1.227a12.133 12.133 0 0 1 2.788 7.319h-5.206a22.53 22.53 0 0 0 -.877-6.007 15.1 15.1 0 0 0 3.295-1.312zm-6.231-4c.091.023.182.051.272.078.11.032.22.064.329.1.092.03.182.061.272.093.107.037.214.075.319.115.09.034.179.07.269.107l.31.13q.133.059.264.121c.1.048.2.1.3.147.087.043.174.087.261.134s.2.106.293.162.169.1.253.148.189.116.283.177.165.106.246.161.184.127.274.192.159.114.238.174.177.137.265.208.153.122.228.185.171.147.255.222.148.13.22.2.163.158.244.237.141.137.21.208l.037.04a14.574 14.574 0 0 1 -2.967 1.143 10.776 10.776 0 0 0 -2.779-4.506zm-2.695-.375c1.858.264 3.487 2.2 4.511 5.067a22.066 22.066 0 0 1 -4.511.531zm0 6.466a22.866 22.866 0 0 0 4.784-.571 21.722 21.722 0 0 1 .855 5.794h-5.639zm0 6.092h5.639a21.718 21.718 0 0 1 -.855 5.794 22.874 22.874 0 0 0 -4.784-.571zm0 11.689v-5.6a22.043 22.043 0 0 1 4.511.531c-1.024 2.866-2.653 4.805-4.511 5.069zm8.3-3.672c-.069.071-.139.139-.209.208s-.162.16-.244.237-.146.13-.22.2-.168.149-.254.221-.153.125-.231.186-.174.139-.263.206-.159.117-.24.174-.18.13-.272.19-.165.109-.248.162-.187.118-.281.174l-.255.149q-.144.082-.29.16-.13.069-.261.136c-.1.05-.2.1-.3.145s-.177.082-.267.122l-.309.13c-.09.036-.179.073-.27.107-.106.04-.212.078-.319.115-.09.032-.181.063-.272.093-.109.035-.217.067-.328.1-.091.027-.182.054-.274.079l-.106.026a10.774 10.774 0 0 0 2.783-4.509 14.584 14.584 0 0 1 2.975 1.145c-.018.016-.03.031-.043.044zm.624-.7a15.086 15.086 0 0 0 -3.3-1.311 22.532 22.532 0 0 0 .877-6.007h5.206a12.131 12.131 0 0 1 -2.781 7.318z" fill="#304351" stroke="#304351" stroke-width=".7"/><g fill="none" stroke="#02d06c" stroke-linecap="round" stroke-width="2"><path d="m17.341 4.021c-6.75 0-16.341 4.49-16.341 17.073"/><path d="m2.62 0-2.62 2.619 2.62 2.62" transform="matrix(-1 0 0 -1 17.783 6.652)"/><path d="m16.341 0c-6.749 0-16.341 4.49-16.341 17.073" transform="matrix(-1 0 0 -1 34.159 39.173)"/><path d="m19.997 36.541-2.62 2.619 2.62 2.62"/></g></svg>