<svg height="79.379" viewBox="0 0 116.001 79.379" width="116.001" xmlns="http://www.w3.org/2000/svg"><path d="m1.5 1.5h113v76.379h-113z" fill="none" stroke="#fff" stroke-width="3"/><path d="m58 63.233a123.379 123.379 0 0 1 -21.177-1.768 82.9 82.9 0 0 1 -17.294-4.821 36.68 36.68 0 0 1 -11.66-7.15c-2.837-2.773-4.275-5.719-4.275-8.755s1.438-5.983 4.276-8.756a36.68 36.68 0 0 1 11.66-7.15 82.9 82.9 0 0 1 17.293-4.821 123.379 123.379 0 0 1 21.177-1.768 123.385 123.385 0 0 1 21.178 1.768 82.9 82.9 0 0 1 17.293 4.82 36.68 36.68 0 0 1 11.66 7.15c2.837 2.773 4.276 5.719 4.276 8.756s-1.438 5.983-4.276 8.756a36.68 36.68 0 0 1 -11.66 7.15 82.9 82.9 0 0 1 -17.294 4.821 123.384 123.384 0 0 1 -21.177 1.768zm-35.372-23.1a24.793 24.793 0 0 0 -1.275 4.294 16.515 16.515 0 0 0 -.286 2.561 6.155 6.155 0 0 0 1.783 4.726 7.608 7.608 0 0 0 5.318 1.647 11.056 11.056 0 0 0 3.38-.507 8.912 8.912 0 0 0 2.757-1.421 6.623 6.623 0 0 0 1.854-2.226 6.409 6.409 0 0 0 .672-2.947v-.6a2.254 2.254 0 0 0 1 .648 4.63 4.63 0 0 0 1.406.191h.482a6.023 6.023 0 0 0 2.5-.447 3.9 3.9 0 0 0 1.587-1.361 4.528 4.528 0 0 0 1.337 1.311 4.069 4.069 0 0 0 2.155.491 5.421 5.421 0 0 0 1.783-.3 3.311 3.311 0 0 0 1.587-1.382 3.4 3.4 0 0 0 .724.769 4.29 4.29 0 0 0 .868.518 4.67 4.67 0 0 0 .914.3 4.107 4.107 0 0 0 .863.095 3.249 3.249 0 0 0 1.878-.542 4.332 4.332 0 0 0 1.251-1.261 2.956 2.956 0 0 0 .769.94 3.63 3.63 0 0 0 .974.553 4.592 4.592 0 0 0 1.06.251 9.648 9.648 0 0 0 1.044.059v.011h.526a8.4 8.4 0 0 0 2.262-.312 5.142 5.142 0 0 0 1.913-1.025 4.89 4.89 0 0 0 1.31-1.863 7.375 7.375 0 0 0 .482-2.818c0-.16-.006-.444-.035-.888-.028-.425-.064-.842-.111-1.276q-.035-.322-.07-.654v-.017c-.027-.255-.055-.516-.084-.785-.053-.491-.112-.959-.181-1.431l-3.611.6c.188 1.547.306 2.6.372 3.32.07.765.105 1.307.105 1.612a.577.577 0 0 1 -.085.292.741.741 0 0 1 -.337.266 2.946 2.946 0 0 1 -.7.205 6.538 6.538 0 0 1 -1.165.086h-.6a2.574 2.574 0 0 1 -1.672-.421 1.993 1.993 0 0 1 -.492-1.552v-2.6h-3.246c0 1-.024 1.821-.07 2.441a5.994 5.994 0 0 1 -.226 1.371 1.006 1.006 0 0 1 -.432.613 1.52 1.52 0 0 1 -.708.146 3.161 3.161 0 0 1 -.889-.131 1.861 1.861 0 0 1 -.843-.588c.015-.219.03-.461.035-.749v-.1c0-.255.008-.518.008-.788v-1.738h-3.25a17.994 17.994 0 0 1 -.1 2.009 4.125 4.125 0 0 1 -.311 1.251 1.323 1.323 0 0 1 -.552.648 1.791 1.791 0 0 1 -.844.181 3.267 3.267 0 0 1 -.939-.146 1.367 1.367 0 0 1 -.794-.7c.019-.261.031-.5.035-.723v-.086c0-.247.008-.5.008-.767v-1.671h-3.245a15.332 15.332 0 0 1 -.106 2.069 2.889 2.889 0 0 1 -.421 1.24 1.61 1.61 0 0 1 -.844.613 4.633 4.633 0 0 1 -1.4.171h-.482a4.218 4.218 0 0 1 -.985-.111 1.851 1.851 0 0 1 -.758-.387 1.682 1.682 0 0 1 -.487-.767 3.873 3.873 0 0 1 -.171-1.26v-10.469l-3.731.362.362 17.327a1.155 1.155 0 0 1 -.337.749 3.1 3.1 0 0 1 -.975.7 6.722 6.722 0 0 1 -1.577.517 10.262 10.262 0 0 1 -2.164.206 6.606 6.606 0 0 1 -1.742-.191 3.3 3.3 0 0 1 -1.156-.527 1.946 1.946 0 0 1 -.637-.794 2.6 2.6 0 0 1 -.192-1.009 11.144 11.144 0 0 1 .146-1.818c.062-.387.149-.86.266-1.447.1-.516.245-1.141.432-1.913l-2.888-.843zm56.566-2.795-3.611.965c.384 2.037.652 3.615.819 4.826a23.226 23.226 0 0 1 .265 2.637 1.9 1.9 0 0 1 -.3.759 2.964 2.964 0 0 1 -.869.8 8.747 8.747 0 0 1 -1.637.8 18.765 18.765 0 0 1 -2.612.759l.844 3.973a8.954 8.954 0 0 0 5.765-1.913 7.476 7.476 0 0 0 2.371-5.329 2.354 2.354 0 0 0 1 .673 4.267 4.267 0 0 0 1.336.191h.538a8.371 8.371 0 0 0 2.253-.312 5.134 5.134 0 0 0 1.914-1.023 4.894 4.894 0 0 0 1.311-1.864 7.374 7.374 0 0 0 .482-2.817c0-.229-.012-.536-.035-.889-.027-.417-.063-.834-.11-1.275q-.036-.33-.072-.67v-.01c-.027-.253-.054-.511-.083-.776-.054-.492-.113-.96-.181-1.431l-3.612.6c.183 1.494.3 2.58.372 3.319.07.762.106 1.3.106 1.612a.577.577 0 0 1 -.086.292.739.739 0 0 1 -.337.266 2.9 2.9 0 0 1 -.7.206 6.723 6.723 0 0 1 -1.17.085h-.6a4.9 4.9 0 0 1 -1.316-.141 1.549 1.549 0 0 1 -.853-.6 4.45 4.45 0 0 1 -.613-1.346c-.173-.573-.362-1.348-.579-2.367zm6.6 13.339 2.043 2.044h.362l2.044-2.045v-.361l-2.039-2.042h-.362l-2.048 2.043-2.04-2.043h-.36l-2.044 2.044v.361l2.044 2.044h.362l2.038-2.044zm8.784-21.876-3.731.361.362 17.447 3.37-.24v-17.568zm-21.535 0-3.731.361.361 17.447 3.371-.24v-17.568zm-8.422.246-2.165 2.164v.362l2.165 2.165h.362l2.165-2.165v-.362l-2.161-2.167h-.362z" fill="#fff"/></svg>