<svg fill="none" height="18" viewBox="0 0 14 18" width="14" xmlns="http://www.w3.org/2000/svg"><path d="m7.27237 17s-5.72746-6.8072-6.02782-9.45358c-.300354-2.64642 1.35678-6.807069 6.02782-6.53359 4.67103.27348 5.72753 3.47516 5.72753 6.53359 0 3.05848-5.72753 9.45358-5.72753 9.45358z" fill="#1e4437" stroke="#fff"/><path d="m7.17952 9.11898c1.48161 0 2.68268-1.17078 2.68268-2.615 0-1.44423-1.20107-2.615-2.68268-2.615-1.4816 0-2.68268 1.17077-2.68268 2.615 0 1.44422 1.20108 2.615 2.68268 2.615z" fill="#02d06c"/><path d="m7.17963 8.63168c1.2057 0 2.18312-.95275 2.18312-2.12803 0-1.17529-.97742-2.12804-2.18312-2.12804s-2.18311.95275-2.18311 2.12804c0 1.17528.97741 2.12803 2.18311 2.12803z" stroke="#fff"/></svg>