<svg height="177.763" viewBox="0 0 256.017 177.763" width="256.017" xmlns="http://www.w3.org/2000/svg"><g fill-rule="evenodd"><path d="m119.06 133.097c-12.275 4.558-23.213 10.816-36.825 13.551-29.594 7.961-37.737-3.707-10.087-35.731 40.35-41.5 90.118-70.733 133.749-89.632 25.826-9.115 40.714-6.016 32.025 13.794-10.27 20.6-29.594 35.124-44.178 50.559.425.243.851.425 1.276.668 16.468-15.131 37.615-31.113 51.713-52.442 17.865-25.887 12.275-44.178-37.372-27.406-29.472 9.662-57.851 25.7-88.052 46.669-21.937 15.131-43.57 32.207-63.563 55.663-37.919 44.3-19.142 57.425 12.944 47.885 18.594-5.897 36.156-12.64 48.37-23.578z" fill="#fca61d"/><path d="m45.287 125.198-.972 1.458c-4.8 3.707-8.933 6.745-14.645 11.363-18.716 14.827-13.369 27.832 29.108 27.832 51.47-3.524 102.393-20.9 143.411-41.079 26.495-15.192 33.908-26.13 22.909-33.422-9.541-5.348-20.236-4.558-30.08-5.044l2.37-2.188c10.452-.243 51.348-.425 53.232 13.248 1.094 7.839-7.049 20.54-39.8 36.886a455.92 455.92 0 0 1 -74.987 29.168c-31.842 9.116-63.745 14.159-92.792 14.342-59.8-1.641-46.548-22.667-24.185-38.77 10.087-6.866 18.776-11.241 26.431-13.794z" fill="#52c5cc"/></g></svg>