<svg height="66.194" viewBox="0 0 95.334 66.194" width="95.334" xmlns="http://www.w3.org/2000/svg"><g fill="#fff" fill-rule="evenodd"><path d="m44.335 49.563c-4.571 1.7-8.644 4.028-13.713 5.046-11.02 2.964-14.052-1.38-3.756-13.305 15.025-15.455 33.558-26.339 49.8-33.377 9.617-3.394 15.161-2.24 11.925 5.136-3.824 7.671-11.02 13.079-16.451 18.827.158.091.317.158.475.249 6.132-5.635 14.007-11.586 19.257-19.528 6.653-9.639 4.571-16.451-13.917-10.206-10.975 3.6-21.542 9.572-32.788 17.379-8.169 5.635-16.224 11.993-23.669 20.728-14.12 16.5-7.128 21.384 4.82 17.831 6.929-2.196 13.472-4.707 18.017-8.78z"/><path d="m16.865 46.62-.362.543c-1.788 1.38-3.326 2.512-5.453 4.231-6.969 5.521-4.978 10.363 10.839 10.363 19.166-1.312 38.129-7.784 53.4-15.3 9.866-5.657 12.627-9.73 8.531-12.446-3.553-1.991-7.535-1.7-11.2-1.878l.882-.815c3.892-.09 19.121-.159 19.823 4.933.407 2.919-2.625 7.648-14.822 13.735a169.852 169.852 0 0 1 -27.923 10.861 130.686 130.686 0 0 1 -34.553 5.34c-22.266-.61-17.333-8.44-9.006-14.437a40.6 40.6 0 0 1 9.844-5.13z"/></g></svg>