<svg fill="none" height="13" viewBox="0 0 12 13" width="12" xmlns="http://www.w3.org/2000/svg"><path d="m11.9916 12.4083v-.7041c0-.1408-.1409-.2817-.1409-.4225-.1408-.1408-.1408-.1408-.2817-.1408 0 0 0 0 0-.1408v-.4225s0 0 0-.1408c0-.2817-.2818-.5633-.5636-.5633-.1409 0-.1409 0-.1409-.14082v-4.6471c.2818 0 .4227-.14082.5636-.42247v-.14082c.1409 0 .2818-.14082.4226-.28164.1409-.14082.1409-.14082.1409-.28164-.2818-.14082-.4226-.28165-.7044-.42247s-.4227-.28164-.7045-.42246-.5636-.42246-.84537-.56328c-.28179-.14083-.42268-.28165-.70447-.42247-.28179-.28164-.70447-.42246-.98626-.70411-.42268-.28164-.70447-.563281-1.12715-.704103-.1409 0-.14089-.140821-.28179-.140821-.14089 0-.1409-.140819-.28179-.140819h-.1409-.42268-.14089c-.1409 0-.14089-.000003-.28179.140819-.14089 0-.1409.140821-.28179.140821-.42269.281643-.70447.563283-1.12715.704103-.28179.28165-.70448.42247-.98627.70411-.28179.14082-.42268.28164-.70447.42247-.28179.14082-.56357.42246-.84536.56328s-.42269.28164-.704474.42246c-.281788.14082-.422682.28165-.704471.42247 0 .14082-.0000021.28164.140892.28164.140894.14082.281793.28164.422687.28164v.14082c.140894.28165.281791.42247.563576.42247v4.6471c0 .14082.00001.14082-.14089.14082-.281787 0-.422684.2816-.563578.5633v.1408.4225.1408c-.140894 0-.281795.1408-.281795.1408-.1408941.1408-.140892.2817-.140892.4225v.7041h3.945045 1.97252 1.97251zm-8.17182-7.1819v4.6471c0 .1408-.00001.1408-.14091.1408h-1.40894v-4.64708zm2.95877 0v4.6471c0 .1408.00001.1408-.14089.1408h-1.40894v-4.64708l1.54983-.14082c-.14089 0-.14089 0 0 0zm2.95878 0v4.6471c0 .1408 0 .1408-.14089.1408h-1.40894v-4.64708z" fill="#9aabb8"/></svg>