<svg fill="none" height="15" viewBox="0 0 25 15" width="25" xmlns="http://www.w3.org/2000/svg" xmlns:xlink="http://www.w3.org/1999/xlink"><clipPath id="a"><path d="m.274994 1.06152h24.45v13.877h-24.45z"/></clipPath><path d="m20.9541 1.43457h-13.54854c-.43241 0-.86481.20465-1.15307.54572-.28827.27286-.43241.75037-.43241 1.15966v5.38899c0 .40929.14414.88679.43241 1.15965.28826.34111.72066.54571 1.15307.54571h13.54854c.4324 0 .8648-.2046 1.1531-.54571.2883-.34107.4324-.75036.4324-1.15965v-5.38899c0-.40929-.1441-.8868-.4324-1.15966-.2883-.34107-.7207-.54572-1.1531-.54572z" stroke="#fff" stroke-width="2"/><g clip-path="url(#a)"><path d="m16.8775 5.47754h-13.54856c-.4324 0-.8648.20464-1.15307.54572-.28827.27286-.4324.75037-.4324 1.15966v5.38898c0 .4093.14413.8868.4324 1.1597.28827.341.72067.5457 1.15307.5457h13.54856c.4324 0 .8648-.2047 1.1531-.5457.2883-.3411.4324-.7504.4324-1.1597v-5.38898c0-.40929-.1441-.8868-.4324-1.15966-.2883-.34108-.7207-.54572-1.1531-.54572z" fill="#02d06c"/><path d="m16.8775 5.47754h-13.54856c-.4324 0-.8648.20464-1.15307.54572-.28827.27286-.4324.75037-.4324 1.15966v5.38898c0 .4093.14413.8868.4324 1.1597.28827.341.72067.5457 1.15307.5457h13.54856c.4324 0 .8648-.2047 1.1531-.5457.2883-.3411.4324-.7504.4324-1.1597v-5.38898c0-.40929-.1441-.8868-.4324-1.15966-.2883-.34108-.7207-.54572-1.1531-.54572z" stroke="#fff" stroke-width="1.5"/><path d="m4.59096 9.92676h5.94644c.2865 0 .6448.26684.6448.73374 0 .467-.3583.7338-.6448.7338h-5.94644c-.28658 0-.6448-.2668-.6448-.7338 0-.4669.35822-.73374.6448-.73374z" fill="#fff"/></g></svg>