<svg fill="none" height="32" viewBox="0 0 17 32" width="17" xmlns="http://www.w3.org/2000/svg"><g fill="#fff"><path clip-rule="evenodd" d="m8.0027 2.46237c-3.05984 0-5.54033 2.48049-5.54033 5.54033v9.8495c0 3.0598 2.48049 5.5403 5.54033 5.5403 3.0598 0 5.5403-2.4805 5.5403-5.5403v-9.8495c0-3.05984-2.4805-5.54033-5.5403-5.54033zm-8.0027 5.54033c0-4.41977 3.58293-8.0027 8.0027-8.0027 4.4198 0 8.0027 3.58293 8.0027 8.0027v9.8495c0 4.4197-3.5829 8.0027-8.0027 8.0027-4.41977 0-8.0027-3.583-8.0027-8.0027z" fill-rule="evenodd"/><path clip-rule="evenodd" d="m8.1039 7.0791c.67996 0 1.23118.55122 1.23118 1.23119v21.49401c0 .68-.55122 1.2312-1.23118 1.2312-.67997 0-1.23119-.5512-1.23119-1.2312v-21.49401c0-.67997.55122-1.23119 1.23119-1.23119z" fill-rule="evenodd"/><path d="m8.08282 6.23315c.48701 0 .96309.14442 1.36802.41499s.72056.65514.90696 1.10508c.1863.44993.2351.94503.1401 1.42269-.095.47765-.3296.91639-.67392 1.26079-.34437.3443-.78312.5789-1.26077.6739-.47766.095-.97276.0462-1.4227-.1401-.44994-.1864-.8345-.502-1.10507-.907-.27057-.40489-.41499-.88097-.41499-1.36798 0-.65306.25943-1.27937.72121-1.74115.46179-.46179 1.0881-.72122 1.74116-.72122z"/></g></svg>