<svg height="75.022" viewBox="0 0 67 75.022" width="67" xmlns="http://www.w3.org/2000/svg"><ellipse cx="33.341" cy="41.682" fill="#9aabb8" rx="31.341" ry="31.341" stroke="#fff" stroke-miterlimit="10" stroke-width="4"/><path d="m46.991 13.373c1.516 5.561 7.583 27.8-13.918 33.933-15.682 4.472-12.59 30.271 10.447 23.841 10.282-2.869 20.437-13.412 21.162-27.377.803-15.483-7.075-24.836-17.691-30.397z" fill="#9aabb8" stroke="#fff" stroke-miterlimit="10" stroke-width="4"/><ellipse cx="33.342" cy="24.495" fill="#9aabb8" rx="15.923" ry="22.495" stroke="#fff" stroke-miterlimit="10" stroke-width="4"/><circle cx="56.5" cy="62.123" fill="#f6f6f8" r="10.5"/><g fill="none" stroke="#9aabb8" stroke-linecap="round"><path d="m0 8.581v-7.843" transform="matrix(-1 0 0 -1 61.303 64.307)"/><path d="m3.12 1.082a1 1 0 0 1 1.606 0l1.935 2.609a1 1 0 0 1 -.8 1.6h-3.874a1 1 0 0 1 -.8-1.6z" stroke-linejoin="round" transform="matrix(-1 0 0 -1 65.226 69.022)"/><path d="m53.01 68.4v-7.277"/><path d="m52.207 56.186a1 1 0 0 1 1.606 0l1.935 2.609a1 1 0 0 1 -.8 1.6h-3.874a1 1 0 0 1 -.8-1.6z"/></g></svg>