<svg height="15" viewBox="0 0 25 15" width="25" xmlns="http://www.w3.org/2000/svg"><g fill="none"><path d="m20 15h-15a5.006 5.006 0 0 1 -5-5v-.3a2.094 2.094 0 0 0 .466.052 1.933 1.933 0 0 0 1.982-1.877 1.933 1.933 0 0 0 -1.982-1.875 2.094 2.094 0 0 0 -.466.052v-1.052a5.006 5.006 0 0 1 5-5h15a5.006 5.006 0 0 1 5 5v1.052a2.1 2.1 0 0 0 -.468-.052 1.933 1.933 0 0 0 -1.982 1.875 1.933 1.933 0 0 0 1.982 1.875 2.1 2.1 0 0 0 .468-.05v.3a5.006 5.006 0 0 1 -5 5z"/><path d="m19.99979973 13.50030041c1.5658741 0 2.89488983-1.03348542 3.34074974-2.45419312-1.33483315-.47264957-2.29014969-1.71575165-2.29014969-3.17110729 0-1.50708818 1.02408981-2.78669596 2.43297768-3.21914196-.173666-1.76898217-1.66972161-3.1558578-3.48357773-3.1558578h-14.99939966c-1.81409121 0-3.31028474 1.38708353-3.48362983 3.15639472 1.40806592.43292141 2.43122995 1.71208477 2.43122995 3.21860504 0 1.45478821-.95451307 2.69746685-2.28852915 3.17053318.44566059 1.42103767 1.77481889 2.45476723 3.34092903 2.45476723zm0 1.5h-14.99939966c-2.75723005 0-5.00039993-2.24316979-5.00039993-5.00040055v-.30248928c.15048999.03436947.30692998.05228997.4662.05228997 1.09276995 0 1.98180005-.84099007 1.98180005-1.87470055 0-1.03420973-.8890301-1.87559986-1.98180005-1.87559986-.15756002 0-.31441.01761007-.4662.05233002v-1.05133009c0-2.75722981 2.24316988-5.00039987 5.00039993-5.00039987h14.99939966c2.75723076 0 5.00040054 2.24317006 5.00040054 5.00039987v1.05157995c-.15100097-.03455973-.30804062-.05257988-.46800041-.05257988-1.09276962 0-1.98180008.84139013-1.98180008 1.87559986 0 1.03371048.88903046 1.87470055 1.98180008 1.87470055.15818024 0 .31562996-.01768017.46800041-.05255032v.30274963c0 2.75723076-2.24316978 5.00040055-5.00040054 5.00040055z" fill="#9aabb8"/><path d="m16.27.852v12.138" stroke="#9aabb8" stroke-dasharray="3" stroke-linecap="round" stroke-width="1.5"/></g></svg>