<svg height="24.912" viewBox="0 0 15.224 24.912" width="15.224" xmlns="http://www.w3.org/2000/svg"><g fill="#9aabb8"><path d="m11.764 0h-8.304a3.465 3.465 0 0 0 -3.46 3.46v17.992a3.465 3.465 0 0 0 3.46 3.46h8.3a3.465 3.465 0 0 0 3.46-3.46v-17.992a3.464 3.464 0 0 0 -3.456-3.46zm2.076 21.451a2.079 2.079 0 0 1 -2.076 2.076h-8.304a2.079 2.079 0 0 1 -2.077-2.077v-17.99a2.079 2.079 0 0 1 2.077-2.076h8.3a2.079 2.079 0 0 1 2.08 2.076z"/><circle cx="7.612" cy="21.451" r="1.384"/><path d="m8.995 2.075h-2.768a.692.692 0 0 0 0 1.384h2.768a.692.692 0 0 0 0-1.384z"/></g></svg>