<svg fill="none" height="14" viewBox="0 0 13 14" width="13" xmlns="http://www.w3.org/2000/svg"><g fill="#9aabb8"><path d="m3.02625 12.6045c-.10036 0-.10036 0 0 0-.10036 0-.10036-.1003-.20073-.1003 0 0-.10036 0-.10036-.1003-.5018-.4013-1.00361-.9028-1.40506-1.4043-.501807-.7022-.903251-1.50469-1.103975-2.30716 0-.10031-.000001-.10031.100361-.10031h3.010844c.10036 0 .10036 0 .20073-.10031.30108-.40124.60217-.90279.90325-1.30403 0 0 0-.10031.10036-.10031h1.60579c-.30109.50155-.50181 1.0031-.8029 1.50465h.20073 2.50904c.10036 0 .10036 0 .20072-.10031.30108-.50155.70253-1.0031 1.00362-1.50465.20072-.20061.40144-.40123.70253-.40123h2.509c.1004 0 .1004 0 .1004.10031v.50154c-1.8065-.60185-3.31194.30093-4.01447 1.50465-.70253 1.20371-.5018 2.90896.8029 4.01236-.20073.1003-.50181.2006-.70254.3009-.10036 0-.10036 0-.10036-.1003-.5018-.5015-.80289-1.1034-1.00361-1.8055 0-.1003-.10036-.1003-.20073-.1003-.80289 0-1.70614 0-2.50903 0-.10037 0-.10036 0-.10036.1003 0 .4012.20072.8024.5018 1.0031.30109.2006.60217.3009.90326.4012.30108.1003.40144.4012.30108.7022 0 .1003-.10036.1003-.20072.1003-1.10398 0-2.10759-.301-3.11121-.8025 0 0-.10036 0-.10036-.1003z"/><path d="m4.83302 5.88391c-.10036 0-.10036.10031 0 0-.30109 0-.40145.10031-.50181.30093-.30108.50155-.60217.90279-.90325 1.40433-.20072.20062-.40145.40124-.70253.40124-.80289 0-1.70615 0-2.50904 0-.100362 0-.100362 0-.100362-.10031 0-.20062 0-.30093 0-.50155.301084.10031.702531.20062 1.003612.20062 1.60579 0 3.01085-1.1034 3.31194-2.70835.20072-.90279-.10037-1.80557-.60218-2.50774-.10036-.10031-.20072-.20062-.30108-.40124 0-.1003 0-.20061.10036-.30092.10036 0 .10036 0 .20072-.10031.30109-.20062.30109-.20062.50181.10031.40145.50154.70253 1.00309.80289 1.60495 0 .10031.10037.10031.10037.10031h2.50904c.10036 0 .10036 0 .10036-.10031 0-.40124-.10037-.80248-.50181-1.0031-.20072-.10031-.40145-.20062-.60217-.30093 0 0-.10036 0-.10036-.10031-.10036 0-.20072 0-.20072-.10031-.30109-.1003-.50181-.40123-.40145-.70216 0-.10031.10036-.10031.20072-.10031 1.10398 0 2.20796.30093 3.21157.90278h.10036c.10036 0 .20073.10031.30109.20062 0 0 0 0 .10036.10031 0 0 .10034 0 .10034.10031.1004.10031.2007.10031.2007.20062 0 0 .1004 0 .1004.10031.1004.10031.2007.10031.3011.20062.1004 0 .1004 0 .1004.10031.5018.50155.9032 1.00309 1.2043 1.70526.2007.40124.3011.80248.5018 1.30402v.10031c-1.0036 0-2.0072 0-3.01085 0-.10036 0-.10036 0-.20072 0s-.10036.10031-.10036.10031c-.30109.40124-.60217.90279-.90326 1.30402-.10036.10031-.10036.10031-.20072.10031-.50181 0-1.00362 0-1.50542 0 .10036-.20062.20072-.40123.30108-.70216s.30109-.50155.40145-.80248c0-.10031 0-.10031-.10037-.10031-.10036 0-.10035 0-.20072 0-.70253 0-1.40506 0-2.00723 0z"/><path d="m3.02653 6.08443c0 .10031-.10036.10031-.10036.10031-.40144.30093-.80289.50155-1.3047.60186s-1.003614 0-1.505422-.20062c-.1003616 0-.100362 0-.100362-.10031 0-.20062.100362-.40124.100362-.60186.200723.10031.401447.20062.60217.20062 1.103982.20062 2.207952-.60185 2.308312-1.70526.10037-.80248-.20072-1.40433-.90325-1.90588h.10036c.10036-.10031.30109-.20062.40145-.30093h.10036c.80289.60186 1.10398 1.40434 1.00362 2.40743 0 .50155-.20073.90279-.50181 1.30402 0 0 0 .10031-.10036.10031 0 0 0 .10031-.10037.10031z"/><path d="m10.4534 11.9026c-.2008.1003-.3011.3009-.50184.4013-.10037.1003-.10037 0-.20073 0-.60217-.5016-.90325-1.0031-1.00361-1.8056-.10037-1.30403.60216-2.40744 1.80648-2.80868.6022-.20061 1.2044-.20062 1.8065.10031.1004 0 .1004.10031.1004.20062 0 .20062 0 .40124-.1004.60186-.6021-.30093-1.2043-.40124-1.8065-.10031-.4014.20062-.70251.50155-1.00359.90278-.30109.90282-.10036 2.00622.90329 2.50772z"/><path d="m11.9586 9.79627c-.3011-.30093-.6022-.40123-.9033-.20061-.301.1003-.4014.40123-.4014.70214 0 .4013.3011.6019.6022.7022-.1004.2006-.3011.3009-.4015.5015-.1003.1003-.1003 0-.1003 0-.5018-.3009-.80293-.7021-.7026-1.4043 0-.50154.4015-1.00309 1.0036-1.20371.4015-.10031.8029-.10031 1.2044.20062.1003 0 .1003.10031.1003.20062-.2007.10031-.301.30092-.4014.50154z"/><path d="m1.21987 3.57678c.10037-.20062.30109-.30093.40145-.50155 0-.10031.10036-.10031.20072 0 .60217.30093.90326.90279.70253 1.50464-.10036.60186-.70253 1.10341-1.3047 1.10341-.30108 0-.602165-.10031-.802888-.20062-.100362 0-.100362-.10031-.100362-.10031.100361-.20062.100362-.40124.200724-.60186.301084.30093.602166.40124.903256.20062.30108-.10031.40144-.40124.40144-.70217 0-.40123-.20072-.60185-.60217-.70216z"/></g></svg>