<svg height="13.539" viewBox="0 0 12 13.539" width="12" xmlns="http://www.w3.org/2000/svg"><path d="m8.081 0h-4.162a3.926 3.926 0 0 0 -3.919 3.919v3.421a.57.57 0 0 0 1.14 0v-3.421a2.767 2.767 0 0 1 2.76-2.765h4.147a2.774 2.774 0 0 1 2.793 2.765v2.993a2.767 2.767 0 0 1 -2.765 2.765h-5.139l1.724-1.724a.574.574 0 1 0 -.812-.812l-2.708 2.707a.568.568 0 0 0 0 .812l2.708 2.708a.571.571 0 0 0 .413.171.6.6 0 0 0 .413-.171.568.568 0 0 0 0-.812l-1.739-1.724h5.145a3.917 3.917 0 0 0 3.92-3.92v-2.993a3.926 3.926 0 0 0 -3.919-3.919z" fill="#304351"/></svg>