<svg height="78.943" viewBox="0 0 79.372 78.943" width="79.372" xmlns="http://www.w3.org/2000/svg" xmlns:xlink="http://www.w3.org/1999/xlink"><linearGradient id="a" gradientUnits="objectBoundingBox" x2="1" y1=".5" y2=".5"><stop offset="0" stop-color="#f6f6f8"/><stop offset=".478" stop-color="#f6f6f8"/><stop offset="1" stop-color="#fff"/></linearGradient><g fill-rule="evenodd"><path d="m39.686 0a39.472 39.472 0 1 1 -39.686 39.453 39.6 39.6 0 0 1 39.686-39.453zm-3.544 8.88a30.281 30.281 0 1 1 -30.142 30.261 30.184 30.184 0 0 1 30.142-30.261z" fill="#fff"/><path d="m4484.443 5082a29.443 29.443 0 1 1 -29.443 29.443 29.478 29.478 0 0 1 29.443-29.443zm3.115 8.3c12.191 0 22.083 9.347 22.083 20.875s-9.892 20.835-22.083 20.835-22.082-9.308-22.082-20.835 9.893-20.875 22.083-20.875z" fill="url(#a)" transform="translate(-4448.146 -5072.302)"/></g></svg>