<svg height="212" viewBox="0 0 213.15 212" width="213.15" xmlns="http://www.w3.org/2000/svg" xmlns:xlink="http://www.w3.org/1999/xlink"><linearGradient id="a" gradientUnits="objectBoundingBox" x2="1" y1=".5" y2=".5"><stop offset="0" stop-color="#9b367c"/><stop offset=".478" stop-color="#b06398"/><stop offset="1" stop-color="#caafc4"/></linearGradient><g fill-rule="evenodd"><path d="m106.575 0c58.779 0 106.575 47.483 106.575 105.948 0 58.569-47.8 106.052-106.575 106.052-58.883 0-106.575-47.483-106.575-106.052 0-58.465 47.692-105.948 106.575-105.948zm-9.518 23.846c44.659 0 80.847 36.4 80.847 81.265 0 44.973-36.187 81.37-80.847 81.37-44.764 0-80.951-36.4-80.951-81.37a81.081 81.081 0 0 1 80.952-81.265z" fill="#9c0e74"/><path d="m4534.069 5082a79.069 79.069 0 1 1 -79.069 79.068 79.161 79.161 0 0 1 79.069-79.068zm8.367 22.277c32.736 0 59.3 25.1 59.3 56.059s-26.565 55.955-59.3 55.955-59.3-25-59.3-55.955 26.564-56.059 59.3-56.059z" fill="url(#a)" transform="translate(-4436.592 -5055.958)"/></g></svg>