<svg height="24" viewBox="0 0 24 24" width="24" xmlns="http://www.w3.org/2000/svg"><path d="m16.893.92c2.253 0 3.955.237 5.185 1.457 1.22 1.21 1.436 2.902 1.436 5.164v9.759c0 2.263-.216 3.945-1.436 5.165s-2.932 1.456-5.185 1.456h-9.837c-2.253 0-3.955-.236-5.184-1.456-1.22-1.21-1.437-2.902-1.437-5.165v-9.828c0-2.184.227-3.876 1.446-5.086 1.22-1.22 2.932-1.465 5.106-1.465zm-4.938 5.274c-.56 0-.885.423-.885 1.023v4.279h-4.26c-.63 0-1.033.344-1.033.925 0 .56.433.895 1.033.895h4.26v4.092c0 .6.324 1.014.885 1.014.58 0 .925-.394.925-1.014v-4.092h4.279c.59 0 1.013-.335 1.013-.895 0-.58-.393-.925-1.013-.925h-4.28v-4.28c0-.62-.344-1.022-.924-1.022z" fill="#9f9e9e"/></svg>