<svg height="24" viewBox="0 0 24 24" width="24" xmlns="http://www.w3.org/2000/svg"><g fill="#007aff"><path d="m11.965 15.709a.662.662 0 0 0 .658-.651v-10.328l-.045-1.438.787.825 1.596 1.665a.617.617 0 0 0 .454.204c.34 0 .606-.25.606-.59a.592.592 0 0 0 -.197-.439l-3.382-3.291c-.167-.167-.31-.22-.477-.22-.174 0-.318.053-.484.22l-3.391 3.291c-.12.129-.197.265-.197.439 0 .34.258.59.606.59.159 0 .34-.068.461-.204l1.59-1.665.801-.825-.051 1.438v10.328c0 .356.303.65.666.65z"/><path d="m17.572 23.275c1.96 0 2.943-.991 2.943-2.92v-9.89c0-1.93-.984-2.913-2.943-2.913h-2.762v1.34h2.731c1.037 0 1.635.56 1.635 1.641v9.753c0 1.082-.598 1.642-1.635 1.642h-11.167c-1.06 0-1.635-.56-1.635-1.642v-9.753c0-1.082.575-1.642 1.635-1.642h2.739v-1.339h-2.77c-1.952 0-2.943.976-2.943 2.913v9.89c0 1.936.991 2.92 2.943 2.92z"/></g></svg>