<svg fill="none" height="22" viewBox="0 0 32 22" width="32" xmlns="http://www.w3.org/2000/svg"><g clip-rule="evenodd" fill="#fff" fill-rule="evenodd" stroke="#fff" stroke-width=".5"><path d="m1 11.2975c0-.5332.43224-.9655.96543-.9655h28.31917c.5332 0 .9654.4323.9654.9655 0 .5331-.4322.9654-.9654.9654h-28.31917c-.53319 0-.96543-.4323-.96543-.9654z"/><path d="m5.82718 7.00709c0-3.31762 2.68947-6.00709 6.00712-6.00709h8.5815c3.3177 0 6.0071 2.68947 6.0071 6.00709v8.58161c0 3.3176-2.6894 6.007-6.0071 6.007h-8.5815c-3.31765 0-6.00712-2.6894-6.00712-6.007zm6.00712-4.29078c-2.36976 0-4.29081 1.92105-4.29081 4.29078v8.58161c0 2.3697 1.92105 4.2907 4.29081 4.2907h8.5815c2.3698 0 4.2908-1.921 4.2908-4.2907v-8.58161c0-2.36973-1.921-4.29078-4.2908-4.29078z"/></g></svg>