<svg width="22" height="22" viewBox="0 0 22 22" fill="none" xmlns="http://www.w3.org/2000/svg">
<path d="M10.9901 0.957031C10.6257 0.957174 10.2616 0.976876 9.89936 1.01605C9.56884 1.05132 9.24036 1.10375 8.91527 1.17311L8.72493 1.21405C6.8181 1.64816 5.07695 2.62317 3.71024 4.02217C3.58334 4.15226 3.45898 4.28648 3.33716 4.42482C1.58868 6.4188 0.687389 9.01661 0.825158 11.6652C0.962927 14.3139 2.12887 16.8041 4.07479 18.6059C6.02071 20.4076 8.5929 21.3785 11.2438 21.3119C13.8947 21.2454 16.4149 20.1465 18.268 18.2494C18.3949 18.1193 18.5192 17.985 18.641 17.8467C19.9306 16.3758 20.7691 14.5643 21.0561 12.6291C21.3431 10.6939 21.0664 8.71702 20.2591 6.93504C19.4519 5.15305 18.1483 3.64149 16.5044 2.58129C14.8606 1.52109 12.9461 0.95717 10.9901 0.957031ZM4.16803 4.53144C4.22132 4.47623 4.27747 4.42292 4.33172 4.36866C4.38597 4.3144 4.45735 4.24396 4.52207 4.18399C4.58679 4.12402 4.63723 4.08024 4.69529 4.02883C4.75334 3.97743 4.82567 3.9127 4.89325 3.85654C4.96082 3.80037 5.01316 3.76135 5.07312 3.7109C5.13308 3.66044 5.20922 3.60238 5.2787 3.55002C5.34817 3.49767 5.40338 3.45483 5.46905 3.4139C5.53471 3.37297 5.6099 3.31205 5.68128 3.2654C5.75266 3.21876 5.80977 3.17973 5.87163 3.13785C5.93349 3.09596 6.01724 3.04266 6.09053 3.00173C6.16381 2.96079 6.22377 2.92367 6.29039 2.88464C6.35701 2.84561 6.44076 2.79992 6.5169 2.75899L6.72057 2.65238C6.79767 2.61335 6.87571 2.57527 6.9547 2.5391C7.03369 2.50293 7.0927 2.47437 7.16313 2.44391L7.40392 2.34396C7.47435 2.3154 7.54382 2.28684 7.6152 2.26019C7.68658 2.23354 7.78081 2.20022 7.86361 2.17071C7.94641 2.1412 8.00541 2.12121 8.07775 2.09741C8.15008 2.07362 8.24716 2.04506 8.33281 2.02031C8.41847 1.99556 8.47557 1.97843 8.54695 1.95844L8.62975 1.93845C7.62548 2.91388 6.88031 4.12443 6.4617 5.4605C5.65663 5.24806 4.87727 4.94801 4.13757 4.56571L4.16803 4.53144ZM3.67979 5.07783C4.49318 5.51895 5.35568 5.86273 6.24947 6.10208C5.81044 7.62863 5.57994 9.20757 5.56422 10.7959H1.50317C1.57608 8.70201 2.34049 6.69124 3.67693 5.07783H3.67979ZM3.67979 17.1937C2.34218 15.5804 1.57675 13.5692 1.50317 11.4746H5.56707C5.58258 13.0623 5.81277 14.6406 6.25137 16.1666C5.35585 16.4066 4.49174 16.7513 3.67693 17.1937H3.67979ZM8.546 20.314C8.47748 20.2969 8.40705 20.2741 8.33567 20.2541C8.25001 20.2293 8.1634 20.2036 8.0787 20.176C7.99399 20.1484 7.93689 20.1284 7.86646 20.1037C7.79603 20.0789 7.69991 20.0456 7.61711 20.0142C7.53431 19.9828 7.4772 19.959 7.40677 19.9304L7.16408 19.8286C7.09492 19.7981 7.02608 19.7664 6.95756 19.7334L6.71962 19.6192C6.65205 19.5849 6.58353 19.5516 6.51595 19.5144C6.44838 19.4773 6.36367 19.4316 6.28754 19.3878C6.2114 19.3441 6.15524 19.3117 6.08958 19.2717C6.02391 19.2317 5.94206 19.1765 5.86877 19.1337C5.79549 19.0908 5.74029 19.0509 5.67843 19.008C5.61656 18.9652 5.53471 18.9128 5.46333 18.8576C5.39195 18.8024 5.33961 18.7691 5.27775 18.7215C5.21588 18.6739 5.13879 18.6139 5.07027 18.5587C5.00174 18.5035 4.95035 18.4635 4.89229 18.414C4.83424 18.3645 4.75905 18.2989 4.69338 18.2408C4.62771 18.1827 4.57727 18.1389 4.52112 18.0866C4.46497 18.0342 4.39359 17.9638 4.33077 17.901C4.26796 17.8381 4.22037 17.7934 4.16707 17.7382L4.13757 17.7068C4.87724 17.3244 5.65661 17.0243 6.4617 16.812C6.88039 18.148 7.62555 19.3586 8.62975 20.334L8.546 20.314ZM10.6541 20.6091C9.20269 20.4026 7.93023 18.8871 7.13268 16.6502C8.2891 16.3911 9.46914 16.252 10.6541 16.2351V20.6091ZM10.6541 15.5564C9.39606 15.5729 8.14329 15.7222 6.91663 16.0019C6.49126 14.5298 6.26715 13.0069 6.25042 11.4746H10.656V15.5564H10.6541ZM10.6541 10.7969H6.24566C6.26236 9.26463 6.48646 7.7417 6.91187 6.26962C8.13854 6.54929 9.39131 6.69861 10.6493 6.71511L10.6541 10.7969ZM10.6541 6.03735C9.46914 6.02053 8.28908 5.88145 7.13268 5.62232C7.92737 3.38439 9.19984 1.86896 10.6512 1.66239L10.6541 6.03735ZM18.306 5.07878C19.644 6.69198 20.4097 8.70315 20.4836 10.7978H16.413C16.3974 9.20946 16.1669 7.63052 15.7278 6.10399C16.6236 5.86432 17.488 5.51989 18.3032 5.07783L18.306 5.07878ZM13.4351 1.95748C13.5064 1.97557 13.5769 1.99746 13.6473 2.01841C13.7329 2.04316 13.8196 2.06886 13.9043 2.09646C13.989 2.12407 14.0461 2.14406 14.1165 2.16881C14.1869 2.19356 14.283 2.22687 14.3659 2.25829C14.4487 2.2897 14.5058 2.3135 14.5762 2.34205L14.8189 2.44391C14.888 2.47437 14.9569 2.5061 15.0254 2.5391L15.2633 2.65333C15.3309 2.6876 15.3994 2.72091 15.467 2.75804C15.5346 2.79516 15.6193 2.84085 15.6954 2.88464C15.7716 2.92843 15.8277 2.96079 15.8934 3.00077C15.9591 3.04075 16.0409 3.09596 16.1142 3.1388C16.1875 3.18164 16.2427 3.22162 16.3045 3.26445C16.3664 3.30729 16.4482 3.35964 16.5187 3.41485C16.5891 3.47006 16.6433 3.50433 16.709 3.55098C16.7747 3.59762 16.847 3.65854 16.9165 3.7128C16.986 3.76706 17.0364 3.80799 17.0945 3.85749C17.1525 3.90699 17.2277 3.97267 17.2934 4.03074C17.3591 4.0888 17.4095 4.13259 17.4656 4.18494C17.5218 4.2373 17.5932 4.30774 17.656 4.37057C17.7188 4.43339 17.7664 4.47813 17.8197 4.53334L17.8492 4.56476C17.1095 4.94712 16.3302 5.24718 15.5251 5.45955C15.1056 4.12322 14.3594 2.91266 13.3542 1.93749L13.4351 1.95748ZM11.3298 1.66239C12.7812 1.86896 14.0537 3.38439 14.8512 5.62137C13.6948 5.8804 12.5148 6.01948 11.3298 6.0364V1.66239ZM11.3298 6.71511C12.5879 6.69772 13.8407 6.54744 15.0673 6.26676C15.4927 7.73886 15.7168 9.26178 15.7335 10.794H11.3298V6.71511ZM11.3298 11.4746H15.7354C15.7187 13.0069 15.4946 14.5298 15.0692 16.0019C13.8425 15.7222 12.5897 15.5729 11.3317 15.5564L11.3298 11.4746ZM11.3298 20.6129V16.2342C12.5148 16.251 13.6948 16.3901 14.8512 16.6492C14.0537 18.8881 12.7812 20.4026 11.3298 20.6091V20.6129ZM17.8159 17.7439C17.7626 17.7991 17.7074 17.8524 17.6522 17.9067C17.597 17.9609 17.5256 18.0314 17.4618 18.0923C17.3981 18.1532 17.3476 18.1941 17.2896 18.2465C17.2315 18.2989 17.1582 18.3636 17.0907 18.4198C17.0231 18.4759 16.9707 18.5149 16.9108 18.5654C16.8508 18.6158 16.7747 18.6739 16.7052 18.7263C16.6357 18.7786 16.5805 18.8215 16.5149 18.8624C16.4492 18.9033 16.374 18.9642 16.3026 19.0109C16.2312 19.0575 16.1741 19.0966 16.1123 19.1375C16.0504 19.1784 15.9667 19.2327 15.8924 19.2736L15.6926 19.3907C15.6177 19.4332 15.5422 19.4751 15.4661 19.5163L15.2624 19.623C15.1853 19.662 15.1073 19.7001 15.0283 19.7362C14.9493 19.7724 14.8903 19.801 14.8198 19.8314L14.579 19.9333C14.5086 19.9618 14.4391 19.9904 14.3687 20.017C14.2983 20.0437 14.2031 20.078 14.1194 20.1065C14.0356 20.1351 13.9785 20.156 13.9071 20.1789C13.8357 20.2017 13.7377 20.2312 13.6511 20.256C13.5807 20.2769 13.5093 20.2979 13.437 20.3179L13.3542 20.3378C14.3584 19.3624 15.1036 18.1519 15.5222 16.8158C16.3273 17.0282 17.1066 17.3283 17.8463 17.7106L17.8159 17.7439ZM18.3041 17.1975C17.4892 16.7537 16.6248 16.4076 15.7287 16.1666C16.1678 14.64 16.3983 13.0611 16.414 11.4727H20.4807C20.4074 13.5681 19.6416 15.5801 18.3032 17.1937L18.3041 17.1975Z" fill="#304351" stroke="#304351" stroke-width="0.5"/>
</svg>
