<svg fill="none" height="18" viewBox="0 0 20 18" width="20" xmlns="http://www.w3.org/2000/svg"><g fill="#304351"><path d="m14.7 17.425c-.3 0-.6-.1-.9-.2s-.5-.3-.7-.6l-2.7-3.7c-.2-.3-.4-.6-.4-1s0-.7.2-1.1c.2-.3.4-.6.7-.8s.7-.3 1.1-.3h5.5c.4 0 .7.1 1.1.3.3.2.6.5.7.8.2.3.2.7.2 1.1s-.2.7-.4 1l-2.7 3.7c-.2.3-.4.5-.7.6-.4.1-.7.2-1 .2zm-2.7-5.7 2.7 3.7 2.7-3.7z"/><path d="m5 17.025c-.6 0-1-.4-1-1v-9c0-.6.4-1 1-1s1 .4 1 1v9c0 .5-.5 1-1 1zm9.5-5.5c-.6 0-1-.4-1-1v-9.5c0-.599998.4-.9999985 1-.9999985s1 .4000005 1 .9999985v9.5c0 .5-.5 1-1 1z"/><path d="m7.5 7.725h-5.5c-.4 0-.7-.1-1.1-.3-.3-.2-.6-.5-.7-.8-.19999996-.4-.2-.7-.2-1.1s.2-.7.4-1l2.7-3.700002c.2-.3.4-.499998.7-.599998.5-.3 1.2-.3 1.8 0 .3.1.5.299998.7.599998l2.7 3.700002c.2.3.4.6.4 1s0 .7-.2 1.1c-.2.3-.4.6-.7.8s-.7.3-1 .3zm-2.8-5.7-2.7 3.7h5.5z"/></g></svg>