<svg width="24" height="24" viewBox="0 0 24 24" fill="none" xmlns="http://www.w3.org/2000/svg">
<path d="M6.65719 24C7.53178 24.0023 8.39815 23.8311 9.20616 23.4964C10.0142 23.1617 10.7478 22.6701 11.3646 22.05L15.7069 17.7077C15.7999 17.6148 15.8737 17.5045 15.924 17.3831C15.9743 17.2617 16.0002 17.1316 16.0002 17.0002C16.0002 16.8688 15.9743 16.7387 15.924 16.6173C15.8737 16.4959 15.7999 16.3856 15.7069 16.2927L12.4145 13.0003L17.4994 7.91552L17.5219 7.93552C17.847 8.2613 18.2331 8.51976 18.6583 8.69612C19.0834 8.87247 19.5391 8.96324 19.9993 8.96324C20.4596 8.96324 20.9153 8.87247 21.3404 8.69612C21.7655 8.51976 22.1517 8.2613 22.4768 7.93552L23.7067 6.70806C23.7997 6.61519 23.8735 6.50491 23.9238 6.38351C23.9741 6.26212 24 6.132 24 6.00058C24 5.86917 23.9741 5.73905 23.9238 5.61766C23.8735 5.49626 23.7997 5.38598 23.7067 5.29311L18.7069 0.293277C18.614 0.200303 18.5037 0.126547 18.3823 0.0762244C18.2609 0.0259018 18.1308 0 17.9994 0C17.868 0 17.7378 0.0259018 17.6164 0.0762244C17.4951 0.126547 17.3848 0.200303 17.2919 0.293277L16.0644 1.52324C15.7386 1.84833 15.4802 2.23448 15.3038 2.65959C15.1275 3.0847 15.0367 3.54042 15.0367 4.00065C15.0367 4.46089 15.1275 4.9166 15.3038 5.34171C15.4802 5.76682 15.7386 6.15298 16.0644 6.47807L16.0844 6.50057L10.9996 11.5854L7.70716 8.29301C7.61429 8.20003 7.50401 8.12628 7.38261 8.07595C7.26122 8.02563 7.13109 7.99973 6.99968 7.99973C6.86827 7.99973 6.73815 8.02563 6.61675 8.07595C6.49536 8.12628 6.38507 8.20003 6.2922 8.29301L1.94982 12.6354C1.01881 13.5664 0.384778 14.7526 0.127915 16.044C-0.128949 17.3353 0.00288788 18.6739 0.506754 19.8903C1.01062 21.1068 1.86389 22.1465 2.95865 22.878C4.05342 23.6095 5.34052 24 6.65719 24ZM17.4769 2.93569L17.9994 2.41571L21.5843 6.00058L21.0643 6.52307C20.9249 6.66365 20.759 6.77524 20.5762 6.85139C20.3934 6.92754 20.1973 6.96675 19.9993 6.96675C19.8013 6.96675 19.6053 6.92754 19.4225 6.85139C19.2397 6.77524 19.0738 6.66365 18.9344 6.52307L17.4769 5.06562C17.3363 4.92618 17.2247 4.76028 17.1486 4.5775C17.0724 4.39471 17.0332 4.19866 17.0332 4.00065C17.0332 3.80264 17.0724 3.60659 17.1486 3.42381C17.2247 3.24102 17.3363 3.07513 17.4769 2.93569ZM3.36478 14.0503L6.99968 10.4154L9.58461 13.0003L6.79219 15.7928C6.69928 15.8857 6.62558 15.996 6.5753 16.1173C6.52502 16.2387 6.49914 16.3688 6.49914 16.5002C6.49914 16.6316 6.52502 16.7617 6.5753 16.8831C6.62558 17.0045 6.69928 17.1148 6.79219 17.2077C6.8851 17.3006 6.99539 17.3743 7.11678 17.4246C7.23817 17.4749 7.36828 17.5008 7.49967 17.5008C7.63106 17.5008 7.76117 17.4749 7.88256 17.4246C8.00394 17.3743 8.11424 17.3006 8.20715 17.2077L10.9996 14.4153L13.5845 17.0002L9.9496 20.6351C9.52091 21.0837 9.00689 21.4421 8.43773 21.6893C7.86858 21.9365 7.25576 22.0675 6.63528 22.0746C6.01481 22.0816 5.39917 21.9646 4.82455 21.7304C4.24993 21.4962 3.7279 21.1495 3.28912 20.7107C2.85035 20.272 2.50368 19.75 2.26948 19.1753C2.03528 18.6007 1.91826 17.9851 1.92531 17.3646C1.93236 16.7441 2.06333 16.1313 2.31052 15.5622C2.55772 14.993 2.91616 14.479 3.36478 14.0503Z" fill="black"/>
</svg>
