<svg width="26" height="26" viewBox="0 0 26 26" fill="none" xmlns="http://www.w3.org/2000/svg">
<path d="M1 10.5455C1 8.8886 2.34315 7.54546 4 7.54546L22 7.54546C23.6569 7.54546 25 8.8886 25 10.5455V22C25 23.6569 23.6569 25 22 25H4C2.34315 25 1 23.6569 1 22L1 10.5455Z" fill="white"/>
<path fill-rule="evenodd" clip-rule="evenodd" d="M0 10.5455C0 8.33632 1.79086 6.54546 4 6.54546L22 6.54546C24.2091 6.54546 26 8.33632 26 10.5455V22C26 24.2091 24.2091 26 22 26H4C1.79086 26 0 24.2091 0 22L0 10.5455ZM4 8.54546C2.89543 8.54546 2 9.44089 2 10.5455L2 22C2 23.1046 2.89543 24 4 24H22C23.1046 24 24 23.1046 24 22V10.5455C24 9.44089 23.1046 8.54546 22 8.54546L4 8.54546Z" fill="#304351"/>
<path d="M13.132 1C15.7047 1 17.7903 3.0856 17.7903 5.65832L17.7903 14.6413C17.7903 17.214 15.7047 19.2996 13.132 19.2996C10.5593 19.2996 8.47369 17.214 8.47369 14.6413L8.47369 5.65832C8.47369 3.0856 10.5593 1 13.132 1Z" fill="white"/>
<path fill-rule="evenodd" clip-rule="evenodd" d="M13.132 -2.47333e-07C16.257 -1.10735e-07 18.7903 2.53332 18.7903 5.65832L18.7903 14.6413C18.7903 17.7663 16.257 20.2996 13.132 20.2996C10.007 20.2996 7.47369 17.7663 7.47369 14.6413L7.47369 5.65832C7.47369 2.53331 10.007 -3.83931e-07 13.132 -2.47333e-07ZM16.7903 5.65832C16.7903 3.63789 15.1524 2 13.132 2C11.1116 2 9.47369 3.63788 9.47369 5.65832L9.47369 14.6413C9.47369 16.6617 11.1116 18.2996 13.132 18.2996C15.1524 18.2996 16.7903 16.6617 16.7903 14.6413L16.7903 5.65832Z" fill="#304351"/>
<path fill-rule="evenodd" clip-rule="evenodd" d="M13.1153 8.9996C13.6676 8.9996 14.1153 9.44732 14.1153 9.9996L14.1153 24.1C14.1153 24.6523 13.6676 25.1 13.1153 25.1C12.563 25.1 12.1153 24.6523 12.1153 24.1L12.1153 9.9996C12.1153 9.44732 12.563 8.9996 13.1153 8.9996Z" fill="#304351"/>
</svg>
