<svg width="13" height="13" viewBox="0 0 13 13" fill="none" xmlns="http://www.w3.org/2000/svg">
<path d="M8.80869 12.4078H2.00666C1.39834 12.4078 0.900635 11.9699 0.900635 11.4347V3.74735C0.900635 1.84983 2.61497 0.341553 4.77171 0.341553H11.5737C12.1821 0.341553 12.6798 0.779439 12.6798 1.31464V9.00201C12.6798 10.8995 10.9101 12.4078 8.80869 12.4078ZM4.77171 1.31464C3.22328 1.31464 2.00666 2.38503 2.00666 3.74735V11.4347H8.80869C10.3571 11.4347 11.5737 10.3643 11.5737 9.00201V1.31464H4.77171Z" fill="#304351"/>
<path d="M11.5618 8.32355H5.27401C4.89674 8.32355 4.64523 8.10235 4.64523 7.77054C4.64523 7.43873 4.89674 7.21753 5.27401 7.21753H11.5618C11.9391 7.21753 12.1906 7.43873 12.1906 7.77054C12.1906 8.10235 11.9391 8.32355 11.5618 8.32355Z" fill="#304351"/>
<path d="M11.4778 5.10749H8.1274C7.69969 5.10749 7.41455 4.88628 7.41455 4.55448C7.41455 4.22267 7.69969 4.00146 8.1274 4.00146H11.4778C11.9055 4.00146 12.1906 4.22267 12.1906 4.55448C12.1906 4.88628 11.9055 5.10749 11.4778 5.10749Z" fill="#304351"/>
</svg>
