<svg fill="none" height="26" viewBox="0 0 26 26" width="26" xmlns="http://www.w3.org/2000/svg"><g clip-rule="evenodd" fill="#304351" fill-rule="evenodd"><path d="m22 6.60001h-5.2v2h5.2c1.1 0 2 .9 2 1.99999v11.4c0 1.1-.9 2-2 2h-18c-1.1 0-2-.9-2-2v-11.4c0-1.09999.9-1.99999 2-1.99999h5.5v-2h-5.5c-2.2 0-4 1.8-4 3.99999v11.4c0 2.2 1.8 4 4 4h18c2.2 0 4-1.8 4-4v-11.4c0-2.29999-1.8-3.99999-4-3.99999z"/><path d="m13.1 0c-3.1 0-5.6 2.5-5.6 5.7v9c0 2.8 2 5.1 4.7 5.6.3.1.7.1 1 .1s.7 0 1-.1c2.7-.5 4.7-2.8 4.7-5.6v-9c-.1-3.2-2.6-5.7-5.8-5.7zm3.7 14.6c0 1.7-1.1 3.1-2.7 3.5-.3.1-.7.1-1 .1s-.7-.1-1-.1c-1.5-.4-2.7-1.8-2.7-3.5v-9c0-2 1.6-3.7 3.7-3.7s3.7 1.6 3.7 3.7z"/><path d="m14.1 10v14.1c0 .4-.2.7-.6.9-.1.1-.3.1-.4.1-.2 0-.3 0-.4-.1-.3-.2-.6-.5-.6-.9v-14.1c0-.5.4-1 1-1s1 .5 1 1z"/></g></svg>