<svg fill="none" height="30" viewBox="0 0 28 30" width="28" xmlns="http://www.w3.org/2000/svg"><path d="m9.08204 13.0336c0-2.1312-1.72763-3.8588-3.85877-3.8588s-3.85877 1.7276-3.85877 3.8588v6.86c0 2.1311 1.72763 3.8588 3.85877 3.8588s3.85877-1.7277 3.85877-3.8588z" fill="#1e4437"/><path d="m9.31159 13.315c0-2.4128-1.83001-4.36871-4.08744-4.36871-2.25742 0-4.08743 1.95591-4.08743 4.36871v6.3546c0 2.4128 1.83001 4.3688 4.08743 4.3688 2.25743 0 4.08744-1.956 4.08744-4.3688z" stroke="#1e4437" stroke-width="2"/><path d="m5.2937 13.249v14.9703" stroke="#1e4437" stroke-linecap="round" stroke-width="2"/><path d="m5.27922 11.8018c.33919 0 .67077.1005.9528.289.28204.1884.50185.4563.63166.7697.1298.3133.16377.6582.09759.9908-.06617.3327-.22951.6383-.46936.8782-.23985.2398-.54543.4031-.87811.4693s-.67751.0322-.99089-.0976c-.31337-.1298-.58122-.3496-.76967-.6316-.18845-.2821-.28903-.6136-.28903-.9528 0-.4549.18069-.8911.50231-1.2127.32163-.3217.75785-.5023 1.2127-.5023z" fill="#1e4437"/><path d="m20.3147 7.19252c0-2.95081-2.3921-5.34291-5.3429-5.34291s-5.34289 2.3921-5.34289 5.34291v9.49848c0 2.9508 2.39209 5.3429 5.34289 5.3429s5.3429-2.3921 5.3429-5.3429z" fill="#1e4437"/><path d="m20.6306 7.58225c0-3.3408-2.5339-6.04905-5.6596-6.04905-3.1256 0-5.65948 2.70825-5.65948 6.04905v8.79865c0 3.3408 2.53388 6.049 5.65948 6.049 3.1257 0 5.6596-2.7082 5.6596-6.049z" stroke="#1e4437" stroke-width="2"/><path d="m15.0686 7.49023v20.72807" stroke="#1e4437" stroke-linecap="round" stroke-width="2"/><path d="m15.0482 5.48633c.4697 0 .9288.13927 1.3193.40019.3905.26093.6948.6318.8746 1.0657.1797.43391.2267.91137.1351 1.372s-.3178.88375-.6499 1.21585-.7552.55823-1.2158.64993c-.4607.0916-.9381.0446-1.372-.1352-.4339-.17971-.8048-.48407-1.0657-.87457-.2609-.39051-.4002-.84962-.4002-1.31928 0-.62979.2502-1.23378.6955-1.67911s1.0493-.69551 1.6791-.69551z" fill="#1e4437"/><path d="m26.2901 13.315c0-2.4128-1.83-4.36871-4.0874-4.36871-2.2575 0-4.0875 1.95591-4.0875 4.36871v6.3546c0 2.4128 1.83 4.3688 4.0875 4.3688 2.2574 0 4.0874-1.956 4.0874-4.3688z" stroke="#1e4437" stroke-width="2"/><path d="m26.0608 13.0336c0-2.1312-1.7276-3.8588-3.8588-3.8588-2.1311 0-3.8587 1.7276-3.8587 3.8588v6.5742c0 2.1311 1.7276 3.8587 3.8587 3.8587 2.1312 0 3.8588-1.7276 3.8588-3.8587z" fill="#009060"/><path d="m22.2722 13.249v14.9703" stroke="#1e4437" stroke-linecap="round" stroke-width="2"/><path d="m22.258 11.8018c.3392 0 .6708.1005.9528.289.282.1884.5018.4563.6316.7697.1298.3133.1638.6582.0976.9908-.0661.3327-.2295.6383-.4693.8782-.2399.2398-.5455.4031-.8781.4693-.3327.0662-.6776.0322-.9909-.0976-.3134-.1298-.5813-.3496-.7697-.6316-.1884-.2821-.289-.6136-.289-.9528 0-.4549.1807-.8911.5023-1.2127.3216-.3217.7578-.5023 1.2127-.5023z" fill="#1e4437"/><path d="m14.7788 15.3696c0-1.8033-1.4619-3.2651-3.2652-3.2651-1.80322 0-3.26506 1.4618-3.26506 3.2651v5.8046c0 1.8033 1.46184 3.2652 3.26506 3.2652 1.8033 0 3.2652-1.4619 3.2652-3.2652z" fill="#1e4437"/><path d="m14.9712 15.6078c0-2.0416-1.5485-3.6967-3.4586-3.6967-1.91018 0-3.45864 1.6551-3.45864 3.6967v5.3769c0 2.0416 1.54846 3.6966 3.45864 3.6966 1.9101 0 3.4586-1.655 3.4586-3.6966z" stroke="#1e4437" stroke-width="2"/><path d="m14.7788 15.3696c0-1.8033-1.4619-3.2651-3.2652-3.2651-1.80322 0-3.26506 1.4618-3.26506 3.2651v5.7563c0 1.8032 1.46184 3.2651 3.26506 3.2651 1.8033 0 3.2652-1.4619 3.2652-3.2651z" fill="#02d06c"/><path d="m11.572 15.5518v12.6671" stroke="#1e4437" stroke-linecap="round" stroke-width="2"/><path d="m11.5605 14.3271c.287 0 .5676.0852.8063.2446.2386.1595.4246.3861.5344.6513.1099.2651.1386.5569.0826.8384s-.1942.5401-.3971.743c-.203.203-.4616.3412-.7431.3972s-.5732.0272-.8384-.0826-.4918-.2958-.6513-.5345c-.1594-.2386-.2445-.5192-.2445-.8062 0-.3849.1529-.754.425-1.0261.2722-.2722.6413-.4251 1.0261-.4251z" fill="#1e4437"/></svg>