<svg fill="none" height="23" viewBox="0 0 19 23" width="19" xmlns="http://www.w3.org/2000/svg"><g clip-rule="evenodd" fill="#304351" fill-rule="evenodd"><path d="m9.39148 1.97731c-4.14498 0-7.41417 3.17335-7.41417 6.97858 0 .93022.27913 2.14701.79314 3.48991.50885 1.3294 1.22404 2.7206 2.03837 3.9824.81693 1.2659 1.71254 2.3689 2.56899 3.1425.8959.8092 1.58845 1.1132 2.01367 1.1132s1.11782-.304 2.01372-1.1132c.8564-.7736 1.752-1.8766 2.5689-3.1425.8144-1.2618 1.5296-2.653 2.0384-3.9824.514-1.3429.7932-2.55969.7932-3.48991 0-3.80523-3.2692-6.97858-7.41422-6.97858zm-9.39148 6.97858c0-4.99513 4.25496-8.95589 9.39148-8.95589s9.39152 3.96076 9.39152 8.95589c0 1.26991-.3673 2.74271-.9238 4.19671-.5617 1.4675-1.3413 2.9805-2.2237 4.3478-.8798 1.3632-1.8829 2.6144-2.9049 3.5376-.9826.8876-2.1484 1.6232-3.33912 1.6232-1.1907 0-2.35647-.7356-3.33909-1.6232-1.02206-.9232-2.02517-2.1744-2.90496-3.5376-.8824-1.3673-1.66194-2.8803-2.223641-4.3478-.556548-1.454-.923789-2.9268-.923789-4.19671z"/><path d="m9.39153 7.14845c-1.23888 0-2.2432 1.00432-2.2432 2.2432 0 1.23885 1.00432 2.24325 2.2432 2.24325 1.23887 0 2.24317-1.0044 2.24317-2.24325 0-1.23888-1.0043-2.2432-2.24317-2.2432zm-4.22051 2.2432c0-2.33092 1.88959-4.22051 4.22051-4.22051 2.33097 0 4.22047 1.88959 4.22047 4.22051 0 2.33095-1.8895 4.22055-4.22047 4.22055-2.33092 0-4.22051-1.8896-4.22051-4.22055z"/></g></svg>