<svg fill="none" height="29" viewBox="0 0 21 29" width="21" xmlns="http://www.w3.org/2000/svg"><g fill="#304351"><path d="m14.0278 18.4565c-2.2882 0-4.27798-1.8903-4.27798-4.278s1.89028-4.27796 4.27798-4.27796 4.278 1.89026 4.278 4.27796-1.8903 4.278-4.278 4.278zm0-6.4667c-1.1939 0-2.2882.9949-2.2882 2.2882 0 1.2934.9949 2.2882 2.2882 2.2882s2.2882-.9948 2.2882-2.2882c0-1.2933-.9949-2.2882-2.2882-2.2882z"/><path d="m8.45649 28.3058c-.8954 0-1.6913-.3979-2.28823-.9949l-5.173379-5.1734c-.596929-.5969-.994881-1.4923-.994881-2.2882 0-.8954.397952-1.6913.994881-2.2882l8.754949-8.75496c.89537-.89539 1.98977-1.29335 3.18367-1.29335h4.9744c1.5918 0 2.9846 1.29335 2.9846 2.98461v4.9744c0 1.1939-.4974 2.3878-1.2933 3.1837l-8.755 8.7549c-.6964.4974-1.49232.8954-2.38771.8954zm4.47701-18.90274c-.6965 0-1.2934.29846-1.7908.69644l-8.75499 8.8544c-.19897.199-.39795.597-.39795.8954 0 .2985.09949.6964.39795.8954l5.17338 5.1734c.49744.4974 1.39284.4974 1.79079 0l8.75492-8.755c.4975-.4974.6964-1.0943.6964-1.7908v-4.9744c0-.4974-.3979-.99484-.9948-.99484z"/><path d="m17.5099 2.23996-.8954.29846zm-4.3775 11.73964c-.0995.4974.199 1.0943.6964 1.1938.4975.0995 1.0944-.199 1.1939-.6964zm3.3826-11.44118c.0995.29847.0995.89539-.0995 1.89027-.1989.99488-.5969 2.08925-.9948 3.28311-.398 1.19386-.8954 2.3877-1.2934 3.4821-.3979 1.0944-.7959 2.0892-.9949 2.8851l1.8903.4975c.199-.597.4974-1.5918.8954-2.6862.3979-1.0944.8954-2.28823 1.2933-3.48209.398-1.19385.7959-2.38771 1.0944-3.48208.199-.99488.398-2.08925.0995-2.98464zm1.8903-.59693c-.2985-.89539-.8954-1.691293-1.8903-1.8902693-.8954-.1989767-1.7908.1989703-2.4872.8953863-1.2933 1.293343-2.1887 3.979523-2.1887 7.959043h1.9897c0-3.78054.8954-5.7703 1.6913-6.5662.398-.39795.597-.39796.597-.39796s.1989.09949.3979.59693z"/></g></svg>