<svg fill="none" height="26" viewBox="0 0 26 26" width="26" xmlns="http://www.w3.org/2000/svg"><path clip-rule="evenodd" d="m0 10.5455c0-2.20918 1.79086-4.00004 4-4.00004h18c2.2091 0 4 1.79086 4 4.00004v11.4545c0 2.2091-1.7909 4-4 4h-18c-2.20914 0-4-1.7909-4-4zm4-2.00004c-1.10457 0-2 .89543-2 2.00004v11.4545c0 1.1046.89543 2 2 2h18c1.1046 0 2-.8954 2-2v-11.4545c0-1.10461-.8954-2.00004-2-2.00004z" fill="#fff" fill-rule="evenodd"/><path d="m13.132 1c2.5727 0 4.6583 2.0856 4.6583 4.65832v8.98298c0 2.5727-2.0856 4.6583-4.6583 4.6583s-4.65831-2.0856-4.65831-4.6583v-8.98298c0-2.57272 2.08561-4.65832 4.65831-4.65832z" fill="#304351"/><g clip-rule="evenodd" fill="#fff" fill-rule="evenodd"><path d="m13.132-.00000025c3.125.00000014 5.6583 2.53332025 5.6583 5.65832025v8.98298c0 3.125-2.5333 5.6583-5.6583 5.6583s-5.65831-2.5333-5.65831-5.6583v-8.98298c0-3.12501 2.53331-5.65832038 5.65831-5.65832025zm3.6583 5.65832025c0-2.02043-1.6379-3.65832-3.6583-3.65832s-3.65831 1.63788-3.65831 3.65832v8.98298c0 2.0204 1.63791 3.6583 3.65831 3.6583s3.6583-1.6379 3.6583-3.6583z"/><path d="m12.1153 24.1v-14.1004c0-.55228.4477-1 1-1s1 .44772 1 1v14.1004c0 .5523-.4477 1-1 1s-1-.4477-1-1z"/></g></svg>