<svg fill="none" height="19" viewBox="0 0 15 19" width="15" xmlns="http://www.w3.org/2000/svg"><path clip-rule="evenodd" d="m14.0318 3.95929c.0462.14907.0799.25766.0799.32307v13.38784c0 .3153-.2558.571-.571.571h-9.33915c-1.82713 0-3.313611-1.4865-3.313611-3.3136v-12.50092c0-1.33809 1.088591-2.42668 2.426681-2.42668h10.22608c.3968 0 .6725.395496.5361.767651-.5609 1.529019-.2166 2.638759-.045 3.191639zm-1.2554-2.81727h-9.46178c-.70833 0-1.28466.57629-1.28466 1.28466 0 .70838.57629 1.28467 1.28466 1.28467h9.46178c-.1952-.85494-.1952-1.71439 0-2.56933zm-10.74644 13.78558c0 1.1974.97418 2.1716 2.17159 2.1716h8.76815l-.0001-12.2458h-9.65498c-.47158 0-.91179-.13568-1.28466-.36933zm7.70348-8.92708c.2025-.04164.41146.02913.54686.18523 1.2276 1.41646 1.6234 3.40496 1.0328 5.18955-.3555 1.0743-.9665 2.009-2.05288 2.3557-.40827.1303-.86248.1653-1.32278.0877.04718.6026.04725 1.2006-.00018 1.7924-.02395.2988-.27391.5254-.56855.5254-.33457 0-.59638-.2848-.56979-.6166.04407-.5497.04214-1.1065-.00489-1.6686-1.03068.0769-1.98173-.392-2.55877-1.3098-1.26525-2.0122-1.03121-4.60736.48411-6.35575.13533-.15614.34439-.22723.54685-.18523.82986.17113 1.59233.54289 2.23325 1.06483.64096-.52215 1.40394-.89363 2.23397-1.06483zm-4.36519 1.20209c-1.00562 1.37638-1.08938 3.26289-.1662 4.73109.38054.6053.93257.8036 1.43695.7841-.15346-.8106-.39857-1.6299-.73507-2.453-.11934-.29187.02056-.62527.31245-.74461.29193-.11927.62529.02056.74463.31249.3375.82552.59068 1.64942.75955 2.46772.36106-.3026.63389-.7784.58186-1.4359-.13604-1.71814-1.30529-3.17771-2.93417-3.66189zm3.58334 5.42999c.31288-.1084.61191-.3266.84606-.6989.92185-1.4663.84105-3.35243-.1662-4.73109-.48361.14371-.93157.37668-1.3251.68035 1.02053 1.28763 1.61017 3.35564.64524 4.74964z" fill="#304351" fill-rule="evenodd"/></svg>