<svg fill="none" height="23" viewBox="0 0 28 23" width="28" xmlns="http://www.w3.org/2000/svg"><path d="m17.6071 21.001c.0455.5504-.4067.9991-.959.9991-4.8149 0-7.34064 0-7.34064 0s-3.56333 0-7.34053 0c-.55228 0-1.004596-.4487-.95914-.9991.41778-5.0587 3.97421-9.0098 8.29967-9.0098 4.32544 0 7.88194 3.9511 8.29964 9.0098z" fill="#009060"/><path d="m17.6071 21.001.9966-.0823zm-.959-.0009c-.0094 0-.0188 0-.0282 0s-.0188 0-.0281 0c-.0094 0-.0188 0-.0281 0-.0094 0-.0187 0-.0281 0-.0093 0-.0186 0-.0279 0s-.0187 0-.028 0-.0185 0-.0278 0-.0186 0-.0278 0c-.0093 0-.0186 0-.0278 0-.0093 0-.0185 0-.0277 0-.0093 0-.0185 0-.0277 0s-.0184 0-.0276 0-.0184 0-.0276 0c-.0091 0-.0183 0-.0275 0-.0091 0-.0183 0-.0274 0s-.0183 0-.0274 0-.0182 0-.0274 0c-.0091 0-.0182 0-.0272 0-.0091 0-.0182 0-.0273 0s-.0181 0-.0272 0c-.009 0-.0181 0-.0271 0s-.0181 0-.0271 0-.018 0-.027 0-.018 0-.027 0-.018 0-.0269 0c-.009 0-.018 0-.0269 0s-.0179 0-.0268 0c-.009 0-.0179 0-.0268 0s-.0178 0-.0267 0-.0178 0-.0267 0c-.0088 0-.0177 0-.0266 0-.0088 0-.0177 0-.0265 0-.0089 0-.0177 0-.0265 0-.0089 0-.0177 0-.0265 0s-.0176 0-.0264 0-.0176 0-.0263 0c-.0088 0-.0176 0-.0263 0-.0088 0-.0175 0-.0263 0-.0087 0-.0174 0-.0261 0-.0088 0-.0175 0-.0262 0s-.0174 0-.0261 0c-.0086 0-.0173 0-.026 0s-.0173 0-.026 0c-.0086 0-.0173 0-.0259 0s-.0172 0-.0259 0c-.0086 0-.0172 0-.0258 0s-.0172 0-.0257 0c-.0086 0-.0172 0-.0258 0-.0085 0-.0171 0-.0256 0-.0086 0-.0171 0-.0256 0s-.0171 0-.0256 0-.017 0-.0255 0-.0169 0-.0254 0-.017 0-.0254 0c-.0085 0-.0169 0-.0253 0-.0085 0-.0169 0-.0253 0-.0085 0-.0169 0-.0253 0s-.0168 0-.0252 0c-.0083 0-.0167 0-.0251 0-.0083 0-.0167 0-.0251 0-.0083 0-.0166 0-.025 0-.0083 0-.0166 0-.025 0-.0083 0-.0166 0-.0249 0s-.0166 0-.0248 0c-.0083 0-.0166 0-.0248 0-.0083 0-.0166 0-.0248 0s-.0165 0-.0247 0-.0164 0-.0247 0c-.0082 0-.0164 0-.0246 0-.0081 0-.0163 0-.0245 0s-.0163 0-.0245 0c-.0081 0-.0163 0-.0244 0-.0082 0-.0163 0-.0244 0s-.0162 0-.0243 0-.0162 0-.0243 0-.0162 0-.0243 0c-.008 0-.0161 0-.0241 0-.0081 0-.0161 0-.0241 0-.0081 0-.0161 0-.0241 0s-.016 0-.024 0-.016 0-.024 0-.0159 0-.0239 0-.0159 0-.0238 0c-.008 0-.0159 0-.0238 0-.008 0-.0159 0-.0238 0s-.0158 0-.0237 0-.0158 0-.0236 0c-.0079 0-.0158 0-.0236 0-.0079 0-.0157 0-.0235 0-.0079 0-.0157 0-.0235 0s-.0157 0-.0235 0-.0155 0-.0233 0-.0156 0-.0234 0c-.0077 0-.0155 0-.0232 0-.0078 0-.0155 0-.0232 0-.0078 0-.0155 0-.0232 0s-.0154 0-.0231 0-.0154 0-.0231 0c-.0076 0-.0153 0-.023 0-.0076 0-.0153 0-.0229 0s-.0153 0-.0229 0-.0152 0-.0228 0-.0152 0-.0228 0-.0152 0-.0227 0c-.0076 0-.0152 0-.0227 0-.0076 0-.0151 0-.0227 0-.0075 0-.015 0-.0225 0s-.015 0-.0225 0-.015 0-.0225 0-.015 0-.0224 0c-.0075 0-.0149 0-.0224 0-.0074 0-.0149 0-.0223 0s-.0148 0-.0222 0-.0148 0-.0222 0-.0148 0-.0222 0c-.0073 0-.0147 0-.0221 0-.0073 0-.0147 0-.022 0s-.0147 0-.022 0-.0146 0-.0219 0-.0146 0-.0219 0-.0145 0-.0218 0-.0145 0-.0218 0c-.0072 0-.0145 0-.0217 0s-.0144 0-.0217 0c-.0072 0-.0144 0-.0216 0s-.0143 0-.0215 0-.0144 0-.0215 0c-.0072 0-.0143 0-.0215 0-.0071 0-.0142 0-.0214 0-.0071 0-.0142 0-.0213 0s-.0142 0-.0213 0-.0141 0-.0212 0-.0141 0-.0212 0c-.007 0-.0141 0-.0211 0s-.0141 0-.0211 0-.014 0-.021 0-.014 0-.021 0c-.0069 0-.0139 0-.0209 0-.0069 0-.0139 0-.0208 0-.007 0-.0139 0-.0208 0s-.0139 0-.0208 0-.0138 0-.0207 0c-.0068 0-.0137 0-.0206 0s-.0137 0-.0206 0c-.0068 0-.0137 0-.0205 0s-.0137 0-.0205 0-.0136 0-.0204 0-.0136 0-.0204 0-.0135 0-.0203 0-.0135 0-.0203 0c-.0067 0-.0134 0-.0202 0-.0067 0-.0134 0-.0201 0s-.0134 0-.0201 0-.0134 0-.0201 0c-.0066 0-.0133 0-.0199 0-.0067 0-.0133 0-.02 0-.0066 0-.0132 0-.0199 0-.0066 0-.0132 0-.0198 0s-.0132 0-.0198 0-.0131 0-.0197 0-.0131 0-.0197 0c-.0065 0-.013 0-.0196 0-.0065 0-.013 0-.0195 0s-.013 0-.0195 0-.013 0-.0195 0-.0129 0-.0194 0c-.0064 0-.0129 0-.0193 0-.0065 0-.0129 0-.0193 0s-.0128 0-.0192 0-.0128 0-.0192 0-.0128 0-.0191 0c-.0064 0-.0128 0-.0191 0-.0064 0-.0127 0-.019 0-.0064 0-.0127 0-.019 0s-.0126 0-.0189 0-.0126 0-.0189 0c-.0062 0-.0125 0-.0188 0-.0062 0-.0125 0-.0187 0s-.0125 0-.0187 0-.0124 0-.0186 0-.0124 0-.0186 0-.0124 0-.0185 0c-.0062 0-.0124 0-.0185 0-.0062 0-.0123 0-.0184 0-.0062 0-.0123 0-.0184 0s-.0122 0-.0183 0-.0122 0-.0183 0c-.006 0-.0121 0-.0182 0-.006 0-.0121 0-.0181 0-.0061 0-.0121 0-.0181 0s-.0121 0-.0181 0-.012 0-.0179 0c-.006 0-.012 0-.018 0-.0059 0-.0119 0-.0178 0-.006 0-.0119 0-.0179 0-.0059 0-.0118 0-.0177 0s-.0119 0-.0177 0c-.0059 0-.0118 0-.0177 0s-.0118 0-.0176 0c-.0059 0-.0117 0-.0176 0-.0058 0-.0116 0-.0175 0-.0058 0-.0116 0-.0174 0s-.0116 0-.0174 0-.0115 0-.0173 0-.0115 0-.0173 0c-.0057 0-.0115 0-.0172 0s-.0115 0-.0172 0-.0114 0-.0171 0-.0114 0-.017 0c-.0057 0-.0114 0-.017 0-.0057 0-.0114 0-.017 0s-.0113 0-.0169 0-.0112 0-.0168 0-.0112 0-.0168 0-.0112 0-.0167 0c-.0056 0-.0112 0-.0167 0-.0056 0-.0111 0-.0166 0-.0056 0-.0111 0-.0166 0s-.011 0-.0165 0-.011 0-.0165 0-.0109 0-.0164 0c-.0054 0-.0109 0-.0163 0-.0055 0-.0109 0-.0163 0s-.0109 0-.0163 0-.0108 0-.0161 0c-.0054 0-.0108 0-.0162 0-.0053 0-.0107 0-.016 0-.0054 0-.0107 0-.0161 0-.0053 0-.0106 0-.0159 0s-.0106 0-.0159 0-.0106 0-.0159 0-.0105 0-.0158 0c-.0052 0-.0105 0-.0157 0-.0053 0-.0105 0-.0157 0s-.0105 0-.0157 0-.0104 0-.0155 0c-.0052 0-.0104 0-.0156 0-.0051 0-.0103 0-.0154 0-.0052 0-.0103 0-.0155 0-.0051 0-.0102 0-.0153 0s-.0102 0-.0153 0-.0102 0-.0153 0c-.005 0-.0101 0-.0152 0-.005 0-.0101 0-.0151 0s-.0101 0-.0151 0-.01 0-.015 0-.01 0-.015 0-.01 0-.0149 0c-.005 0-.0099 0-.0149 0-.0049 0-.0099 0-.0148 0s-.0098 0-.0147 0c-.005 0-.0099 0-.0147 0-.0049 0-.0098 0-.0147 0s-.0097 0-.0146 0c-.0048 0-.0097 0-.0145 0-.0049 0-.0097 0-.0145 0s-.0096 0-.0144 0-.0096 0-.0144 0-.0095 0-.0143 0-.0095 0-.0143 0c-.0047 0-.0094 0-.0142 0-.0047 0-.0094 0-.0141 0s-.0094 0-.0141 0-.0094 0-.0141 0c-.0046 0-.0093 0-.0139 0-.0047 0-.0093 0-.014 0-.0046 0-.0092 0-.0138 0-.0047 0-.0093 0-.0139 0s-.0091 0-.0137 0-.0092 0-.0137 0c-.0046 0-.0091 0-.0137 0-.0045 0-.0091 0-.0136 0s-.009 0-.0135 0-.009 0-.0135 0-.009 0-.0134 0c-.0045 0-.009 0-.0134 0-.0045 0-.0089 0-.0133 0-.0045 0-.0089 0-.0133 0s-.0088 0-.0132 0-.0088 0-.0132 0c-.0043 0-.0087 0-.0131 0-.0043 0-.0087 0-.013 0-.0044 0-.0087 0-.013 0s-.0086 0-.0129 0-.0086 0-.0129 0-.0086 0-.0128 0c-.0043 0-.0086 0-.0128 0-.0043 0-.0085 0-.0127 0s-.0085 0-.0127 0-.0084 0-.0126 0-.0083 0-.0125 0-.0084 0-.0125 0c-.0042 0-.0083 0-.0124 0-.0042 0-.0083 0-.0124 0s-.0082 0-.0123 0-.0082 0-.0123 0-.0082 0-.0122 0c-.0041 0-.0081 0-.0122 0-.004 0-.0081 0-.0121 0s-.008 0-.012 0-.008 0-.012 0-.008 0-.012 0c-.0039 0-.0079 0-.0118 0-.004 0-.0079 0-.0119 0-.0039 0-.0078 0-.0117 0s-.0078 0-.0117 0-.0078 0-.0117 0-.0077 0-.0116 0-.0077 0-.0115 0c-.0039 0-.0077 0-.0115 0-.0039 0-.0077 0-.0115 0s-.0076 0-.0113 0c-.0038 0-.0076 0-.0114 0-.0037 0-.0075 0-.0112 0-.0038 0-.0075 0-.0112 0-.0038 0-.0075 0-.0112 0s-.0074 0-.0111 0-.0074 0-.011 0c-.0037 0-.0074 0-.011 0-.0037 0-.0073 0-.011 0-.0036 0-.0072 0-.0108 0-.0037 0-.0073 0-.0109 0s-.0071 0-.0107 0-.0072 0-.0107 0c-.0036 0-.0071 0-.0107 0-.0035 0-.0071 0-.0106 0s-.007 0-.0105 0-.007 0-.0105 0-.007 0-.0104 0c-.0035 0-.007 0-.0104 0-.0035 0-.0069 0-.0103 0-.0035 0-.0069 0-.0103 0s-.0068 0-.0102 0-.0068 0-.0102 0c-.0033 0-.0067 0-.01 0-.0034 0-.0068 0-.0101 0s-.0067 0-.01 0-.0066 0-.0099 0-.0066 0-.0099 0c-.0032 0-.0065 0-.0098 0-.0032 0-.0065 0-.0097 0-.0033 0-.0065 0-.0097 0-.0033 0-.0065 0-.0097 0s-.0064 0-.0096 0-.0063 0-.0095 0-.0063 0-.0095 0c-.0031 0-.0063 0-.0094 0-.0032 0-.0063 0-.0094 0s-.0062 0-.0093 0-.0062 0-.0093 0c-.003 0-.0061 0-.0091 0-.0031 0-.0062 0-.0092 0s-.0061 0-.0091 0-.006 0-.009 0-.006 0-.009 0-.0059 0-.0089 0-.00592 0-.00886 0-.00588 0-.00881 0c-.00292 0-.00584 0-.00874 0-.00291 0-.00581 0-.0087 0s-.00577 0-.00864 0c-.00286 0-.00572 0-.00858 0-.00285 0-.00569 0-.00852 0s-.00565 0-.00847 0c-.00281 0-.00561 0-.00841 0-.00279 0-.00558 0-.00836 0-.00277 0-.00554 0-.0083 0-.00275 0-.0055 0-.00824 0s-.00547 0-.00819 0c-.00271 0-.00542 0-.00813 0-.0027 0-.00539 0-.00807 0s-.00535 0-.00802 0c-.00266 0-.00532 0-.00796 0s-.00528 0-.0079 0c-.00263 0-.00525 0-.00785 0-.00261 0-.00521 0-.0078 0-.00258 0-.00516 0-.00773 0s-.00513 0-.00768 0-.00509 0-.00762 0c-.00254 0-.00506 0-.00757 0-.00252 0-.00502 0-.00751 0-.0025 0-.00498 0-.00746 0-.00247 0-.00494 0-.00739 0-.00246 0-.00491 0-.00735 0-.00243 0-.00486 0-.00728 0s-.00483 0-.00723 0-.00479 0-.00717 0-.00475 0-.00712 0c-.00236 0-.00471 0-.00706 0-.00234 0-.00467 0-.007 0-.00232 0-.00464 0-.00694 0-.00231 0-.00461 0-.00689 0-.00229 0-.00457 0-.00684 0-.00226 0-.00452 0-.00677 0s-.00449 0-.00672 0-.00445 0-.00666 0c-.00222 0-.00442 0-.00661 0s-.00438 0-.00655 0-.00434 0-.00649 0c-.00216 0-.0043 0-.00644 0s-.00426 0-.00638 0-.00423 0-.00632 0c-.0021 0-.00419 0-.00627 0s-.00415 0-.00621 0-.00411 0-.00615 0c-.00205 0-.00408 0-.0061 0s-.00404 0-.00604 0c-.00201 0-.004 0-.00598 0-.00199 0-.00397 0-.00593 0-.00197 0-.00392 0-.00587 0s-.00389 0-.00582 0c-.00192 0-.00384 0-.00575 0s-.00381 0-.0057 0-.00377 0-.00564 0c-.00188 0-.00374 0-.00559 0s-.0037 0-.00553 0-.00366 0-.00547 0c-.00182 0-.00362 0-.00542 0-.00179 0-.00358 0-.00536 0-.00177 0-.00354 0-.0053 0s-.00351 0-.00524 0c-.00174 0-.00347 0-.00519 0s-.00343 0-.00513 0c-.00171 0-.0034 0-.00508 0s-.00335 0-.00502 0c-.00166 0-.00331 0-.00496 0-.00164 0-.00328 0-.0049 0-.00163 0-.00324 0-.00485 0s-.0032 0-.00479 0-.00317 0-.00473 0c-.00157 0-.00313 0-.00468 0s-.00309 0-.00462 0-.00305 0-.00456 0-.00301 0-.00451 0c-.00149 0-.00297 0-.00445 0-.00147 0-.00293 0-.00439 0-.00145 0-.0029 0-.00433 0-.00144 0-.00286 0-.00428 0s-.00282 0-.00422 0-.00279 0-.00416 0c-.00138 0-.00275 0-.00411 0s-.00271 0-.00405 0-.00267 0-.00399 0-.00263 0-.00394 0c-.0013 0-.00259 0-.00387 0-.00129 0-.00256 0-.00382 0-.00127 0-.00252 0-.00377 0-.00124 0-.00248 0-.00371 0-.00122 0-.00244 0-.00365 0-.0012 0-.0024 0-.00359 0s-.00236 0-.00353 0-.00233 0-.00348 0-.00229 0-.00342 0-.00225 0-.00337 0c-.00111 0-.00221 0-.0033 0-.0011 0-.00218 0-.00325 0-.00108 0-.00214 0-.00319 0-.00106 0-.0021 0-.00314 0-.00103 0-.00206 0-.00308 0-.00101 0-.00202 0-.00302 0-.00099 0-.00198 0-.00296 0s-.00195 0-.00291 0-.00191 0-.00285 0-.00187 0-.00279 0-.00183 0-.00273 0-.00179 0-.00268 0c-.00088 0-.00175 0-.00262 0-.00086 0-.00171 0-.00256 0-.00084 0-.00168 0-.0025 0-.00083 0-.00164 0-.00245 0s-.0016 0-.00239 0-.00157 0-.00233 0c-.00077 0-.00153 0-.00228 0s-.00149 0-.00222 0-.00145 0-.00216 0-.00141 0-.0021 0-.00137 0-.00205 0c-.00067 0-.00133 0-.00198 0-.00066 0-.0013 0-.00194 0-.00063 0-.00125 0-.00187 0-.00061 0-.00122 0-.00181 0-.0006 0-.00119 0-.00176 0-.00058 0-.00115 0-.0017 0-.00056 0-.00111 0-.00165 0-.00053 0-.00106 0-.00158 0s-.00103 0-.00153 0-.00099 0-.00147 0-.00095 0-.00141 0c-.00047 0-.00092 0-.00136 0s-.00087 0-.0013 0c-.00042 0-.00083 0-.00124 0-.0004 0-.0008 0-.00118 0-.00039 0-.00076 0-.00113 0-.00036 0-.00072 0-.00106 0-.00035 0-.00069 0-.00101 0-.00033 0-.00065 0-.00096 0-.0003 0-.0006 0-.00089 0s-.00057 0-.00084 0-.00053 0-.00078 0-.00049 0-.00072 0-.00045 0-.00066 0c-.00022 0-.00042 0-.00061 0s-.00038 0-.00055 0-.00034 0-.00049 0-.0003 0-.00043 0c-.00014 0-.00026 0-.00038 0-.00011 0-.00022 0-.00032 0-.00009 0-.00018 0-.00026 0-.00007 0-.00014 0-.0002 0s-.0001 0-.00014 0-.00007 0-.00009 0-.00003 0-.00003 1 .00001 1 .00003 1h.00009.00014.0002.00026.00032.00038.00043.00049.00055.00061.00066.00072.00078.00084.00089.00096.00101.00106.00113.00118.00124.0013.00136.00141.00147.00153.00158.00165.0017.00176.00181.00187.00194.00198.00205.0021.00216.00222.00228.00233.00239.00245.0025.00256.00262.00268.00273.00279.00285.00291.00296.00302.00308.00314.00319.00325.0033.00337.00342.00348.00353.00359.00365.00371.00377.00382.00387.00394.00399.00405.00411.00416.00422.00428.00433.00439.00445.00451.00456.00462.00468.00473.00479.00485.0049.00496.00502.00508.00513.00519.00524.0053.00536.00542.00547.00553.00559.00564.0057.00575.00582.00587.00593.00598.00604.0061.00615.00621.00627.00632.00638.00644.00649.00655.00661.00666.00672.00677.00684.00689.00694.007.00706.00712.00717.00723.00728.00735.00739.00746.00751.00757.00762.00768.00773.0078.00785.0079.00796.00802.00807.00813.00819.00824.0083.00836.00841.00847.00852.00858.00864.0087.00874.00881.00886.0089.009.009.0091.0092.0091.0093.0093.0094.0094.0095.0095.0096.0097.0097.0097.0098.0099.0099.01.0101.01.0102.0102.0103.0103.0104.0104.0105.0105.0106.0107.0107.0107.0109.0108.011.011.011.0111.0112.0112.0112.0114.0113.0115.0115.0115.0116.0117.0117.0117.0119.0118.012.012.012.0121.0122.0122.0123.0123.0124.0124.0125.0125.0126.0127.0127.0128.0128.0129.0129.013.013.0131.0132.0132.0133.0133.0134.0134.0135.0135.0136.0137.0137.0137.0139.0138.014.0139.0141.0141.0141.0142.0143.0143.0144.0144.0145.0145.0146.0147.0147.0147.0148.0149.0149.015.015.0151.0151.0152.0153.0153.0153.0155.0154.0156.0155.0157.0157.0157.0158.0159.0159.0159.0161.016.0162.0161.0163.0163.0163.0164.0165.0165.0166.0166.0167.0167.0168.0168.0169.017.017.017.0171.0172.0172.0173.0173.0174.0174.0175.0176.0176.0177.0177.0177.0179.0178.018.0179.0181.0181.0181.0182.0183.0183.0184.0184.0185.0185.0186.0186.0187.0187.0188.0189.0189.019.019.0191.0191.0192.0192.0193.0193.0194.0195.0195.0195.0196.0197.0197.0198.0198.0199.02.0199.0201.0201.0201.0202.0203.0203.0204.0204.0205.0205.0206.0206.0207.0208.0208.0208.0209.021.021.0211.0211.0212.0212.0213.0213.0214.0215.0215.0215.0216.0217.0217.0218.0218.0219.0219.022.022.0221.0222.0222.0222.0223.0224.0224.0225.0225.0225.0227.0227.0227.0228.0228.0229.0229.023.0231.0231.0232.0232.0232.0234.0233.0235.0235.0235.0236.0236.0237.0238.0238.0238.0239.024.024.0241.0241.0241.0243.0243.0243.0244.0244.0245.0245.0246.0247.0247.0248.0248.0248.0249.025.025.0251.0251.0252.0253.0253.0253.0254.0254.0255.0256.0256.0256.0258.0257.0258.0259.0259.026.026.0261.0262.0261.0263.0263.0263.0264.0265.0265.0265.0266.0267.0267.0268.0268.0269.0269.027.027.0271.0271.0272.0273.0272.0274.0274.0274.0275.0276.0276.0277.0277.0278.0278.0278.028.0279.0281.0281.0281.0282zm-7.34064 1c0-1-.00001-1-.00004-1s-.00007 0-.00012 0c-.00006 0-.00012 0-.00021 0-.00008 0-.00017 0-.00028 0s-.00023 0-.00037 0c-.00013 0-.00028 0-.00044 0s-.00034 0-.00053 0-.00039 0-.00061 0c-.00021 0-.00044 0-.00068 0-.00025 0-.0005 0-.00077 0s-.00055 0-.00085 0-.00061 0-.00093 0-.00066 0-.00101 0-.00071 0-.00108 0c-.00038 0-.00077 0-.00117 0s-.00082 0-.00125 0-.00087 0-.00132 0c-.00046 0-.00092 0-.00141 0-.00048 0-.00097 0-.00148 0s-.00103 0-.00156 0-.00108 0-.00164 0-.00113 0-.00172 0-.00119 0-.0018 0-.00123 0-.00187 0-.00129 0-.00196 0c-.00066 0-.00134 0-.00203 0s-.00139 0-.00211 0c-.00071 0-.00144 0-.00218 0s-.0015 0-.00227 0c-.00076 0-.00154 0-.00234 0-.00079 0-.0016 0-.00241 0-.00082 0-.00165 0-.0025 0-.00084 0-.0017 0-.00257 0s-.00175 0-.00265 0c-.00089 0-.0018 0-.00272 0s-.00186 0-.0028 0c-.00095 0-.00191 0-.00288 0s-.00196 0-.00295 0c-.001 0-.00201 0-.00303 0-.00103 0-.00206 0-.00311 0s-.00211 0-.00318 0-.00216 0-.00325 0c-.0011 0-.00221 0-.00334 0-.00112 0-.00225 0-.0034 0s-.00231 0-.00348 0c-.00118 0-.00236 0-.00356 0s-.00241 0-.00363 0-.00246 0-.0037 0c-.00125 0-.00251 0-.00378 0-.00128 0-.00256 0-.00386 0-.00129 0-.0026 0-.00392 0-.00133 0-.00266 0-.00401 0-.00134 0-.0027 0-.00407 0s-.00276 0-.00415 0c-.0014 0-.0028 0-.00422 0s-.00286 0-.0043 0-.0029 0-.00437 0-.00295 0-.00444 0-.003 0-.00452 0c-.00151 0-.00304 0-.00458 0s-.0031 0-.00466 0c-.00157 0-.00315 0-.00474 0s-.00319 0-.0048 0-.00324 0-.00488 0-.00329 0-.00495 0-.00333 0-.00502 0c-.00168 0-.00338 0-.00509 0s-.00343 0-.00516 0c-.00174 0-.00348 0-.00524 0s-.00353 0-.00531 0-.00357 0-.00537 0c-.00181 0-.00363 0-.00545 0-.00183 0-.00367 0-.00552 0s-.00372 0-.00559 0c-.00188 0-.00377 0-.00566 0-.0019 0-.00381 0-.00573 0-.00193 0-.00386 0-.0058 0-.00195 0-.00391 0-.00588 0s-.00395 0-.00594 0-.00399 0-.00601 0c-.00201 0-.00404 0-.00608 0s-.00409 0-.00615 0-.00413 0-.00622 0c-.00208 0-.00418 0-.00629 0-.0021 0-.00422 0-.00635 0s-.00428 0-.00643 0-.00432 0-.00649 0c-.00218 0-.00437 0-.00657 0s-.00441 0-.00663 0-.00445 0-.0067 0c-.00224 0-.0045 0-.00677 0-.00226 0-.00454 0-.00683 0s-.00459 0-.0069 0c-.00232 0-.00464 0-.00698 0-.00233 0-.00468 0-.00703 0-.00236 0-.00473 0-.00711 0s-.00477 0-.00717 0c-.00241 0-.00482 0-.00724 0-.00243 0-.00486 0-.00731 0s-.00491 0-.00737 0c-.00247 0-.00495 0-.00745 0-.00249 0-.00499 0-.0075 0-.00252 0-.00504 0-.00758 0-.00253 0-.00508 0-.00763 0-.00256 0-.00513 0-.00771 0s-.00517 0-.00777 0-.00521 0-.00784 0c-.00262 0-.00526 0-.0079 0-.00265 0-.0053 0-.00797 0-.00266 0-.00534 0-.00803 0s-.00539 0-.0081 0-.00543 0-.00816 0-.00548 0-.00823 0-.00552 0-.00829 0c-.00278 0-.00556 0-.00836 0s-.0056 0-.00842 0-.00565 0-.00849 0c-.00283 0-.00568 0-.00855 0-.00286 0-.00573 0-.00861 0s-.00577 0-.00868 0c-.0029 0-.00581 0-.00874 0-.00292 0-.00586 0-.0088 0-.00295 0-.0059 0-.00887 0-.00296 0-.00594 0-.00893 0s-.00598 0-.00899 0-.00603 0-.00906 0-.00607 0-.00912 0-.00611 0-.00918 0-.00615 0-.00924 0-.0062 0-.00931 0-.00623 0-.00937 0c-.00313 0-.00627 0-.00943 0-.00315 0-.00632 0-.00949 0s-.00636 0-.00955 0c-.0032 0-.0064 0-.00962 0-.00321 0-.00644 0-.00968 0-.00323 0-.00648 0-.00973 0-.00326 0-.00653 0-.0098 0-.00328 0-.00656 0-.00986 0s-.0066 0-.00992 0-.00665 0-.00998 0c-.00334 0-.00669 0-.01004 0-.00336 0-.00673 0-.01011 0-.00337 0-.00676 0-.01016 0s-.0068 0-.01022 0-.00684 0-.01028 0-.00689 0-.01034 0c-.00346 0-.00693 0-.0104 0-.00348 0-.00697 0-.01046 0-.0035 0-.00701 0-.01052 0-.00352 0-.00705 0-.01058 0-.00354 0-.00709 0-.01064 0-.00356 0-.00712 0-.0107 0-.00357 0-.00716 0-.01075 0-.0036 0-.0072 0-.01082 0-.00361 0-.00723 0-.01087 0-.00363 0-.00728 0-.01093 0s-.00731 0-.01099 0c-.00367 0-.00735 0-.01104 0s-.0074 0-.01111 0-.00743 0-.01116 0-.00747 0-.01122 0-.00751 0-.01127 0c-.00377 0-.00755 0-.01134 0-.00378 0-.00758 0-.01139 0-.0038 0-.00762 0-.01144 0-.00383 0-.00766 0-.01151 0-.00384 0-.0077 0-.01156 0s-.00773 0-.01162 0c-.00388 0-.00777 0-.01167 0s-.00781 0-.01173 0-.00785 0-.01178 0c-.00394 0-.00789 0-.01184 0-.00396 0-.00793 0-.0119 0-.00398 0-.00796 0-.01195 0-.004 0-.008 0-.01201 0s-.00803 0-.01206 0-.00807 0-.01212 0-.00811 0-.01217 0c-.00407 0-.00815 0-.01223 0-.00409 0-.00818 0-.01228 0-.00411 0-.00822 0-.01234 0s-.00825 0-.01239 0-.00829 0-.01245 0c-.00415 0-.00832 0-.0125 0-.00417 0-.00836 0-.01255 0s-.00839 0-.01261 0c-.00421 0-.00843 0-.01266 0-.00422 0-.00846 0-.01271 0s-.0085 0-.01277 0c-.00426 0-.00853 0-.01282 0-.00428 0-.00857 0-.01287 0s-.00861 0-.01292 0c-.00432 0-.00865 0-.01298 0-.00434 0-.00868 0-.01303 0-.00436 0-.00872 0-.01309 0s-.00874 0-.01313 0-.00878 0-.01319 0c-.0044 0-.00882 0-.01324 0s-.00885 0-.01329 0-.00889 0-.01334 0c-.00446 0-.00892 0-.0134 0-.00447 0-.00895 0-.01344 0s-.00899 0-.0135 0-.00902 0-.01355 0c-.00452 0-.00905 0-.0136 0-.00454 0-.00909 0-.01364 0-.00456 0-.00913 0-.0137 0-.00458 0-.00916 0-.01376 0-.00459 0-.00919 0-.0138 0-.0046 0-.00922 0-.01385 0-.00462 0-.00925 0-.0139 0-.00464 0-.00929 0-.01395 0s-.00932 0-.014 0c-.00467 0-.00936 0-.01405 0s-.00939 0-.0141 0c-.0047 0-.00942 0-.01414 0-.00473 0-.00946 0-.0142 0s-.00949 0-.01425 0c-.00475 0-.00952 0-.01429 0-.00478 0-.00956 0-.01435 0s-.00958 0-.01439 0c-.0048 0-.00962 0-.01444 0s-.00965 0-.01449 0c-.00483 0-.00968 0-.01453 0-.00486 0-.00972 0-.01459 0s-.00974 0-.01463 0c-.00488 0-.00978 0-.01468 0s-.00981 0-.01473 0c-.00491 0-.00984 0-.01477 0s-.00987 0-.01482 0-.00991 0-.01487 0-.00994 0-.01492 0-.00996 0-.01496 0c-.00499 0-.01 0-.01501 0s-.01003 0-.01505 0c-.00503 0-.01006 0-.0151 0s-.01009 0-.01515 0-.01012 0-.01519 0-.01015 0-.01524 0-.01018 0-.01529 0c-.0051 0-.01021 0-.01533 0-.00511 0-.01024 0-.01537 0s-.01027 0-.01542 0-.0103 0-.01547 0c-.00516 0-.01033 0-.01551 0-.00517 0-.01036 0-.01555 0-.0052 0-.01039 0-.0156 0s-.01042 0-.01565 0c-.00522 0-.01045 0-.01568 0-.00524 0-.01049 0-.01574 0s-.01051 0-.01577 0c-.00527 0-.01054 0-.01582 0s-.01057 0-.01587 0c-.00529 0-.0106 0-.0159 0-.00531 0-.01063 0-.01596 0-.00532 0-.01065 0-.01599 0s-.01068 0-.01604 0c-.00535 0-.01071 0-.01608 0-.00536 0-.01074 0-.01612 0s-.01077 0-.01617 0c-.00539 0-.01079 0-.0162 0s-.01083 0-.01625 0c-.00543 0-.01086 0-.0163 0-.00543 0-.01088 0-.01633 0s-.01091 0-.01638 0c-.00546 0-.01093 0-.01641 0s-.01097 0-.01646 0c-.0055 0-.011 0-.01651 0-.0055 0-.01102 0-.01654 0s-.01105 0-.01658 0c-.00554 0-.01108 0-.01663 0-.00554 0-.0111 0-.01666 0s-.01113 0-.01671 0c-.00557 0-.01115 0-.01674 0s-.01119 0-.01679 0-.01121 0-.01683 0c-.00561 0-.01124 0-.01686 0-.00563 0-.01127 0-.01691 0s-.01129 0-.01695 0c-.00565 0-.01132 0-.01699 0-.00566 0-.01134 0-.01702 0s-.01137 0-.01707 0c-.00569 0-.01139 0-.0171 0s-.01142 0-.01714 0c-.00573 0-.01145 0-.01719 0-.00573 0-.01147 0-.01722 0s-.0115 0-.01726 0-.01152 0-.0173 0c-.00577 0-.01155 0-.01733 0-.00579 0-.01158 0-.01738 0s-.0116 0-.01741 0-.01163 0-.01745 0-.01165 0-.01749 0c-.00583 0-.01168 0-.01753 0-.00584 0-.0117 0-.01756 0s-.01173 0-.0176 0-.01175 0-.01764 0c-.00588 0-.01177 0-.01767 0s-.0118 0-.01771 0-.01183 0-.01775 0-.01185 0-.01778 0c-.00594 0-.01188 0-.01782 0-.00595 0-.0119 0-.01786 0s-.01192 0-.01789 0-.01195 0-.01793 0-.01197 0-.01797 0c-.00599 0-.01199 0-.018 0-.006 0-.01201 0-.01803 0s-.01204 0-.01807 0-.01207 0-.01811 0-.01209 0-.01814 0-.01211 0-.01818 0c-.00606 0-.01213 0-.01821 0-.00607 0-.01215 0-.01824 0s-.01218 0-.01828 0-.0122 0-.01831 0-.01223 0-.01835 0-.01225 0-.01838 0c-.00614 0-.01228 0-.01842 0s-.01229 0-.01845 0c-.00615 0-.01231 0-.01848 0s-.01234 0-.01852 0c-.00617 0-.01236 0-.01855 0-.00618 0-.01238 0-.01858 0s-.0124 0-.01861 0-.01243 0-.01865 0-.01245 0-.01868 0-.01247 0-.01871 0c-.00625 0-.0125 0-.01875 0s-.01251 0-.01878 0c-.00626 0-.01253 0-.01881 0-.00627 0-.01255 0-.01884 0-.00628 0-.01257 0-.01887 0s-.0126 0-.0189 0c-.00631 0-.01262 0-.01894 0s-.01264 0-.01897 0c-.00632 0-.01266 0-.019 0-.00633 0-.01268 0-.01902 0-.00635 0-.01271 0-.01906 0-.00636 0-.01273 0-.01909 0-.00637 0-.01275 0-.01913 0-.00637 0-.01276 0-.01915 0s-.01278 0-.01918 0-.0128 0-.01921 0-.01282 0-.01924 0-.01284 0-.01927 0-.01287 0-.0193 0c-.00644 0-.01289 0-.01933 0-.00645 0-.01291 0-.01936 0-.00646 0-.01292 0-.01939 0s-.01294 0-.01942 0-.01296 0-.01945 0c-.00648 0-.01298 0-.01947 0-.0065 0-.013 0-.01951 0-.0065 0-.01301 0-.01953 0-.00651 0-.01303 0-.01956 0-.00652 0-.01305 0-.01959 0-.00653 0-.01307 0-.01961 0-.00655 0-.0131 0-.01965 0s-.01311 0-.01967 0-.01313 0-.0197 0-.01315 0-.01973 0-.01316 0-.01975 0-.01318 0-.01978 0-.0132 0-.01981 0-.01322 0-.01984 0c-.00661 0-.01323 0-.01986 0-.00662 0-.01325 0-.01988 0-.00664 0-.01328 0-.01992 0s-.01329 0-.01994 0-.01331 0-.01997 0-.01332 0-.01999 0-.01334 0-.02002 0c-.00667 0-.01335 0-.02004 0-.00668 0-.01337 0-.02007 0-.00669 0-.01339 0-.02009 0s-.01341 0-.02012 0-.01343 0-.02015 0-.01344 0-.02017 0c-.00672 0-.01345 0-.02019 0-.00673 0-.01347 0-.02022 0-.00674 0-.01349 0-.02024 0s-.01351 0-.02027 0-.01352 0-.02029 0c-.00676 0-.01354 0-.02031 0-.00678 0-.01356 0-.02034 0s-.01357 0-.02036 0-.01359 0-.02039 0-.0136 0-.02041 0c-.0068 0-.01361 0-.02043 0-.00681 0-.01363 0-.02045 0-.00683 0-.01365 0-.02048 0s-.01367 0-.0205 0c-.00684 0-.01368 0-.02053 0-.00684 0-.01369 0-.02054 0s-.01371 0-.02057 0-.01372 0-.02059 0-.01374 0-.02061 0c-.00688 0-.01375 0-.02064 0-.00688 0-.01376 0-.02065 0s-.01378 0-.02068 0c-.00689 0-.01379 0-.0207 0-.0069 0-.01381 0-.02072 0s-.01382 0-.02074 0c-.00691 0-.01383 0-.02076 0-.00692 0-.01385 0-.02078 0s-.01387 0-.0208 0c-.00694 0-.01388 0-.02083 0-.00694 0-.01389 0-.02084 0s-.01391 0-.02086 0c-.00696 0-.01392 0-.02089 0-.00696 0-.01393 0-.0209 0s-.01395 0-.02093 0c-.00697 0-.01395 0-.02094 0-.00698 0-.01397 0-.02096 0s-.01399 0-.02098 0c-.007 0-.014 0-.021 0-.00701 0-.01401 0-.02102 0s-.01403 0-.02104 0c-.00702 0-.01404 0-.02106 0s-.01405 0-.02108 0c-.00702 0-.01405 0-.02109 0-.00703 0-.01407 0-.02111 0s-.01409 0-.02113 0c-.00705 0-.0141 0-.02115 0s-.01411 0-.02117 0-.01412 0-.02118 0-.01413 0-.0212 0-.01414 0-.02122 0-.01415 0-.02124 0c-.00708 0-.01416 0-.02125 0s-.01418 0-.02127 0-.01419 0-.02129 0c-.00709 0-.01419 0-.0213 0-.0071 0-.01421 0-.02132 0s-.01422 0-.02133 0c-.00712 0-.01424 0-.02135 0-.00712 0-.01425 0-.02137 0-.00713 0-.01426 0-.02139 0s-.01426 0-.0214 0c-.00713 0-.01427 0-.02141 0s-.01428 0-.02143 0-.01429 0-.02145 0c-.00715 0-.0143 0-.02146 0-.00715 0-.01431 0-.02147 0s-.01433 0-.02149 0c-.00717 0-.01434 0-.02151 0s-.01434 0-.02152 0c-.00717 0-.01435 0-.02153 0s-.01436 0-.02155 0c-.00718 0-.01437 0-.02156 0s-.01438 0-.02158 0c-.00719 0-.01439 0-.02158 0-.0072 0-.0144 0-.02161 0-.0072 0-.01441 0-.02161 0-.00721 0-.01442 0-.02163 0-.00722 0-.01443 0-.02165 0-.00721 0-.01443 0-.02165 0s-.01445 0-.02167 0c-.00723 0-.01445 0-.02168 0s-.01446 0-.0217 0c-.00723 0-.01447 0-.0217 0-.00724 0-.01448 0-.02172 0s-.01449 0-.02173 0c-.00725 0-.01449 0-.02174 0s-.0145 0-.02176 0c-.00725 0-.01451 0-.02176 0-.00726 0-.01452 0-.02178 0s-.01453 0-.02179 0c-.00727 0-.01453 0-.0218 0s-.01454 0-.02181 0-.01455 0-.02182 0c-.00728 0-.01456 0-.02184 0-.00727 0-.01456 0-.02184 0s-.01457 0-.02185 0c-.00729 0-.01458 0-.02187 0s-.01458 0-.02187 0-.01459 0-.02188 0c-.0073 0-.0146 0-.0219 0s-.0146 0-.0219 0-.01461 0-.02191 0c-.00731 0-.01462 0-.02193 0s-.01462 0-.02193 0-.01462 0-.02194 0c-.00731 0-.01463 0-.02195 0s-.01464 0-.02196 0-.01464 0-.02196 0c-.00733 0-.01465 0-.02198 0s-.01465 0-.02198 0-.01466 0-.022 0c-.00733 0-.01466 0-.022 0-.00733 0-.01467 0-.022 0-.00734 0-.01468 0-.02202 0s-.01468 0-.02202 0c-.00735 0-.01469 0-.02203 0-.00735 0-.0147 0-.02204 0-.00735 0-.0147 0-.02205 0s-.0147 0-.02205 0-.01471 0-.02206 0-.01471 0-.02207 0c-.00735 0-.01471 0-.02207 0s-.01472 0-.02208 0-.01472 0-.02208 0-.01473 0-.02209 0c-.00737 0-.01473 0-.0221 0s-.01473 0-.0221 0-.01474 0-.02211 0-.01474 0-.02211 0c-.00738 0-.01475 0-.02212 0-.00738 0-.01475 0-.02213 0-.00737 0-.01475 0-.02213 0v2h.02213.02213.02212.02211.02211.0221.0221.02209.02208.02208.02207.02207.02206.02205.02205.02204.02203.02202.02202.022.022.022.02198.02198.02196.02196.02195.02194.02193.02193.02191.0219.0219.02188.02187.02187.02185.02184.02184.02182.02181.0218.02179.02178.02176.02176.02174.02173.02172.0217.0217.02168.02167.02165.02165.02163.02161.02161.02158.02158.02156.02155.02153.02152.02151.02149.02147.02146.02145.02143.02141.0214.02139.02137.02135.02133.02132.0213.02129.02127.02125.02124.02122.0212.02118.02117.02115.02113.02111.02109.02108.02106.02104.02102.021.02098.02096.02094.02093.0209.02089.02086.02084.02083.0208.02078.02076.02074.02072.0207.02068.02065.02064.02061.02059.02057.02054.02053.0205.02048.02045.02043.02041.02039.02036.02034.02031.02029.02027.02024.02022.02019.02017.02015.02012.02009.02007.02004.02002.01999.01997.01994.01992.01988.01986.01984.01981.01978.01975.01973.0197.01967.01965.01961.01959.01956.01953.01951.01947.01945.01942.01939.01936.01933.0193.01927.01924.01921.01918.01915.01913.01909.01906.01902.019.01897.01894.0189.01887.01884.01881.01878.01875.01871.01868.01865.01861.01858.01855.01852.01848.01845.01842.01838.01835.01831.01828.01824.01821.01818.01814.01811.01807.01803.018.01797.01793.01789.01786.01782.01778.01775.01771.01767.01764.0176.01756.01753.01749.01745.01741.01738.01733.0173.01726.01722.01719.01714.0171.01707.01702.01699.01695.01691.01686.01683.01679.01674.01671.01666.01663.01658.01654.01651.01646.01641.01638.01633.0163.01625.0162.01617.01612.01608.01604.01599.01596.0159.01587.01582.01577.01574.01568.01565.0156.01555.01551.01547.01542.01537.01533.01529.01524.01519.01515.0151.01505.01501.01496.01492.01487.01482.01477.01473.01468.01463.01459.01453.01449.01444.01439.01435.01429.01425.0142.01414.0141.01405.014.01395.0139.01385.0138.01376.0137.01364.0136.01355.0135.01344.0134.01334.01329.01324.01319.01313.01309.01303.01298.01292.01287.01282.01277.01271.01266.01261.01255.0125.01245.01239.01234.01228.01223.01217.01212.01206.01201.01195.0119.01184.01178.01173.01167.01162.01156.01151.01144.01139.01134.01127.01122.01116.01111.01104.01099.01093.01087.01082.01075.0107.01064.01058.01052.01046.0104.01034.01028.01022.01016.01011.01004.00998.00992.00986.0098.00973.00968.00962.00955.00949.00943.00937.00931.00924.00918.00912.00906.00899.00893.00887.0088.00874.00868.00861.00855.00849.00842.00836.00829.00823.00816.0081.00803.00797.0079.00784.00777.00771.00763.00758.0075.00745.00737.00731.00724.00717.00711.00703.00698.0069.00683.00677.0067.00663.00657.00649.00643.00635.00629.00622.00615.00608.00601.00594.00588.0058.00573.00566.00559.00552.00545.00537.00531.00524.00516.00509.00502.00495.00488.0048.00474.00466.00458.00452.00444.00437.0043.00422.00415.00407.00401.00392.00386.00378.0037.00363.00356.00348.0034.00334.00325.00318.00311.00303.00295.00288.0028.00272.00265.00257.0025.00241.00234.00227.00218.00211.00203.00196.00187.0018.00172.00164.00156.00148.00141.00132.00125.00117.00108.00101.00093.00085.00077.00068.00061.00053.00044.00037.00028.00021.00012c.00003 0 .00004 0 .00004-1zm-7.30306-.9168c.38831-4.7019 3.64587-8.0921 7.30306-8.0921v-2c-4.99373 0-8.849031 4.512-9.2962761 9.9275zm7.30306-8.0921c3.65724 0 6.91474 3.3902 7.30304 8.0921l1.9932-.1646c-.4472-5.4155-4.3025-9.9275-9.29624-9.9275zm-7.34053 8.0089c-.00311 0 .00292-.0009.0123.0087.00518.0053.01261.0152.01832.0304.00616.0165.00778.0328.00685.0441l-1.9932161-.1646c-.0981418 1.1883.8755581 2.0814 1.9557461 2.0814zm14.68117 2c1.0803 0 2.0538-.8932 1.9556-2.0814l-1.9932.1646c-.0009-.0113.0007-.0275.0069-.044.0057-.0153.0131-.0251.0183-.0304.0094-.0097.0155-.0088.0124-.0088z" fill="#1e4437"/><circle cx="9.30408" cy="6.68006" fill="#009060" r="4.69764" stroke="#1e4437" stroke-width="2"/><path d="m25.4244 21.9996c-3.619 0-5.5237 0-5.5237 0s-2.7936 0-5.5237 0c0-3.6608 2.473-6.6285 5.5237-6.6285 3.0506 0 5.5237 2.9677 5.5237 6.6285z" fill="#02d06c"/><g fill="#1e4437"><path d="m25.4244 21.9996v1h1v-1zm-11.0474 0h-1v1h1zm11.0474-1c-.0071 0-.0141 0-.0212 0-.007 0-.0141 0-.0211 0-.0071 0-.0141 0-.0211 0-.0071 0-.0141 0-.0211 0s-.014 0-.021 0-.014 0-.021 0-.014 0-.021 0c-.0069 0-.0139 0-.0209 0-.0069 0-.0139 0-.0209 0-.0069 0-.0138 0-.0208 0-.0069 0-.0139 0-.0208 0s-.0138 0-.0207 0-.0138 0-.0207 0-.0138 0-.0207 0-.0138 0-.0207 0c-.0068 0-.0137 0-.0205 0-.0069 0-.0138 0-.0206 0-.0069 0-.0137 0-.0205 0-.0069 0-.0137 0-.0205 0s-.0136 0-.0204 0-.0136 0-.0204 0-.0136 0-.0204 0-.0135 0-.0203 0-.0135 0-.0203 0-.0135 0-.0202 0c-.0068 0-.0135 0-.0202 0-.0068 0-.0135 0-.0202 0s-.0134 0-.0201 0-.0134 0-.0201 0-.0134 0-.0201 0c-.0066 0-.0133 0-.02 0-.0066 0-.0133 0-.0199 0-.0067 0-.0133 0-.0199 0-.0067 0-.0133 0-.0199 0-.0067 0-.0133 0-.0199 0s-.0132 0-.0198 0-.0132 0-.0198 0c-.0065 0-.0131 0-.0197 0-.0065 0-.0131 0-.0197 0-.0065 0-.0131 0-.0196 0-.0066 0-.0131 0-.0196 0-.0066 0-.0131 0-.0196 0s-.013 0-.0195 0-.013 0-.0195 0-.013 0-.0195 0c-.0064 0-.0129 0-.0194 0-.0064 0-.0129 0-.0193 0-.0065 0-.0129 0-.0194 0-.0064 0-.0128 0-.0193 0-.0064 0-.0128 0-.0192 0s-.0128 0-.0192 0-.0128 0-.0192 0-.0128 0-.0191 0c-.0064 0-.0128 0-.0191 0-.0064 0-.0127 0-.0191 0-.0063 0-.0127 0-.019 0s-.0127 0-.019 0-.0126 0-.0189 0-.0126 0-.0189 0-.0126 0-.0189 0c-.0062 0-.0125 0-.0188 0-.0062 0-.0125 0-.0188 0-.0062 0-.0125 0-.0187 0s-.0125 0-.0187 0-.0124 0-.0186 0c-.0063 0-.0125 0-.0187 0s-.0124 0-.0185 0c-.0062 0-.0124 0-.0186 0s-.0123 0-.0185 0c-.0061 0-.0123 0-.0184 0-.0062 0-.0123 0-.0185 0-.0061 0-.0122 0-.0183 0s-.0123 0-.0184 0-.0122 0-.0183 0-.0121 0-.0182 0-.0122 0-.0182 0c-.0061 0-.0122 0-.0182 0-.0061 0-.0121 0-.0182 0-.006 0-.012 0-.0181 0-.006 0-.012 0-.018 0s-.012 0-.018 0-.012 0-.018 0-.012 0-.018 0c-.0059 0-.0119 0-.0179 0-.0059 0-.0119 0-.0178 0-.006 0-.0119 0-.0178 0-.006 0-.0119 0-.0178 0s-.0118 0-.0177 0c-.006 0-.0119 0-.0177 0-.0059 0-.0118 0-.0177 0s-.0118 0-.0176 0c-.0059 0-.0118 0-.0176 0-.0059 0-.0117 0-.0175 0-.0059 0-.0117 0-.0175 0-.0059 0-.0117 0-.0175 0s-.0116 0-.0174 0-.0116 0-.0174 0-.0116 0-.0173 0c-.0058 0-.0116 0-.0173 0-.0058 0-.0116 0-.0173 0s-.0115 0-.0172 0c-.0058 0-.0115 0-.0172 0s-.0114 0-.0171 0-.0114 0-.0171 0-.0114 0-.0171 0-.0113 0-.017 0-.0113 0-.017 0c-.0056 0-.0113 0-.0169 0-.0057 0-.0113 0-.0169 0s-.0113 0-.0169 0-.0112 0-.0168 0-.0112 0-.0168 0-.0111 0-.0167 0-.0112 0-.0167 0c-.0056 0-.0111 0-.0167 0-.0055 0-.0111 0-.0166 0s-.011 0-.0166 0c-.0055 0-.011 0-.0165 0s-.011 0-.0165 0-.011 0-.0164 0c-.0055 0-.011 0-.0165 0-.0054 0-.0109 0-.0163 0-.0055 0-.0109 0-.0164 0-.0054 0-.0108 0-.0163 0-.0054 0-.0108 0-.0162 0s-.0108 0-.0162 0-.0108 0-.0162 0-.0108 0-.0161 0c-.0054 0-.0108 0-.0161 0-.0054 0-.0107 0-.0161 0-.0053 0-.0107 0-.016 0s-.0107 0-.016 0-.0106 0-.0159 0-.0106 0-.0159 0-.0106 0-.0158 0c-.0053 0-.0106 0-.0159 0-.0052 0-.0105 0-.0157 0-.0053 0-.0105 0-.0158 0-.0052 0-.0104 0-.0156 0-.0053 0-.0105 0-.0157 0s-.0104 0-.0156 0-.0104 0-.0156 0c-.0051 0-.0103 0-.0155 0s-.0103 0-.0155 0c-.0051 0-.0103 0-.0154 0-.0052 0-.0103 0-.0154 0-.0052 0-.0103 0-.0154 0s-.0102 0-.0153 0-.0102 0-.0153 0-.0102 0-.0153 0c-.005 0-.0101 0-.0152 0-.005 0-.0101 0-.0151 0-.0051 0-.0101 0-.0151 0-.0051 0-.0101 0-.0151 0s-.0101 0-.0151 0-.01 0-.015 0-.0099 0-.0149 0-.01 0-.0149 0c-.005 0-.01 0-.0149 0-.005 0-.0099 0-.0149 0-.0049 0-.0098 0-.0148 0-.0049 0-.0098 0-.0147 0s-.0098 0-.0147 0-.0098 0-.0147 0-.0098 0-.0146 0c-.0049 0-.0098 0-.0146 0-.0049 0-.0098 0-.0146 0s-.0097 0-.0145 0-.0097 0-.0145 0-.0096 0-.0144 0-.0096 0-.0144 0-.0096 0-.0144 0c-.0047 0-.0095 0-.0143 0-.0047 0-.0095 0-.0142 0-.0048 0-.0095 0-.0143 0-.0047 0-.0094 0-.0142 0-.0047 0-.0094 0-.0141 0s-.0094 0-.0141 0-.0094 0-.0141 0-.0093 0-.014 0-.0093 0-.014 0c-.0046 0-.0093 0-.0139 0-.0047 0-.0093 0-.0139 0-.0047 0-.0093 0-.0139 0s-.0092 0-.0138 0-.0092 0-.0138 0-.0092 0-.0137 0c-.0046 0-.0092 0-.0137 0-.0046 0-.0091 0-.0137 0-.0045 0-.0091 0-.0136 0s-.0091 0-.0136 0-.009 0-.0135 0-.009 0-.0135 0-.009 0-.0135 0c-.0044 0-.0089 0-.0134 0-.0044 0-.0089 0-.0133 0-.0045 0-.0089 0-.0134 0-.0044 0-.0088 0-.0133 0-.0044 0-.0088 0-.0132 0s-.0088 0-.0132 0-.0088 0-.0132 0-.0087 0-.0131 0-.0087 0-.0131 0-.0087 0-.013 0c-.0044 0-.0087 0-.013 0-.0044 0-.0087 0-.013 0s-.0086 0-.0129 0-.0086 0-.0129 0-.0086 0-.0129 0c-.0042 0-.0085 0-.0128 0-.0042 0-.0085 0-.0127 0-.0043 0-.0085 0-.0127 0-.0043 0-.0085 0-.0127 0s-.0084 0-.0126 0-.0084 0-.0126 0-.0084 0-.0126 0-.0083 0-.0125 0-.0083 0-.0125 0c-.0041 0-.0083 0-.0124 0s-.0083 0-.0124 0-.0082 0-.0123 0-.0082 0-.0123 0-.0082 0-.0123 0-.0081 0-.0122 0-.0081 0-.0122 0c-.004 0-.0081 0-.0121 0-.0041 0-.0081 0-.0121 0-.0041 0-.0081 0-.0121 0s-.008 0-.012 0-.008 0-.012 0-.008 0-.0119 0c-.004 0-.008 0-.0119 0-.004 0-.0079 0-.0119 0-.0039 0-.0078 0-.0118 0-.0039 0-.0078 0-.0117 0-.004 0-.0079 0-.0118 0s-.0078 0-.0117 0-.0077 0-.0116 0-.0078 0-.0116 0c-.0039 0-.0077 0-.0116 0-.0038 0-.0077 0-.0115 0s-.0077 0-.0115 0-.0076 0-.0114 0-.0076 0-.0114 0-.0076 0-.0114 0-.0075 0-.0113 0-.0075 0-.0113 0c-.0037 0-.0075 0-.0112 0s-.0075 0-.0112 0-.0074 0-.0111 0c-.0038 0-.0075 0-.0112 0s-.0073 0-.011 0-.0074 0-.011 0c-.0037 0-.0074 0-.011 0-.0037 0-.0073 0-.011 0-.0036 0-.0073 0-.0109 0s-.0072 0-.0108 0c-.0037 0-.0073 0-.0109 0s-.0072 0-.0107 0c-.0036 0-.0072 0-.0108 0-.0035 0-.0071 0-.0107 0-.0035 0-.0071 0-.0106 0-.0036 0-.0071 0-.0106 0-.0036 0-.0071 0-.0106 0s-.007 0-.0105 0-.007 0-.0105 0-.007 0-.0105 0c-.0034 0-.0069 0-.0104 0-.0034 0-.0069 0-.0103 0-.0035 0-.0069 0-.0104 0-.0034 0-.0068 0-.0102 0-.0035 0-.0069 0-.0103 0s-.0068 0-.0102 0-.0068 0-.0101 0c-.0034 0-.0068 0-.0101 0-.0034 0-.0068 0-.0101 0-.0034 0-.0067 0-.01 0-.0034 0-.0067 0-.01 0-.0034 0-.0067 0-.01 0s-.0066 0-.0099 0-.0066 0-.0099 0c-.0032 0-.0065 0-.0098 0-.0032 0-.0065 0-.0098 0-.0032 0-.0065 0-.0097 0s-.0065 0-.0097 0-.0064 0-.0097 0c-.0032 0-.0064 0-.0096 0s-.0064 0-.0095 0c-.0032 0-.0064 0-.0096 0-.0031 0-.0063 0-.0095 0-.0031 0-.0063 0-.0094 0s-.0063 0-.0094 0-.0063 0-.0094 0-.0062 0-.0093 0-.0062 0-.0093 0-.0061 0-.0092 0-.0062 0-.0092 0c-.0031 0-.0061 0-.0092 0-.003 0-.0061 0-.0091 0s-.006 0-.0091 0c-.003 0-.006 0-.009 0s-.006 0-.009 0-.0059 0-.0089 0-.006 0-.0089 0c-.003 0-.0059 0-.0089 0-.0029 0-.0059 0-.0088 0s-.0059 0-.0088 0-.0058 0-.0087 0-.0058 0-.0087 0-.0058 0-.0087 0-.0057 0-.0086 0-.0057 0-.0086 0c-.0028 0-.0056 0-.0085 0-.0028 0-.0056 0-.0085 0-.0028 0-.0056 0-.0084 0s-.0056 0-.0084 0-.0056 0-.0084 0-.0055 0-.0083 0-.0055 0-.0083 0c-.0027 0-.0055 0-.0082 0s-.0055 0-.0082 0-.0054 0-.0081 0c-.0028 0-.0055 0-.0082 0s-.0053 0-.008 0-.0054 0-.008 0c-.0027 0-.0054 0-.008 0-.0027 0-.0053 0-.008 0-.0026 0-.0052 0-.0079 0-.0026 0-.0052 0-.0078 0s-.0052 0-.0078 0-.0052 0-.0078 0-.0052 0-.0077 0c-.0026 0-.0052 0-.0077 0-.0026 0-.0051 0-.0077 0-.0025 0-.0051 0-.0076 0s-.005 0-.0075 0c-.0026 0-.0051 0-.0076 0s-.005 0-.0074 0c-.0025 0-.005 0-.0075 0s-.0049 0-.0074 0c-.0024 0-.0049 0-.0073 0-.0025 0-.0049 0-.0073 0-.0025 0-.0049 0-.0073 0s-.0048 0-.0072 0-.0048 0-.0072 0-.0048 0-.0071 0c-.0024 0-.0048 0-.0071 0-.0024 0-.0048 0-.0071 0s-.0047 0-.007 0-.0047 0-.007 0-.0046 0-.0069 0-.0046 0-.0069 0-.0046 0-.0069 0c-.0022 0-.0045 0-.0068 0-.0022 0-.0045 0-.0067 0-.0023 0-.0045 0-.0067 0-.0023 0-.0045 0-.0067 0s-.0044 0-.0066 0-.0044 0-.0066 0-.0044 0-.0066 0-.0043 0-.0065 0-.0043 0-.0065 0c-.0021 0-.0042 0-.0064 0-.0021 0-.0042 0-.0064 0-.0021 0-.0042 0-.0063 0s-.0042 0-.0063 0-.0042 0-.0062 0c-.0021 0-.0042 0-.0063 0-.002 0-.0041 0-.0061 0-.0021 0-.0041 0-.0062 0-.002 0-.004 0-.006 0-.0021 0-.0041 0-.0061 0s-.004 0-.006 0-.004 0-.0059 0c-.002 0-.004 0-.0059 0-.002 0-.004 0-.0059 0-.002 0-.0039 0-.0058 0-.002 0-.0039 0-.0058 0-.002 0-.0039 0-.0058 0s-.0038 0-.0057 0-.0038 0-.0056 0c-.0019 0-.0038 0-.0057 0-.0018 0-.0037 0-.0055 0-.0019 0-.0037 0-.0056 0-.0018 0-.0036 0-.0054 0-.0019 0-.0037 0-.0055 0s-.0036 0-.0054 0-.0036 0-.0054 0c-.0017 0-.0035 0-.0053 0-.0017 0-.0035 0-.0053 0-.0017 0-.0035 0-.0052 0s-.0035 0-.0052 0-.0034 0-.0051 0-.0034 0-.0051 0-.0034 0-.0051 0-.0034 0-.005 0c-.0017 0-.0033 0-.005 0s-.0033 0-.0049 0c-.0017 0-.0033 0-.0049 0-.0017 0-.0033 0-.0049 0s-.0032 0-.0048 0-.0032 0-.0048 0c-.0015 0-.0031 0-.0047 0-.0015 0-.0031 0-.0047 0-.0015 0-.0031 0-.0046 0s-.0031 0-.0046 0-.003 0-.0045 0c-.0016 0-.0031 0-.0046 0-.0014 0-.0029 0-.0044 0s-.003 0-.0044 0c-.0015 0-.003 0-.0044 0-.0015 0-.0029 0-.0044 0-.0014 0-.0028 0-.0043 0-.0014 0-.0028 0-.0042 0s-.0028 0-.0042 0-.0028 0-.0042 0-.0027 0-.0041 0-.0027 0-.0041 0c-.0013 0-.0027 0-.004 0-.0014 0-.0027 0-.004 0-.0014 0-.0027 0-.004 0s-.0026 0-.0039 0-.0026 0-.0039 0c-.0012 0-.0025 0-.0038 0s-.0025 0-.0038 0c-.0012 0-.0025 0-.0037 0s-.0025 0-.0037 0-.0024 0-.0037 0c-.0012 0-.0024 0-.0036 0s-.0024 0-.0035 0c-.0012 0-.0024 0-.0036 0-.0011 0-.0023 0-.0034 0-.0012 0-.0023 0-.0035 0-.0011 0-.0023 0-.0034 0s-.0022 0-.0033 0-.0022 0-.0033 0-.0022 0-.0033 0-.0022 0-.0032 0c-.0011 0-.0022 0-.0032 0-.0011 0-.0021 0-.0032 0-.001 0-.002 0-.003 0-.0011 0-.0021 0-.0031 0s-.002 0-.003 0-.002 0-.003 0-.0019 0-.0029 0-.0019 0-.0029 0c-.0009 0-.0019 0-.0028 0-.001 0-.0019 0-.0028 0s-.0019 0-.0028 0-.0018 0-.0027 0-.0018 0-.0026 0c-.0009 0-.0018 0-.0027 0-.0008 0-.0017 0-.0025 0-.0009 0-.0017 0-.0026 0-.0008 0-.0016 0-.0025 0-.0008 0-.0016 0-.0024 0s-.0016 0-.0024 0-.0016 0-.0024 0-.0015 0-.0023 0-.0015 0-.0023 0c-.0007 0-.0015 0-.0022 0-.0008 0-.0015 0-.0022 0s-.0014 0-.0022 0c-.0007 0-.0014 0-.0021 0s-.0013 0-.002 0-.0014 0-.002 0c-.0007 0-.0014 0-.002 0-.0007 0-.0013 0-.0019 0-.0007 0-.0013 0-.0019 0-.0007 0-.0013 0-.0019 0s-.0012 0-.0018 0-.0012 0-.0017 0c-.0006 0-.0012 0-.0018 0-.0005 0-.0011 0-.0016 0-.0006 0-.0011 0-.0017 0-.0005 0-.001 0-.0015 0-.0006 0-.0011 0-.0016 0s-.001 0-.0015 0-.001 0-.0014 0c-.0005 0-.001 0-.0014 0-.0005 0-.001 0-.0014 0-.0005 0-.0009 0-.0013 0-.0005 0-.0009 0-.0013 0s-.0009 0-.0013 0-.0008 0-.0012 0c-.0003 0-.0007 0-.0011 0s-.0008 0-.0011 0c-.0004 0-.0007 0-.0011 0-.0003 0-.0007 0-.001 0s-.0007 0-.001 0-.0006 0-.0009 0-.0006 0-.0009 0-.0006 0-.0009 0c-.0002 0-.0005 0-.0008 0-.0002 0-.0005 0-.0007 0-.0003 0-.0005 0-.0007 0-.0003 0-.0005 0-.0007 0s-.0004 0-.0007 0c-.0002 0-.0004 0-.0005 0-.0002 0-.0004 0-.0006 0s-.0003 0-.0005 0c-.0001 0-.0003 0-.0004 0-.0002 0-.0003 0-.0005 0-.0001 0-.0002 0-.0003 0s-.0003 0-.0004 0-.0001 0-.0002 0-.0002 0-.0003 0c0 0-.0001 0-.0002 0h-.0001c-.0001 0-.0001 0-.0001 0-.0001 0-.0001 0-.0001 0v1 1h.0001.0001.0001.0002.0003.0002.0004.0003.0005.0004.0005.0006.0005.0007.0007.0007.0007.0008.0009.0009.0009.001.001.0011.0011.0011.0012.0013.0013.0013.0014.0014.0014.0015.0016.0015.0017.0016.0018.0017.0018.0019.0019.0019.002.002.002.0021.0022.0022.0022.0023.0023.0024.0024.0024.0025.0026.0025.0027.0026.0027.0028.0028.0028.0029.0029.003.003.0031.003.0032.0032.0032.0033.0033.0033.0034.0035.0034.0036.0035.0036.0037.0037.0037.0038.0038.0039.0039.004.004.004.0041.0041.0042.0042.0042.0043.0044.0044.0044.0044.0046.0045.0046.0046.0047.0047.0048.0048.0049.0049.0049.005.005.0051.0051.0051.0052.0052.0053.0053.0054.0054.0055.0054.0056.0055.0057.0056.0057.0058.0058.0058.0059.0059.0059.006.0061.006.0062.0061.0063.0062.0063.0063.0064.0064.0065.0065.0066.0066.0066.0067.0067.0067.0068.0069.0069.0069.007.007.0071.0071.0071.0072.0072.0073.0073.0073.0074.0075.0074.0076.0075.0076.0077.0077.0077.0078.0078.0078.0079.008.008.008.008.0082.0081.0082.0082.0083.0083.0084.0084.0084.0085.0085.0086.0086.0087.0087.0087.0088.0088.0089.0089.0089.009.009.0091.0091.0092.0092.0092.0093.0093.0094.0094.0094.0095.0096.0095.0096.0097.0097.0097.0098.0098.0099.0099.01.01.01.0101.0101.0101.0102.0103.0102.0104.0103.0104.0105.0105.0105.0106.0106.0106.0107.0108.0107.0109.0108.0109.011.011.011.011.0112.0111.0112.0112.0113.0113.0114.0114.0114.0115.0115.0116.0116.0116.0117.0118.0117.0118.0119.0119.0119.012.012.0121.0121.0121.0122.0122.0123.0123.0123.0124.0124.0125.0125.0126.0126.0126.0127.0127.0127.0128.0129.0129.0129.013.013.013.0131.0131.0132.0132.0132.0133.0134.0133.0134.0135.0135.0135.0136.0136.0137.0137.0137.0138.0138.0139.0139.0139.014.014.0141.0141.0141.0142.0143.0142.0143.0144.0144.0144.0145.0145.0146.0146.0146.0147.0147.0147.0148.0149.0149.0149.0149.015.0151.0151.0151.0151.0152.0153.0153.0153.0154.0154.0154.0155.0155.0156.0156.0157.0156.0158.0157.0159.0158.0159.0159.016.016.0161.0161.0161.0162.0162.0162.0163.0164.0163.0165.0164.0165.0165.0166.0166.0167.0167.0167.0168.0168.0169.0169.0169.017.017.0171.0171.0171.0172.0172.0173.0173.0173.0174.0174.0175.0175.0175.0176.0176.0177.0177.0177.0178.0178.0178.0179.018.018.018.018.0181.0182.0182.0182.0182.0183.0184.0183.0185.0184.0185.0186.0185.0187.0186.0187.0187.0188.0188.0189.0189.0189.019.019.0191.0191.0191.0192.0192.0192.0193.0194.0193.0194.0195.0195.0195.0196.0196.0196.0197.0197.0198.0198.0199.0199.0199.0199.02.0201.0201.0201.0202.0202.0202.0203.0203.0204.0204.0204.0205.0205.0206.0205.0207.0207.0207.0207.0208.0208.0209.0209.021.021.021.0211.0211.0211.0212zm-5.5237 1c0-1 0-1-.0001-1-.0001 0-.0001 0-.0002 0s-.0001 0-.0002 0-.0002 0-.0003 0-.0002 0-.0004 0c-.0001 0-.0002 0-.0004 0-.0001 0-.0003 0-.0005 0-.0001 0-.0003 0-.0005 0s-.0004 0-.0006 0-.0004 0-.0007 0c-.0002 0-.0004 0-.0007 0-.0002 0-.0005 0-.0008 0s-.0005 0-.0008 0-.0006 0-.0009 0c-.0004 0-.0007 0-.001 0-.0004 0-.0007 0-.0011 0-.0003 0-.0007 0-.0011 0-.0003 0-.0007 0-.0011 0s-.0008 0-.0012 0c-.0005 0-.0009 0-.0013 0-.0005 0-.0009 0-.0014 0-.0004 0-.0009 0-.0014 0s-.0009 0-.0014 0-.0011 0-.0016 0-.001 0-.0016 0c-.0005 0-.001 0-.0016 0s-.0011 0-.0017 0-.0012 0-.0018 0-.0012 0-.0018 0-.0013 0-.0019 0c-.0007 0-.0013 0-.002 0-.0006 0-.0013 0-.002 0s-.0013 0-.002 0-.0015 0-.0022 0-.0014 0-.0022 0c-.0007 0-.0015 0-.0022 0-.0008 0-.0015 0-.0023 0s-.0016 0-.0024 0-.0016 0-.0024 0-.0017 0-.0025 0-.0017 0-.0025 0c-.0009 0-.0018 0-.0026 0-.0009 0-.0018 0-.0027 0s-.0018 0-.0027 0-.0019 0-.0028 0-.0019 0-.0028 0c-.001 0-.002 0-.0029 0-.001 0-.002 0-.003 0s-.002 0-.003 0-.002 0-.0031 0c-.001 0-.002 0-.0031 0-.001 0-.0021 0-.0032 0-.001 0-.0021 0-.0032 0s-.0022 0-.0033 0-.0022 0-.0033 0c-.0012 0-.0023 0-.0035 0-.0011 0-.0023 0-.0034 0-.0012 0-.0024 0-.0035 0-.0012 0-.0024 0-.0036 0s-.0024 0-.0037 0c-.0012 0-.0024 0-.0036 0-.0013 0-.0025 0-.0038 0-.0012 0-.0025 0-.0038 0s-.0026 0-.0038 0c-.0013 0-.0027 0-.004 0s-.0026 0-.0039 0c-.0014 0-.0027 0-.0041 0-.0013 0-.0027 0-.004 0-.0014 0-.0028 0-.0042 0s-.0028 0-.0042 0-.0028 0-.0042 0-.0029 0-.0043 0c-.0015 0-.0029 0-.0044 0-.0014 0-.0029 0-.0044 0s-.0029 0-.0044 0-.003 0-.0046 0c-.0015 0-.003 0-.0045 0-.0016 0-.0031 0-.0047 0-.0015 0-.0031 0-.0046 0-.0016 0-.0032 0-.0048 0s-.0031 0-.0048 0c-.0016 0-.0032 0-.0048 0s-.0032 0-.0049 0c-.0016 0-.0033 0-.0049 0-.0017 0-.0034 0-.005 0-.0017 0-.0034 0-.0051 0s-.0034 0-.0051 0-.0034 0-.0052 0c-.0017 0-.0034 0-.0052 0-.0017 0-.0035 0-.0052 0-.0018 0-.0036 0-.0053 0-.0018 0-.0036 0-.0054 0s-.0036 0-.0054 0-.0037 0-.0055 0-.0037 0-.0055 0c-.0019 0-.0037 0-.0056 0s-.0037 0-.0056 0-.0038 0-.0057 0-.0038 0-.0057 0c-.002 0-.0039 0-.0058 0-.002 0-.0039 0-.0059 0-.0019 0-.0039 0-.0058 0-.002 0-.004 0-.006 0s-.0039 0-.006 0c-.002 0-.004 0-.006 0s-.004 0-.0061 0c-.002 0-.0041 0-.0061 0-.0021 0-.0041 0-.0062 0s-.0041 0-.0062 0-.0042 0-.0063 0-.0042 0-.0063 0c-.0022 0-.0043 0-.0064 0-.0022 0-.0043 0-.0065 0-.0021 0-.0043 0-.0065 0-.0021 0-.0043 0-.0065 0s-.0044 0-.0066 0-.0044 0-.0066 0-.0044 0-.0067 0c-.0022 0-.0045 0-.0067 0-.0023 0-.0045 0-.0068 0s-.0045 0-.0068 0-.0046 0-.0069 0-.0046 0-.0069 0-.0046 0-.007 0c-.0023 0-.0047 0-.007 0s-.0047 0-.0071 0c-.0023 0-.0047 0-.0071 0s-.0047 0-.0071 0-.0048 0-.0073 0c-.0024 0-.0048 0-.0072 0s-.0049 0-.0073 0c-.0025 0-.0049 0-.0074 0-.0024 0-.0049 0-.0074 0-.0024 0-.0049 0-.0074 0s-.005 0-.0075 0-.005 0-.0075 0c-.0026 0-.0051 0-.0076 0-.0026 0-.0051 0-.0077 0-.0025 0-.0051 0-.0076 0-.0026 0-.0052 0-.0078 0-.0025 0-.0051 0-.0077 0s-.0052 0-.0078 0-.0053 0-.0079 0-.0053 0-.0079 0-.0053 0-.008 0c-.0026 0-.0053 0-.0079 0-.0027 0-.0054 0-.0081 0s-.0054 0-.0081 0-.0054 0-.0081 0-.0055 0-.0082 0-.0055 0-.0082 0c-.0028 0-.0055 0-.0083 0-.0027 0-.0055 0-.0083 0s-.0055 0-.0083 0-.0056 0-.0084 0-.0057 0-.0085 0-.0056 0-.0085 0c-.0028 0-.0056 0-.0085 0-.0028 0-.0057 0-.0086 0-.0028 0-.0057 0-.0086 0s-.0058 0-.0086 0c-.0029 0-.0058 0-.0088 0-.0029 0-.0058 0-.0087 0s-.0059 0-.0088 0-.0059 0-.0088 0c-.003 0-.0059 0-.0089 0s-.0059 0-.0089 0-.006 0-.009 0-.006 0-.009 0-.006 0-.009 0-.0061 0-.0091 0-.0061 0-.0091 0c-.0031 0-.0061 0-.0092 0s-.0061 0-.0092 0-.0062 0-.0093 0-.0062 0-.0093 0-.0062 0-.0093 0-.0063 0-.0094 0-.0063 0-.0094 0c-.0032 0-.0063 0-.0095 0-.0031 0-.0063 0-.0095 0-.0031 0-.0063 0-.0095 0s-.0064 0-.0096 0-.0064 0-.0096 0-.0065 0-.0097 0-.0064 0-.0097 0c-.0032 0-.0065 0-.0097 0-.0033 0-.0066 0-.0098 0-.0033 0-.0066 0-.0098 0-.0033 0-.0066 0-.0099 0s-.0066 0-.0099 0-.0066 0-.0099 0c-.0034 0-.0067 0-.01 0-.0034 0-.0067 0-.0101 0-.0033 0-.0067 0-.01 0-.0034 0-.0067 0-.0101 0s-.0068 0-.0101 0c-.0034 0-.0068 0-.0102 0s-.0068 0-.0102 0-.0069 0-.0103 0-.0068 0-.0103 0c-.0034 0-.0069 0-.0103 0-.0035 0-.0069 0-.0104 0-.0034 0-.0069 0-.0104 0s-.0069 0-.0104 0-.007 0-.0105 0-.007 0-.0105 0-.0071 0-.0106 0-.007 0-.0106 0c-.0035 0-.0071 0-.0106 0-.0036 0-.0071 0-.0107 0-.0035 0-.0071 0-.0107 0-.0035 0-.0071 0-.0107 0s-.0072 0-.0108 0-.0072 0-.0108 0-.0072 0-.0109 0c-.0036 0-.0072 0-.0108 0-.0037 0-.0073 0-.011 0-.0036 0-.0073 0-.0109 0-.0037 0-.0073 0-.011 0s-.0074 0-.011 0c-.0037 0-.0074 0-.0111 0s-.0074 0-.0111 0-.0074 0-.0111 0c-.0038 0-.0075 0-.0112 0s-.0075 0-.0112 0c-.0038 0-.0075 0-.0113 0-.0037 0-.0075 0-.0112 0-.0038 0-.0076 0-.0114 0-.0037 0-.0075 0-.0113 0s-.0076 0-.0114 0-.0076 0-.0114 0-.0076 0-.0114 0c-.0039 0-.0077 0-.0115 0-.0039 0-.0077 0-.0115 0-.0039 0-.0077 0-.0116 0-.0038 0-.0077 0-.0116 0-.0038 0-.0077 0-.0116 0s-.0077 0-.0116 0-.0078 0-.0117 0-.0078 0-.0117 0c-.004 0-.0079 0-.0118 0s-.0078 0-.0118 0c-.0039 0-.0078 0-.0118 0-.0039 0-.0079 0-.0118 0-.004 0-.008 0-.0119 0-.004 0-.008 0-.0119 0-.004 0-.008 0-.012 0s-.008 0-.012 0-.008 0-.012 0-.008 0-.012 0-.0081 0-.0121 0-.008 0-.0121 0c-.004 0-.0081 0-.0121 0-.0041 0-.0081 0-.0122 0s-.0081 0-.0122 0-.0081 0-.0122 0-.0082 0-.0123 0-.0082 0-.0123 0-.0082 0-.0123 0-.0082 0-.0123 0c-.0042 0-.0083 0-.0124 0-.0042 0-.0083 0-.0124 0-.0042 0-.0083 0-.0125 0-.0041 0-.0083 0-.0125 0-.0041 0-.0083 0-.0125 0-.0041 0-.0083 0-.0125 0s-.0084 0-.0126 0-.0084 0-.0126 0-.0084 0-.0126 0-.0084 0-.0126 0c-.0043 0-.0085 0-.0127 0-.0043 0-.0085 0-.0127 0-.0043 0-.0085 0-.0128 0-.0042 0-.0085 0-.0127 0-.0043 0-.0086 0-.0128 0-.0043 0-.0086 0-.0129 0-.0042 0-.0085 0-.0128 0s-.0086 0-.0129 0-.0086 0-.0129 0-.0086 0-.0129 0c-.0044 0-.0087 0-.013 0s-.0087 0-.013 0-.0087 0-.013 0c-.0044 0-.0087 0-.0131 0-.0043 0-.0087 0-.0131 0-.0043 0-.0087 0-.0131 0-.0043 0-.0087 0-.0131 0s-.0088 0-.0132 0c-.0043 0-.0087 0-.0131 0s-.0088 0-.0133 0c-.0044 0-.0088 0-.0132 0s-.0088 0-.0133 0c-.0044 0-.0088 0-.0132 0-.0045 0-.0089 0-.0134 0-.0044 0-.0089 0-.0133 0-.0045 0-.0089 0-.0134 0-.0044 0-.0089 0-.0134 0-.0044 0-.0089 0-.0134 0s-.009 0-.0134 0c-.0045 0-.009 0-.0135 0s-.009 0-.0135 0-.009 0-.0135 0c-.0046 0-.0091 0-.0136 0s-.009 0-.0136 0c-.0045 0-.009 0-.0136 0-.0045 0-.009 0-.0136 0-.0045 0-.0091 0-.0136 0-.0046 0-.0091 0-.0137 0s-.0091 0-.0137 0-.0091 0-.0137 0-.0092 0-.0138 0-.0091 0-.0137 0-.0092 0-.0138 0-.0092 0-.0138 0c-.0047 0-.0093 0-.0139 0s-.0092 0-.0139 0c-.0046 0-.0092 0-.0138 0-.0047 0-.0093 0-.0139 0-.0047 0-.0093 0-.014 0-.0046 0-.0093 0-.0139 0-.0047 0-.0094 0-.014 0-.0047 0-.0093 0-.014 0s-.0094 0-.014 0c-.0047 0-.0094 0-.0141 0s-.0094 0-.0141 0c-.0046 0-.0093 0-.014 0s-.0095 0-.0142 0-.0094 0-.0141 0-.0094 0-.0142 0c-.0047 0-.0094 0-.0141 0-.0048 0-.0095 0-.0142 0-.0048 0-.0095 0-.0143 0-.0047 0-.0094 0-.0142 0-.0047 0-.0095 0-.0143 0-.0047 0-.0095 0-.0142 0-.0048 0-.0096 0-.0143 0-.0048 0-.0096 0-.0144 0s-.0095 0-.0143 0-.0096 0-.0144 0-.0096 0-.0144 0-.0096 0-.0144 0-.0096 0-.0144 0-.0096 0-.0145 0c-.0048 0-.0096 0-.0144 0-.0049 0-.0097 0-.0145 0-.0049 0-.0097 0-.0145 0-.0049 0-.0097 0-.0146 0-.0048 0-.0097 0-.0145 0-.0049 0-.0097 0-.0146 0-.0048 0-.0097 0-.0146 0-.0048 0-.0097 0-.0146 0-.0048 0-.0097 0-.0146 0s-.0097 0-.0146 0-.0098 0-.0147 0-.0098 0-.0147 0-.0098 0-.0147 0-.0098 0-.0147 0-.0098 0-.0147 0-.0098 0-.0148 0c-.0049 0-.0098 0-.0147 0-.005 0-.0099 0-.0148 0s-.0099 0-.0148 0c-.005 0-.0099 0-.0148 0-.005 0-.0099 0-.0149 0-.0049 0-.0099 0-.0148 0-.005 0-.0099 0-.0149 0s-.0099 0-.0149 0-.0099 0-.0149 0-.01 0-.0149 0c-.005 0-.01 0-.015 0s-.0099 0-.0149 0-.01 0-.015 0-.01 0-.015 0-.01 0-.015 0-.01 0-.015 0-.01 0-.0151 0c-.005 0-.01 0-.015 0s-.01 0-.0151 0c-.005 0-.01 0-.0151 0-.005 0-.01 0-.0151 0-.005 0-.01 0-.0151 0-.005 0-.0101 0-.0151 0s-.0101 0-.0151 0c-.0051 0-.0101 0-.0152 0s-.0101 0-.0152 0c-.005 0-.0101 0-.0152 0-.005 0-.0101 0-.0152 0-.005 0-.0101 0-.0152 0s-.0101 0-.0152 0-.0102 0-.0153 0c-.005 0-.0101 0-.0152 0s-.0102 0-.0153 0-.0102 0-.0153 0-.0102 0-.0153 0-.0102 0-.0153 0-.0102 0-.0153 0-.0102 0-.0153 0c-.0052 0-.0103 0-.0154 0s-.0102 0-.0154 0c-.0051 0-.0102 0-.0153 0-.0052 0-.0103 0-.0154 0-.0052 0-.0103 0-.0154 0-.0052 0-.0103 0-.0155 0-.0051 0-.0102 0-.0154 0-.0051 0-.0103 0-.0154 0-.0052 0-.0103 0-.0155 0-.0051 0-.0103 0-.0154 0-.0052 0-.0103 0-.0155 0s-.0103 0-.0155 0-.0103 0-.0155 0-.0103 0-.0155 0-.0103 0-.0155 0-.0104 0-.0156 0c-.0051 0-.0103 0-.0155 0s-.0104 0-.0155 0c-.0052 0-.0104 0-.0156 0s-.0104 0-.0156 0-.0104 0-.0156 0-.0104 0-.0156 0-.0104 0-.0156 0-.0104 0-.0156 0-.0104 0-.0156 0-.0104 0-.0156 0c-.0053 0-.0105 0-.0157 0s-.0104 0-.0156 0c-.0053 0-.0105 0-.0157 0s-.0105 0-.0157 0-.0104 0-.0157 0c-.0052 0-.0104 0-.0157 0-.0052 0-.0104 0-.0157 0-.0052 0-.0104 0-.0157 0-.0052 0-.0104 0-.0157 0-.0052 0-.0105 0-.0157 0s-.0105 0-.0157 0c-.0053 0-.0105 0-.0158 0-.0052 0-.0105 0-.0157 0-.0053 0-.0105 0-.0158 0-.0052 0-.0105 0-.0158 0-.0052 0-.0105 0-.0157 0-.0053 0-.0106 0-.0158 0-.0053 0-.0105 0-.0158 0s-.0105 0-.0158 0-.0105 0-.0158 0-.0105 0-.0158 0-.0106 0-.0158 0c-.0053 0-.0106 0-.0159 0-.0052 0-.0105 0-.0158 0s-.0105 0-.0158 0-.0106 0-.0159 0-.0105 0-.0158 0-.0106 0-.0159 0-.0106 0-.0158 0c-.0053 0-.0106 0-.0159 0s-.0106 0-.0159 0-.0106 0-.0159 0-.0106 0-.0159 0-.0105 0-.0158 0-.0106 0-.0159 0-.0106 0-.0159 0-.0106 0-.016 0c-.0053 0-.0106 0-.0159 0s-.0106 0-.0159 0-.0106 0-.0159 0-.0106 0-.0159 0-.0106 0-.016 0c-.0053 0-.0106 0-.0159 0s-.0106 0-.0159 0-.0107 0-.016 0-.0106 0-.0159 0-.0107 0-.016 0-.0106 0-.0159 0-.0107 0-.016 0-.0106 0-.0159 0c-.0054 0-.0107 0-.016 0s-.0107 0-.016 0-.0106 0-.016 0c-.0053 0-.0106 0-.0159 0-.0054 0-.0107 0-.016 0s-.0107 0-.016 0-.0106 0-.016 0c-.0053 0-.0106 0-.0159 0-.0054 0-.0107 0-.016 0-.0054 0-.0107 0-.016 0-.0054 0-.0107 0-.016 0s-.0107 0-.016 0-.0107 0-.016 0-.0107 0-.016 0-.0107 0-.016 0-.0107 0-.016 0-.0107 0-.016 0-.0107 0-.016 0-.0107 0-.016 0-.0107 0-.016 0-.0107 0-.016 0-.0107 0-.016 0-.0107 0-.016 0-.0107 0-.016 0-.0107 0-.016 0c-.0054 0-.0107 0-.016 0-.0054 0-.0107 0-.016 0-.0054 0-.0107 0-.016 0-.0054 0-.0107 0-.016 0-.0054 0-.0107 0-.016 0-.0054 0-.0107 0-.016 0-.0054 0-.0107 0-.016 0-.0054 0-.0107 0-.016 0-.0054 0-.0107 0-.0161 0-.0053 0-.0106 0-.016 0-.0053 0-.0106 0-.0159 0-.0054 0-.0107 0-.016 0v2h.016.0159.016.0161.016.016.016.016.016.016.016.016.016.016.016.016.016.016.016.016.016.016.016.016.016.016.016.016.016.0159.016.016.016.0159.016.016.016.0159.016.0159.016.0159.016.0159.0159.016.0159.0159.0159.0159.016.0159.0159.0158.0159.0159.0159.0159.0158.0159.0158.0159.0158.0158.0159.0158.0158.0158.0158.0158.0158.0157.0158.0158.0157.0158.0157.0157.0157.0157.0157.0157.0157.0157.0157.0156.0157.0156.0156.0156.0156.0156.0156.0156.0156.0155.0155.0156.0155.0155.0155.0155.0155.0154.0155.0154.0154.0155.0154.0154.0153.0154.0154.0153.0153.0153.0153.0153.0153.0152.0153.0152.0152.0152.0152.0152.0152.0151.0151.0151.0151.0151.0151.015.0151.015.015.015.015.0149.015.0149.0149.0149.0149.0148.0149.0148.0148.0148.0147.0148.0147.0147.0147.0147.0147.0146.0146.0146.0146.0146.0145.0146.0145.0145.0144.0145.0144.0144.0144.0144.0143.0144.0143.0142.0143.0142.0143.0142.0141.0142.0141.0142.014.0141.0141.014.014.014.0139.014.0139.0138.0139.0139.0138.0138.0137.0138.0137.0137.0137.0136.0136.0136.0136.0136.0135.0135.0135.0134.0134.0134.0134.0133.0134.0132.0133.0132.0133.0131.0132.0131.0131.0131.0131.013.013.013.0129.0129.0129.0128.0129.0128.0127.0128.0127.0127.0126.0126.0126.0126.0125.0125.0125.0125.0124.0124.0123.0123.0123.0123.0122.0122.0122.0121.0121.0121.012.012.012.012.0119.0119.0118.0118.0118.0118.0117.0117.0116.0116.0116.0116.0115.0115.0114.0114.0114.0113.0114.0112.0113.0112.0112.0111.0111.0111.011.011.0109.011.0108.0109.0108.0108.0107.0107.0107.0106.0106.0106.0105.0105.0104.0104.0104.0103.0103.0103.0102.0102.0101.0101.01.0101.01.0099.0099.0099.0098.0098.0097.0097.0097.0096.0096.0095.0095.0095.0094.0094.0093.0093.0093.0092.0092.0091.0091.009.009.009.0089.0089.0088.0088.0087.0088.0086.0086.0086.0085.0085.0085.0084.0083.0083.0083.0082.0082.0081.0081.0081.0079.008.0079.0079.0078.0077.0078.0076.0077.0076.0075.0075.0074.0074.0074.0073.0072.0073.0071.0071.0071.007.007.0069.0069.0068.0068.0067.0067.0066.0066.0065.0065.0065.0064.0063.0063.0062.0062.0061.0061.006.006.006.0058.0059.0058.0057.0057.0056.0056.0055.0055.0054.0054.0053.0052.0052.0052.0051.0051.005.0049.0049.0048.0048.0048.0046.0047.0045.0046.0044.0044.0044.0043.0042.0042.0042.004.0041.0039.004.0038.0038.0038.0036.0037.0036.0035.0034.0035.0033.0033.0032.0032.0031.0031.003.003.0029.0028.0028.0027.0027.0026.0025.0025.0024.0024.0023.0022.0022.0022.002.002.002.0019.0018.0018.0017.0016.0016.0016.0014.0014.0014.0013.0012.0011.0011.0011.001.0009.0008.0008.0007.0007.0006.0005.0005.0004.0004.0003.0002.0002c.0001 0 .0001 0 .0001-1zm-4.5237 0c0-3.287 2.1883-5.6285 4.5237-5.6285v-2c-3.7659 0-6.5237 3.5938-6.5237 7.6285zm4.5237-5.6285c2.3354 0 4.5237 2.3415 4.5237 5.6285h2c0-4.0347-2.7578-7.6285-6.5237-7.6285z"/><path d="m26.0465 21.9996c-3.619 0-5.5238 0-5.5238 0s-2.7936 0-5.5237 0c0-3.6608 2.4731-6.6285 5.5237-6.6285 3.0507 0 5.5238 2.9677 5.5238 6.6285z"/><path d="m26.0465 21.9996v1h1v-1zm-11.0475 0h-1v1h1zm11.0475-1c-.0071 0-.0142 0-.0212 0-.0071 0-.0141 0-.0212 0-.007 0-.014 0-.0211 0-.007 0-.014 0-.021 0s-.0141 0-.0211 0-.014 0-.0209 0c-.007 0-.014 0-.021 0s-.0139 0-.0209 0-.0139 0-.0209 0c-.0069 0-.0139 0-.0208 0-.007 0-.0139 0-.0208 0s-.0138 0-.0208 0c-.0069 0-.0138 0-.0207 0s-.0138 0-.0206 0c-.0069 0-.0138 0-.0207 0s-.0137 0-.0206 0c-.0068 0-.0137 0-.0205 0-.0069 0-.0137 0-.0206 0-.0068 0-.0136 0-.0204 0s-.0137 0-.0205 0-.0136 0-.0204 0-.0135 0-.0203 0-.0136 0-.0203 0c-.0068 0-.0136 0-.0203 0-.0068 0-.0135 0-.0203 0-.0067 0-.0134 0-.0202 0-.0067 0-.0134 0-.0201 0s-.0135 0-.0202 0-.0133 0-.02 0-.0134 0-.0201 0-.0133 0-.02 0c-.0066 0-.0133 0-.02 0-.0066 0-.0132 0-.0199 0-.0066 0-.0132 0-.0199 0-.0066 0-.0132 0-.0198 0s-.0132 0-.0198 0-.0132 0-.0198 0-.0131 0-.0197 0-.0131 0-.0197 0-.0131 0-.0196 0c-.0066 0-.0131 0-.0197 0-.0065 0-.013 0-.0195 0s-.0131 0-.0196 0-.013 0-.0194 0c-.0065 0-.013 0-.0195 0s-.0129 0-.0194 0-.0129 0-.0194 0c-.0064 0-.0129 0-.0193 0s-.0129 0-.0193 0-.0128 0-.0193 0c-.0064 0-.0128 0-.0192 0s-.0128 0-.0191 0c-.0064 0-.0128 0-.0192 0-.0063 0-.0127 0-.0191 0-.0063 0-.0127 0-.019 0-.0064 0-.0127 0-.019 0-.0064 0-.0127 0-.019 0s-.0126 0-.0189 0c-.0064 0-.0126 0-.0189 0s-.0126 0-.0189 0-.0125 0-.0188 0-.0125 0-.0188 0c-.0062 0-.0125 0-.0187 0-.0063 0-.0125 0-.0187 0s-.0125 0-.0187 0-.0124 0-.0186 0-.0124 0-.0186 0-.0123 0-.0185 0-.0123 0-.0185 0-.0123 0-.0185 0c-.0061 0-.0122 0-.0184 0-.0061 0-.0122 0-.0184 0-.0061 0-.0122 0-.0183 0s-.0122 0-.0183 0-.0122 0-.0183 0c-.006 0-.0121 0-.0182 0-.006 0-.0121 0-.0181 0-.0061 0-.0121 0-.0182 0-.006 0-.0121 0-.0181 0s-.012 0-.018 0c-.0061 0-.0121 0-.0181 0s-.012 0-.0179 0c-.006 0-.012 0-.018 0s-.0119 0-.0179 0c-.0059 0-.0119 0-.0178 0-.006 0-.0119 0-.0179 0-.0059 0-.0118 0-.0177 0-.006 0-.0119 0-.0178 0s-.0118 0-.0177 0-.0118 0-.0176 0c-.0059 0-.0118 0-.0177 0-.0058 0-.0117 0-.0175 0-.0059 0-.0117 0-.0176 0-.0058 0-.0116 0-.0175 0-.0058 0-.0116 0-.0174 0s-.0117 0-.0175 0-.0115 0-.0173 0-.0116 0-.0174 0c-.0057 0-.0115 0-.0173 0-.0057 0-.0115 0-.0172 0-.0058 0-.0115 0-.0172 0-.0058 0-.0115 0-.0172 0s-.0115 0-.0172 0-.0114 0-.0171 0-.0113 0-.017 0-.0114 0-.017 0c-.0057 0-.0114 0-.017 0-.0057 0-.0113 0-.017 0-.0056 0-.0112 0-.0169 0-.0056 0-.0112 0-.0168 0s-.0112 0-.0168 0-.0112 0-.0168 0-.0112 0-.0167 0c-.0056 0-.0112 0-.0167 0-.0056 0-.0112 0-.0167 0s-.0111 0-.0166 0-.0111 0-.0166 0-.011 0-.0165 0-.011 0-.0165 0-.011 0-.0165 0-.0109 0-.0164 0-.0109 0-.0164 0c-.0054 0-.0109 0-.0163 0s-.0109 0-.0163 0-.0108 0-.0162 0c-.0055 0-.0109 0-.0163 0s-.0108 0-.0161 0c-.0054 0-.0108 0-.0162 0-.0053 0-.0107 0-.0161 0-.0053 0-.0107 0-.016 0-.0054 0-.0107 0-.016 0-.0054 0-.0107 0-.016 0s-.0106 0-.0159 0-.0106 0-.0159 0-.0106 0-.0159 0c-.0052 0-.0105 0-.0158 0-.0052 0-.0105 0-.0158 0-.0052 0-.0104 0-.0157 0-.0052 0-.0104 0-.0157 0-.0052 0-.0104 0-.0156 0s-.0104 0-.0156 0-.0104 0-.0156 0-.0104 0-.0155 0c-.0052 0-.0104 0-.0155 0-.0052 0-.0103 0-.0155 0-.0051 0-.0102 0-.0154 0-.0051 0-.0102 0-.0153 0s-.0103 0-.0154 0-.0102 0-.0152 0c-.0051 0-.0102 0-.0153 0s-.0101 0-.0152 0c-.005 0-.0101 0-.0151 0-.0051 0-.0101 0-.0152 0-.005 0-.01 0-.0151 0-.005 0-.01 0-.015 0s-.01 0-.015 0-.01 0-.015 0c-.0049 0-.0099 0-.0149 0-.0049 0-.0099 0-.0149 0-.0049 0-.0099 0-.0148 0s-.0099 0-.0148 0-.0098 0-.0147 0c-.005 0-.0099 0-.0148 0s-.0098 0-.0146 0c-.0049 0-.0098 0-.0147 0-.0048 0-.0097 0-.0146 0-.0048 0-.0097 0-.0145 0-.0049 0-.0097 0-.0145 0-.0049 0-.0097 0-.0145 0s-.0096 0-.0144 0-.0096 0-.0144 0-.0096 0-.0144 0-.0095 0-.0143 0-.0095 0-.0143 0c-.0047 0-.0095 0-.0142 0s-.0095 0-.0142 0-.0094 0-.0141 0-.0094 0-.0141 0-.0094 0-.0141 0-.0094 0-.014 0c-.0047 0-.0094 0-.014 0-.0047 0-.0093 0-.014 0-.0046 0-.0092 0-.0139 0-.0046 0-.0092 0-.0138 0s-.0092 0-.0138 0-.0092 0-.0138 0-.0092 0-.0138 0c-.0045 0-.0091 0-.0137 0-.0045 0-.0091 0-.0136 0-.0046 0-.0091 0-.0136 0-.0046 0-.0091 0-.0136 0s-.009 0-.0135 0-.009 0-.0135 0-.009 0-.0135 0-.0089 0-.0134 0-.0089 0-.0134 0c-.0044 0-.0089 0-.0133 0s-.0089 0-.0133 0-.0088 0-.0132 0c-.0045 0-.0089 0-.0133 0-.0043 0-.0087 0-.0131 0s-.0088 0-.0131 0c-.0044 0-.0088 0-.0131 0-.0044 0-.0087 0-.0131 0-.0043 0-.0087 0-.013 0s-.0086 0-.0129 0c-.0044 0-.0087 0-.013 0s-.0086 0-.0128 0c-.0043 0-.0086 0-.0129 0s-.0085 0-.0128 0c-.0042 0-.0085 0-.0127 0-.0043 0-.0085 0-.0128 0-.0042 0-.0084 0-.0126 0s-.0085 0-.0127 0-.0084 0-.0126 0c-.0041 0-.0083 0-.0125 0s-.0084 0-.0125 0c-.0042 0-.0083 0-.0125 0-.0041 0-.0083 0-.0124 0-.0042 0-.0083 0-.0124 0s-.0082 0-.0124 0c-.0041 0-.0082 0-.0123 0s-.0081 0-.0122 0-.0082 0-.0122 0c-.0041 0-.0082 0-.0122 0-.0041 0-.0081 0-.0122 0-.004 0-.008 0-.0121 0-.004 0-.008 0-.012 0s-.008 0-.012 0-.008 0-.012 0-.008 0-.012 0c-.0039 0-.0079 0-.0118 0-.004 0-.008 0-.0119 0s-.0079 0-.0118 0-.0079 0-.0118 0-.0078 0-.0117 0-.0078 0-.0117 0-.0078 0-.0116 0c-.0039 0-.0078 0-.0116 0-.0039 0-.0078 0-.0116 0-.0039 0-.0077 0-.0115 0-.0039 0-.0077 0-.0115 0s-.0076 0-.0115 0c-.0038 0-.0076 0-.0114 0-.0037 0-.0075 0-.0113 0s-.0076 0-.0113 0c-.0038 0-.0075 0-.0113 0s-.0075 0-.0112 0c-.0038 0-.0075 0-.0112 0s-.0075 0-.0112 0-.0074 0-.0111 0-.0074 0-.0111 0c-.0036 0-.0073 0-.011 0-.0036 0-.0073 0-.011 0-.0036 0-.0073 0-.0109 0s-.0073 0-.0109 0-.0073 0-.0109 0-.0072 0-.0108 0-.0072 0-.0108 0-.0071 0-.0107 0-.0071 0-.0107 0-.0071 0-.0107 0c-.0035 0-.007 0-.0106 0-.0035 0-.007 0-.0105 0-.0036 0-.0071 0-.0106 0s-.007 0-.0105 0c-.0034 0-.0069 0-.0104 0s-.0069 0-.0104 0-.0069 0-.0104 0c-.0034 0-.0069 0-.0103 0s-.0068 0-.0103 0c-.0034 0-.0068 0-.0102 0s-.0068 0-.0102 0-.0068 0-.0102 0c-.0033 0-.0067 0-.0101 0-.0033 0-.0067 0-.01 0-.0034 0-.0067 0-.0101 0-.0033 0-.0066 0-.01 0-.0033 0-.0066 0-.0099 0s-.0066 0-.0099 0-.0066 0-.0099 0-.0065 0-.0098 0-.0065 0-.0098 0c-.0032 0-.0065 0-.0097 0-.0033 0-.0065 0-.0097 0-.0033 0-.0065 0-.0097 0s-.0064 0-.0096 0-.0064 0-.0096 0-.0063 0-.0095 0-.0063 0-.0095 0c-.0031 0-.0063 0-.0094 0-.0032 0-.0063 0-.0094 0-.0032 0-.0063 0-.0094 0s-.0062 0-.0093 0-.0062 0-.0093 0-.0062 0-.0092 0c-.0031 0-.0062 0-.0092 0-.0031 0-.0062 0-.0092 0s-.0061 0-.0091 0-.0061 0-.0091 0-.006 0-.009 0-.006 0-.009 0-.006 0-.009 0c-.0029 0-.0059 0-.0089 0-.0029 0-.0059 0-.0088 0-.003 0-.0059 0-.0088 0-.003 0-.0059 0-.0088 0s-.0059 0-.0088 0-.0058 0-.0087 0c-.0028 0-.0057 0-.0086 0s-.0058 0-.0086 0c-.0029 0-.0057 0-.0086 0-.0028 0-.0057 0-.0085 0-.0029 0-.0057 0-.0085 0s-.0056 0-.0084 0c-.0029 0-.0057 0-.0084 0-.0028 0-.0056 0-.0084 0s-.0056 0-.0083 0c-.0028 0-.0055 0-.0083 0s-.0055 0-.0082 0c-.0028 0-.0055 0-.0082 0-.0028 0-.0055 0-.0082 0s-.0054 0-.0081 0-.0054 0-.0081 0c-.0026 0-.0053 0-.008 0-.0026 0-.0053 0-.008 0-.0026 0-.0053 0-.0079 0s-.0053 0-.0079 0-.0052 0-.0079 0c-.0026 0-.0052 0-.0078 0s-.0052 0-.0077 0c-.0026 0-.0052 0-.0078 0-.0025 0-.0051 0-.0077 0-.0025 0-.0051 0-.0076 0-.0026 0-.0051 0-.0076 0s-.0051 0-.0076 0-.005 0-.0075 0-.005 0-.0075 0-.0049 0-.0074 0-.0049 0-.0074 0-.0049 0-.0074 0c-.0024 0-.0048 0-.0073 0-.0024 0-.0048 0-.0072 0s-.0049 0-.0073 0-.0048 0-.0071 0c-.0024 0-.0048 0-.0072 0s-.0047 0-.0071 0c-.0023 0-.0047 0-.007 0-.0024 0-.0047 0-.007 0-.0024 0-.0047 0-.007 0s-.0046 0-.0069 0c-.0024 0-.0046 0-.0069 0s-.0046 0-.0069 0-.0045 0-.0068 0c-.0022 0-.0045 0-.0067 0-.0023 0-.0045 0-.0068 0-.0022 0-.0044 0-.0066 0-.0023 0-.0045 0-.0067 0s-.0044 0-.0066 0-.0043 0-.0065 0-.0044 0-.0065 0c-.0022 0-.0043 0-.0065 0-.0021 0-.0043 0-.0064 0s-.0043 0-.0064 0-.0042 0-.0063 0-.0042 0-.0063 0-.0042 0-.0063 0-.0041 0-.0062 0c-.002 0-.0041 0-.0062 0-.002 0-.004 0-.0061 0-.002 0-.004 0-.0061 0-.002 0-.004 0-.006 0s-.004 0-.006 0-.004 0-.006 0c-.0019 0-.0039 0-.0059 0-.0019 0-.0039 0-.0058 0-.002 0-.0039 0-.0059 0-.0019 0-.0038 0-.0058 0-.0019 0-.0038 0-.0057 0s-.0038 0-.0057 0-.0038 0-.0057 0c-.0018 0-.0037 0-.0056 0-.0018 0-.0037 0-.0056 0-.0018 0-.0037 0-.0055 0s-.0037 0-.0055 0-.0036 0-.0054 0-.0036 0-.0054 0-.0036 0-.0054 0-.0035 0-.0053 0-.0035 0-.0053 0c-.0017 0-.0035 0-.0052 0-.0018 0-.0035 0-.0052 0s-.0035 0-.0052 0-.0034 0-.0051 0-.0034 0-.005 0c-.0017 0-.0034 0-.0051 0-.0016 0-.0033 0-.0049 0-.0017 0-.0033 0-.005 0-.0016 0-.0032 0-.0049 0-.0016 0-.0032 0-.0048 0s-.0032 0-.0048 0-.0032 0-.0048 0-.0031 0-.0047 0-.0031 0-.0047 0c-.0015 0-.0031 0-.0046 0-.0016 0-.0031 0-.0046 0s-.0031 0-.0046 0-.003 0-.0045 0-.003 0-.0044 0c-.0015 0-.003 0-.0045 0-.0014 0-.0029 0-.0044 0-.0014 0-.0029 0-.0043 0s-.0029 0-.0043 0-.0028 0-.0042 0-.0029 0-.0042 0c-.0014 0-.0028 0-.0042 0s-.0028 0-.0041 0c-.0014 0-.0028 0-.0041 0-.0014 0-.0027 0-.0041 0-.0013 0-.0026 0-.004 0-.0013 0-.0026 0-.0039 0s-.0026 0-.0039 0-.0026 0-.0039 0-.0025 0-.0038 0-.0025 0-.0038 0-.0025 0-.0037 0c-.0013 0-.0025 0-.0037 0-.0013 0-.0025 0-.0037 0s-.0024 0-.0036 0-.0024 0-.0036 0c-.0011 0-.0023 0-.0035 0s-.0023 0-.0035 0c-.0011 0-.0023 0-.0034 0s-.0023 0-.0034 0-.0022 0-.0034 0c-.0011 0-.0022 0-.0033 0s-.0022 0-.0032 0c-.0011 0-.0022 0-.0033 0-.001 0-.0021 0-.0031 0-.0011 0-.0021 0-.0032 0-.001 0-.0021 0-.0031 0s-.002 0-.003 0-.002 0-.003 0-.002 0-.003 0-.002 0-.0029 0c-.001 0-.002 0-.0029 0-.001 0-.0019 0-.0028 0-.001 0-.0019 0-.0028 0-.001 0-.0019 0-.0028 0s-.0018 0-.0027 0-.0018 0-.0027 0c-.0008 0-.0017 0-.0026 0s-.0017 0-.0026 0c-.0008 0-.0017 0-.0025 0s-.0017 0-.0025 0-.0016 0-.0024 0c-.0009 0-.0017 0-.0024 0-.0008 0-.0016 0-.0024 0s-.0016 0-.0023 0c-.0008 0-.0016 0-.0023 0-.0008 0-.0015 0-.0022 0-.0008 0-.0015 0-.0022 0-.0008 0-.0015 0-.0022 0s-.0014 0-.0021 0-.0014 0-.002 0c-.0007 0-.0014 0-.0021 0-.0006 0-.0013 0-.0019 0-.0007 0-.0013 0-.002 0-.0006 0-.0012 0-.0019 0-.0006 0-.0012 0-.0018 0s-.0012 0-.0018 0-.0012 0-.0018 0c-.0005 0-.0011 0-.0017 0-.0005 0-.0011 0-.0017 0-.0005 0-.001 0-.0016 0-.0005 0-.001 0-.0016 0-.0005 0-.001 0-.0015 0s-.001 0-.0015 0-.001 0-.0015 0c-.0004 0-.0009 0-.0014 0-.0004 0-.0009 0-.0013 0-.0005 0-.0009 0-.0014 0-.0004 0-.0008 0-.0013 0-.0004 0-.0008 0-.0012 0s-.0008 0-.0012 0-.0008 0-.0011 0c-.0004 0-.0008 0-.0011 0-.0004 0-.0008 0-.0011 0-.0004 0-.0007 0-.001 0-.0004 0-.0007 0-.001 0s-.0006 0-.001 0c-.0003 0-.0006 0-.0008 0-.0003 0-.0006 0-.0009 0s-.0005 0-.0008 0-.0005 0-.0008 0c-.0002 0-.0004 0-.0007 0-.0002 0-.0004 0-.0007 0-.0002 0-.0004 0-.0006 0s-.0004 0-.0006 0-.0003 0-.0005 0-.0004 0-.0005 0c-.0002 0-.0003 0-.0005 0-.0001 0-.0003 0-.0004 0s-.0002 0-.0004 0c-.0001 0-.0002 0-.0003 0s-.0002 0-.0003 0-.0001 0-.0002 0-.0001 0-.0002 0-.0001 0-.0002 0c0 0 0 0-.0001 0s-.0001 0-.0001 1 .0001 1 .0001 1h.0001.0002.0002.0002.0003.0003.0004.0004.0005.0005.0005.0006.0006.0007.0007.0008.0008.0009.0008.001.001.001.0011.0011.0011.0012.0012.0013.0014.0013.0014.0015.0015.0015.0016.0016.0017.0017.0018.0018.0018.0019.002.0019.0021.002.0021.0022.0022.0022.0023.0023.0024.0024.0024.0025.0025.0026.0026.0027.0027.0028.0028.0028.0029.0029.003.003.003.0031.0032.0031.0033.0032.0033.0034.0034.0034.0035.0035.0036.0036.0037.0037.0037.0038.0038.0039.0039.0039.004.0041.0041.0041.0042.0042.0042.0043.0043.0044.0045.0044.0045.0046.0046.0046.0047.0047.0048.0048.0048.0049.005.0049.0051.005.0051.0052.0052.0052.0053.0053.0054.0054.0054.0055.0055.0056.0056.0057.0057.0057.0058.0059.0058.0059.006.006.006.0061.0061.0062.0062.0063.0063.0063.0064.0064.0065.0065.0065.0066.0067.0066.0068.0067.0068.0069.0069.0069.007.007.007.0071.0072.0071.0073.0072.0073.0074.0074.0074.0075.0075.0076.0076.0076.0077.0078.0077.0078.0079.0079.0079.008.008.0081.0081.0082.0082.0082.0083.0083.0084.0084.0084.0085.0085.0086.0086.0086.0087.0088.0088.0088.0088.0089.009.009.009.0091.0091.0092.0092.0092.0093.0093.0094.0094.0094.0095.0095.0096.0096.0097.0097.0097.0098.0098.0099.0099.0099.01.0101.01.0101.0102.0102.0102.0103.0103.0104.0104.0104.0105.0106.0105.0106.0107.0107.0107.0108.0108.0109.0109.0109.011.011.0111.0111.0112.0112.0112.0113.0113.0113.0114.0115.0115.0115.0116.0116.0116.0117.0117.0118.0118.0119.0118.012.012.012.012.0121.0122.0122.0122.0122.0123.0124.0124.0124.0125.0125.0125.0126.0127.0126.0128.0127.0128.0129.0128.013.0129.013.0131.0131.0131.0131.0133.0132.0133.0133.0134.0134.0135.0135.0135.0136.0136.0136.0137.0138.0138.0138.0138.0139.014.014.014.0141.0141.0141.0142.0142.0143.0143.0144.0144.0144.0145.0145.0145.0146.0147.0146.0148.0147.0148.0148.0149.0149.015.015.015.0151.0152.0151.0152.0153.0152.0154.0153.0154.0155.0155.0155.0156.0156.0156.0157.0157.0158.0158.0159.0159.0159.016.016.016.0161.0162.0161.0163.0162.0163.0163.0164.0164.0165.0165.0165.0166.0166.0167.0167.0167.0168.0168.0168.0169.017.017.017.017.0171.0172.0172.0172.0172.0173.0174.0173.0175.0174.0175.0176.0175.0177.0176.0177.0178.0177.0179.0178.0179.018.0179.0181.018.0181.0182.0181.0182.0183.0183.0183.0184.0184.0185.0185.0185.0186.0186.0187.0187.0187.0188.0188.0189.0189.0189.019.019.019.0191.0192.0191.0192.0193.0193.0193.0194.0194.0195.0194.0196.0195.0197.0196.0197.0197.0198.0198.0198.0199.0199.02.02.0201.02.0202.0201.0202.0203.0203.0203.0203.0204.0205.0204.0206.0205.0206.0207.0206.0207.0208.0208.0208.0209.0209.021.0209.0211.021.0211.0212.0212zm-5.5238 1c0-1 0-1 0-1s0 0-.0001 0h-.0001c-.0001 0-.0002 0-.0003 0 0 0-.0001 0-.0002 0-.0002 0-.0003 0-.0004 0s-.0003 0-.0004 0c-.0002 0-.0003 0-.0005 0s-.0003 0-.0005 0-.0004 0-.0006 0-.0005 0-.0007 0-.0005 0-.0007 0c-.0003 0-.0005 0-.0008 0s-.0006 0-.0009 0-.0006 0-.0009 0-.0006 0-.0009 0c-.0004 0-.0007 0-.0011 0-.0003 0-.0007 0-.0011 0s-.0007 0-.0011 0-.0009 0-.0013 0-.0008 0-.0013 0c-.0004 0-.0008 0-.0013 0s-.0009 0-.0014 0-.001 0-.0015 0-.001 0-.0015 0-.001 0-.0016 0c-.0005 0-.0011 0-.0016 0-.0006 0-.0012 0-.0017 0-.0006 0-.0012 0-.0018 0s-.0012 0-.0018 0c-.0007 0-.0013 0-.0019 0-.0007 0-.0013 0-.002 0s-.0013 0-.002 0-.0014 0-.0021 0-.0014 0-.0021 0-.0015 0-.0022 0-.0015 0-.0022 0c-.0008 0-.0016 0-.0023 0-.0008 0-.0016 0-.0024 0s-.0016 0-.0024 0c-.0009 0-.0017 0-.0025 0-.0009 0-.0017 0-.0026 0-.0008 0-.0017 0-.0026 0-.0008 0-.0017 0-.0026 0s-.0018 0-.0028 0c-.0009 0-.0018 0-.0027 0-.001 0-.0019 0-.0029 0-.0009 0-.0019 0-.0029 0-.0009 0-.0019 0-.0029 0s-.002 0-.003 0-.0021 0-.0031 0-.0021 0-.0031 0c-.0011 0-.0021 0-.0032 0s-.0021 0-.0032 0-.0022 0-.0033 0-.0022 0-.0034 0c-.0011 0-.0022 0-.0034 0-.0011 0-.0023 0-.0034 0-.0012 0-.0024 0-.0036 0s-.0023 0-.0035 0-.0025 0-.0037 0-.0024 0-.0037 0c-.0012 0-.0025 0-.0037 0-.0013 0-.0025 0-.0038 0s-.0026 0-.0039 0-.0026 0-.0039 0-.0026 0-.004 0c-.0013 0-.0026 0-.004 0-.0013 0-.0027 0-.0041 0-.0013 0-.0027 0-.0041 0s-.0028 0-.0042 0-.0028 0-.0042 0c-.0015 0-.0029 0-.0043 0-.0015 0-.0029 0-.0044 0s-.0029 0-.0044 0-.003 0-.0045 0-.003 0-.0045 0-.003 0-.0046 0c-.0015 0-.003 0-.0046 0-.0015 0-.0031 0-.0047 0-.0015 0-.0031 0-.0047 0s-.0032 0-.0048 0-.0032 0-.0048 0-.0033 0-.0049 0c-.0017 0-.0033 0-.005 0-.0016 0-.0033 0-.005 0-.0016 0-.0033 0-.005 0s-.0034 0-.0051 0-.0035 0-.0052 0-.0034 0-.0052 0c-.0017 0-.0035 0-.0053 0-.0017 0-.0035 0-.0053 0s-.0035 0-.0053 0-.0036 0-.0055 0c-.0018 0-.0036 0-.0054 0-.0019 0-.0037 0-.0056 0-.0018 0-.0037 0-.0055 0-.0019 0-.0038 0-.0057 0-.0018 0-.0037 0-.0056 0s-.0038 0-.0058 0c-.0019 0-.0038 0-.0057 0-.002 0-.0039 0-.0059 0-.0019 0-.0039 0-.0059 0-.0019 0-.0039 0-.0059 0s-.004 0-.006 0-.004 0-.006 0-.0041 0-.0061 0-.0041 0-.0061 0c-.0021 0-.0042 0-.0062 0-.0021 0-.0042 0-.0063 0-.002 0-.0041 0-.0062 0s-.0043 0-.0064 0-.0042 0-.0064 0c-.0021 0-.0042 0-.0064 0s-.0043 0-.0065 0-.0043 0-.0065 0-.0044 0-.0066 0-.0044 0-.0066 0-.0045 0-.0067 0-.0045 0-.0067 0c-.0023 0-.0045 0-.0068 0s-.0046 0-.0068 0c-.0023 0-.0046 0-.0069 0s-.0046 0-.0069 0c-.0024 0-.0047 0-.007 0s-.0047 0-.007 0c-.0024 0-.0047 0-.0071 0s-.0047 0-.0071 0-.0048 0-.0072 0-.0048 0-.0072 0-.0048 0-.0072 0c-.0025 0-.0049 0-.0073 0-.0025 0-.0049 0-.0074 0s-.0049 0-.0074 0-.0049 0-.0074 0-.005 0-.0075 0-.005 0-.0076 0c-.0025 0-.005 0-.0075 0-.0026 0-.0051 0-.0077 0-.0025 0-.0051 0-.0077 0-.0025 0-.0051 0-.0077 0s-.0052 0-.0077 0c-.0026 0-.0053 0-.0079 0s-.0052 0-.0078 0c-.0027 0-.0053 0-.0079 0-.0027 0-.0053 0-.008 0-.0026 0-.0053 0-.008 0s-.0053 0-.008 0-.0054 0-.0081 0-.0054 0-.0081 0c-.0028 0-.0055 0-.0082 0s-.0055 0-.0082 0c-.0028 0-.0055 0-.0083 0s-.0055 0-.0083 0-.0056 0-.0084 0-.0056 0-.0084 0-.0056 0-.0084 0-.0057 0-.0085 0-.0057 0-.0085 0c-.0029 0-.0057 0-.0086 0s-.0057 0-.0086 0-.0058 0-.0087 0-.0058 0-.0087 0-.0058 0-.0087 0c-.003 0-.0059 0-.0088 0-.003 0-.0059 0-.0089 0-.0029 0-.0059 0-.0088 0-.003 0-.006 0-.0089 0-.003 0-.006 0-.009 0s-.006 0-.009 0-.006 0-.0091 0c-.003 0-.006 0-.009 0-.0031 0-.0061 0-.0092 0-.003 0-.0061 0-.0091 0-.0031 0-.0062 0-.0093 0-.003 0-.0061 0-.0092 0s-.0062 0-.0093 0-.0062 0-.0093 0c-.0032 0-.0063 0-.0094 0-.0032 0-.0063 0-.0094 0-.0032 0-.0063 0-.0095 0s-.0063 0-.0095 0-.0064 0-.0095 0c-.0032 0-.0064 0-.0096 0s-.0064 0-.0097 0c-.0032 0-.0064 0-.0096 0s-.0065 0-.0097 0c-.0033 0-.0065 0-.0098 0-.0032 0-.0065 0-.0097 0-.0033 0-.0066 0-.0099 0s-.0065 0-.0098 0-.0066 0-.0099 0-.0067 0-.01 0-.0066 0-.01 0c-.0033 0-.0066 0-.01 0-.0033 0-.0067 0-.01 0-.0034 0-.0068 0-.0101 0-.0034 0-.0068 0-.0102 0s-.0068 0-.0102 0-.0068 0-.0102 0-.0068 0-.0102 0-.0069 0-.0103 0-.0069 0-.0103 0c-.0035 0-.0069 0-.0104 0s-.0069 0-.0104 0-.007 0-.0105 0c-.0034 0-.0069 0-.0104 0s-.007 0-.0106 0c-.0035 0-.007 0-.0105 0s-.0071 0-.0106 0-.0071 0-.0106 0c-.0036 0-.0071 0-.0107 0s-.0071 0-.0107 0-.0072 0-.0107 0c-.0036 0-.0072 0-.0108 0s-.0072 0-.0108 0-.0073 0-.0109 0-.0072 0-.0109 0c-.0036 0-.0072 0-.0109 0-.0036 0-.0073 0-.0109 0-.0037 0-.0074 0-.011 0-.0037 0-.0074 0-.0111 0s-.0073 0-.011 0-.0074 0-.0111 0-.0075 0-.0112 0-.0074 0-.0111 0c-.0038 0-.0075 0-.0113 0-.0037 0-.0074 0-.0112 0-.0037 0-.0075 0-.0113 0-.0037 0-.0075 0-.0113 0s-.0075 0-.0113 0-.0076 0-.0114 0-.0076 0-.0114 0-.0076 0-.0115 0c-.0038 0-.0076 0-.0115 0-.0038 0-.0076 0-.0115 0-.0038 0-.0077 0-.0115 0-.0039 0-.0077 0-.0116 0s-.0077 0-.0116 0-.0078 0-.0117 0-.0078 0-.0117 0-.0078 0-.0117 0-.0078 0-.0117 0-.0079 0-.0118 0-.0079 0-.0118 0c-.004 0-.0079 0-.0119 0-.0039 0-.0079 0-.0118 0-.004 0-.008 0-.012 0-.0039 0-.0079 0-.0119 0s-.008 0-.012 0-.008 0-.012 0-.008 0-.012 0c-.0041 0-.0081 0-.0121 0s-.0081 0-.0121 0c-.0041 0-.0081 0-.0122 0-.004 0-.0081 0-.0121 0-.0041 0-.0081 0-.0122 0s-.0082 0-.0122 0c-.0041 0-.0082 0-.0123 0s-.0082 0-.0123 0-.0082 0-.0123 0-.0083 0-.0124 0-.0082 0-.0124 0c-.0041 0-.0082 0-.0124 0-.0041 0-.0083 0-.0124 0-.0042 0-.0083 0-.0125 0s-.0083 0-.0125 0-.0084 0-.0125 0c-.0042 0-.0084 0-.0126 0s-.0084 0-.0126 0-.0084 0-.0126 0-.0084 0-.0127 0c-.0042 0-.0084 0-.0127 0-.0042 0-.0084 0-.0127 0-.0042 0-.0085 0-.0127 0-.0043 0-.0085 0-.0128 0-.0042 0-.0085 0-.0128 0-.0042 0-.0085 0-.0128 0s-.0086 0-.0128 0c-.0043 0-.0086 0-.0129 0s-.0086 0-.0129 0-.0087 0-.013 0-.0086 0-.0129 0c-.0044 0-.0087 0-.013 0-.0044 0-.0087 0-.0131 0-.0043 0-.0087 0-.013 0-.0044 0-.0087 0-.0131 0s-.0087 0-.0131 0-.0087 0-.0131 0-.0088 0-.0132 0-.0088 0-.0132 0-.0088 0-.0132 0-.0088 0-.0132 0-.0089 0-.0133 0-.0088 0-.0133 0c-.0044 0-.0089 0-.0133 0s-.0089 0-.0133 0c-.0045 0-.0089 0-.0134 0s-.0089 0-.0134 0-.009 0-.0134 0c-.0045 0-.009 0-.0135 0s-.009 0-.0134 0c-.0045 0-.009 0-.0135 0-.0046 0-.0091 0-.0136 0s-.009 0-.0135 0-.0091 0-.0136 0-.0091 0-.0136 0-.0091 0-.0136 0c-.0046 0-.0091 0-.0137 0-.0045 0-.0091 0-.0136 0-.0046 0-.0092 0-.0137 0-.0046 0-.0092 0-.0138 0-.0045 0-.0091 0-.0137 0s-.0092 0-.0138 0-.0092 0-.0138 0-.0092 0-.0138 0-.0092 0-.0138 0-.0093 0-.0139 0-.0092 0-.0139 0c-.0046 0-.0092 0-.0139 0-.0046 0-.0093 0-.0139 0-.0047 0-.0093 0-.014 0-.0046 0-.0093 0-.0139 0-.0047 0-.0094 0-.014 0-.0047 0-.0094 0-.0141 0-.0046 0-.0093 0-.014 0s-.0094 0-.0141 0-.0094 0-.0141 0-.0094 0-.0141 0-.0094 0-.0141 0-.0095 0-.0142 0-.0094 0-.0142 0c-.0047 0-.0094 0-.0142 0-.0047 0-.0094 0-.0142 0-.0047 0-.0095 0-.0142 0-.0048 0-.0095 0-.0143 0-.0047 0-.0095 0-.0143 0-.0047 0-.0095 0-.0143 0s-.0095 0-.0143 0-.0096 0-.0144 0c-.0047 0-.0095 0-.0143 0s-.0096 0-.0144 0-.0096 0-.0144 0-.0096 0-.0144 0c-.0049 0-.0097 0-.0145 0s-.0096 0-.0145 0c-.0048 0-.0096 0-.0145 0-.0048 0-.0096 0-.0145 0-.0048 0-.0096 0-.0145 0-.0048 0-.0097 0-.0145 0-.0049 0-.0097 0-.0146 0s-.0097 0-.0146 0c-.0048 0-.0097 0-.0146 0s-.0097 0-.0146 0-.0098 0-.0147 0c-.0048 0-.0097 0-.0146 0s-.0098 0-.0147 0-.0098 0-.0147 0-.0098 0-.0147 0-.0098 0-.0147 0-.0099 0-.0148 0-.0098 0-.0148 0c-.0049 0-.0098 0-.0147 0-.005 0-.0099 0-.0148 0-.005 0-.0099 0-.0149 0-.0049 0-.0099 0-.0148 0-.005 0-.0099 0-.0149 0-.0049 0-.0099 0-.0148 0-.005 0-.01 0-.0149 0-.005 0-.01 0-.0149 0-.005 0-.01 0-.015 0-.0049 0-.0099 0-.0149 0s-.01 0-.015 0c-.0049 0-.0099 0-.0149 0s-.01 0-.015 0-.01 0-.015 0-.01 0-.015 0c-.0051 0-.0101 0-.0151 0s-.01 0-.015 0c-.0051 0-.0101 0-.0151 0s-.0101 0-.0151 0-.01 0-.0151 0c-.005 0-.0101 0-.0151 0s-.0101 0-.0151 0c-.0051 0-.0101 0-.0152 0-.005 0-.0101 0-.0151 0-.0051 0-.0101 0-.0152 0s-.0101 0-.0152 0-.0101 0-.0152 0-.0101 0-.0152 0-.0102 0-.0152 0c-.0051 0-.0102 0-.0153 0s-.0102 0-.0152 0c-.0051 0-.0102 0-.0153 0s-.0102 0-.0153 0-.0102 0-.0153 0-.0102 0-.0153 0-.0102 0-.0153 0-.0103 0-.0154 0-.0102 0-.0153 0-.0103 0-.0154 0-.0102 0-.0154 0c-.0051 0-.0102 0-.0154 0-.0051 0-.0102 0-.0154 0-.0051 0-.0102 0-.0154 0-.0051 0-.0103 0-.0154 0-.0052 0-.0103 0-.0154 0-.0052 0-.0103 0-.0155 0-.0051 0-.0103 0-.0155 0-.0051 0-.0103 0-.0154 0-.0052 0-.0104 0-.0155 0-.0052 0-.0104 0-.0155 0-.0052 0-.0104 0-.0155 0-.0052 0-.0104 0-.0155 0-.0052 0-.0104 0-.0156 0s-.0103 0-.0155 0-.0104 0-.0156 0-.0103 0-.0155 0-.0104 0-.0156 0-.0104 0-.0156 0-.0104 0-.0156 0-.0104 0-.0156 0-.0104 0-.0156 0-.0104 0-.0156 0-.0105 0-.0157 0-.0104 0-.0156 0-.0105 0-.0157 0-.0104 0-.0156 0c-.0053 0-.0105 0-.0157 0s-.0105 0-.0157 0-.0105 0-.0157 0-.0104 0-.0157 0c-.0052 0-.0105 0-.0157 0s-.0105 0-.0157 0-.0105 0-.0157 0c-.0053 0-.0105 0-.0158 0-.0052 0-.0105 0-.0157 0-.0053 0-.0105 0-.0158 0-.0052 0-.0105 0-.0157 0-.0053 0-.0105 0-.0158 0-.0052 0-.0105 0-.0158 0-.0052 0-.0105 0-.0157 0-.0053 0-.0106 0-.0158 0-.0053 0-.0106 0-.0158 0-.0053 0-.0106 0-.0158 0-.0053 0-.0106 0-.0158 0-.0053 0-.0106 0-.0159 0-.0052 0-.0105 0-.0158 0s-.0105 0-.0158 0-.0106 0-.0159 0c-.0052 0-.0105 0-.0158 0s-.0106 0-.0159 0c-.0052 0-.0105 0-.0158 0s-.0106 0-.0159 0-.0106 0-.0158 0c-.0053 0-.0106 0-.0159 0s-.0106 0-.0159 0-.0106 0-.0159 0-.0106 0-.0159 0-.0106 0-.0159 0-.0106 0-.0159 0-.0106 0-.0159 0-.0106 0-.0159 0-.0106 0-.0159 0-.0106 0-.0159 0-.0106 0-.016 0c-.0053 0-.0106 0-.0159 0s-.0106 0-.0159 0-.0107 0-.016 0-.0106 0-.0159 0-.0106 0-.016 0c-.0053 0-.0106 0-.0159 0s-.0106 0-.016 0c-.0053 0-.0106 0-.0159 0s-.0107 0-.016 0-.0106 0-.0159 0c-.0054 0-.0107 0-.016 0s-.0107 0-.016 0-.0106 0-.016 0c-.0053 0-.0106 0-.0159 0-.0054 0-.0107 0-.016 0s-.0107 0-.016 0-.0106 0-.016 0c-.0053 0-.0106 0-.016 0-.0053 0-.0106 0-.016 0-.0053 0-.0106 0-.0159 0-.0054 0-.0107 0-.016 0-.0054 0-.0107 0-.016 0-.0054 0-.0107 0-.016 0-.0054 0-.0107 0-.016 0-.0054 0-.0107 0-.016 0-.0054 0-.0107 0-.016 0-.0054 0-.0107 0-.016 0-.0054 0-.0107 0-.016 0-.0054 0-.0107 0-.016 0-.0054 0-.0107 0-.016 0-.0054 0-.0107 0-.016 0-.0054 0-.0107 0-.016 0-.0054 0-.0107 0-.016 0-.0054 0-.0107 0-.016 0-.0054 0-.0107 0-.0161 0-.0053 0-.0106 0-.016 0-.0053 0-.0106 0-.016 0-.0053 0-.0106 0-.016 0-.0053 0-.0106 0-.016 0-.0053 0-.0106 0-.016 0-.0053 0-.0106 0-.016 0-.0053 0-.0106 0-.016 0-.0053 0-.0106 0-.016 0-.0053 0-.0106 0-.016 0-.0053 0-.0106 0-.016 0-.0053 0-.0106 0-.016 0v2h.016.016.016.016.016.016.016.016.016.016.016.0161.016.016.016.016.016.016.016.016.016.016.016.016.016.016.0159.016.016.016.016.016.0159.016.016.016.0159.016.0159.016.0159.016.0159.016.0159.0159.016.0159.0159.0159.0159.0159.0159.0159.0159.0159.0159.0158.0159.0158.0159.0158.0159.0158.0158.0159.0158.0158.0158.0158.0157.0158.0158.0157.0158.0157.0158.0157.0157.0157.0157.0157.0157.0157.0156.0157.0156.0157.0156.0156.0156.0156.0156.0156.0155.0156.0155.0156.0155.0155.0155.0155.0154.0155.0155.0154.0154.0154.0154.0154.0154.0154.0153.0154.0153.0153.0153.0153.0153.0152.0153.0152.0152.0152.0152.0152.0151.0152.0151.0151.0151.0151.0151.015.0151.015.015.015.0149.015.0149.015.0149.0149.0148.0149.0148.0149.0148.0147.0148.0148.0147.0147.0147.0147.0146.0147.0146.0146.0146.0146.0145.0145.0145.0145.0145.0145.0144.0144.0144.0143.0144.0143.0143.0143.0143.0142.0142.0142.0142.0142.0141.0141.0141.0141.014.0141.014.0139.014.0139.0139.0139.0139.0138.0138.0138.0138.0137.0138.0137.0136.0137.0136.0136.0136.0135.0136.0135.0134.0135.0134.0134.0134.0133.0133.0133.0133.0132.0132.0132.0132.0131.0131.0131.013.0131.013.0129.013.0129.0129.0128.0128.0128.0128.0127.0127.0127.0127.0126.0126.0126.0125.0125.0125.0124.0124.0124.0124.0123.0123.0123.0122.0122.0121.0122.0121.0121.012.012.012.0119.012.0118.0119.0118.0118.0117.0117.0117.0117.0116.0116.0115.0115.0115.0115.0114.0114.0113.0113.0113.0112.0113.0111.0112.0111.011.0111.011.0109.0109.0109.0109.0108.0108.0107.0107.0107.0106.0106.0105.0106.0104.0105.0104.0104.0103.0103.0102.0102.0102.0102.0101.01.01.01.01.0099.0098.0099.0097.0098.0097.0096.0097.0096.0095.0095.0095.0094.0094.0093.0093.0092.0093.0091.0092.009.0091.009.009.0089.0088.0089.0088.0087.0087.0087.0086.0086.0085.0085.0084.0084.0084.0083.0083.0082.0082.0081.0081.008.008.008.0079.0078.0079.0077.0077.0077.0077.0075.0076.0075.0074.0074.0074.0073.0072.0072.0072.0071.0071.007.007.0069.0069.0068.0068.0067.0067.0066.0066.0065.0065.0064.0064.0064.0062.0063.0062.0061.0061.006.006.0059.0059.0059.0057.0058.0056.0057.0055.0056.0054.0055.0053.0053.0053.0052.0052.0051.005.005.005.0049.0048.0048.0047.0047.0046.0046.0045.0045.0044.0044.0043.0042.0042.0041.0041.004.004.0039.0039.0038.0037.0037.0037.0035.0036.0034.0034.0034.0033.0032.0032.0031.0031.003.0029.0029.0029.0027.0028.0026.0026.0026.0025.0024.0024.0023.0022.0022.0021.0021.002.002.0019.0018.0018.0017.0016.0016.0015.0015.0014.0013.0013.0013.0011.0011.0011.0009.0009.0009.0008.0007.0007.0006.0005.0005.0004.0004.0002.0003.0001.0001s0 0 0-1zm-4.5237 0c0-3.287 2.1883-5.6285 4.5237-5.6285v-2c-3.7659 0-6.5237 3.5938-6.5237 7.6285zm4.5237-5.6285c2.3355 0 4.5238 2.3415 4.5238 5.6285h2c0-4.0347-2.7578-7.6285-6.5238-7.6285z"/></g><path d="m25.4231 21.2918c-2.9911 0-4.5653 0-4.5653 0s-2.3089 0-4.5653 0c0-2.8967 2.0439-5.2449 4.5653-5.2449 2.5213 0 4.5653 2.3482 4.5653 5.2449z" fill="#02d06c"/><path d="m25.4231 21.2918c-2.286 0-3.4891 0-3.4891 0s-1.7647 0-3.4892 0c0-2.668 1.5622-4.8309 3.4892-4.8309 1.9269 0 3.4891 2.1629 3.4891 4.8309z" fill="#02d06c"/><circle cx="19.8977" cy="11.8542" fill="#02d06c" r="3.11106" stroke="#1e4437" stroke-width="2"/></svg>