<svg width="16" height="11" viewBox="0 0 16 11" fill="none" xmlns="http://www.w3.org/2000/svg">
<path fill-rule="evenodd" clip-rule="evenodd" d="M4.84322 5.32907C6.03866 5.32907 7.00775 4.35997 7.00775 3.16453C7.00775 1.96909 6.03866 1 4.84322 1C3.64778 1 2.67868 1.96909 2.67868 3.16453C2.67868 4.35997 3.64778 5.32907 4.84322 5.32907ZM4.84315 10.2236H8.6863C8.6863 7.67653 6.96567 5.61177 4.84315 5.61177C2.72064 5.61177 1 7.67653 1 10.2236H4.84315Z" fill="#1E4437"/>
<path d="M8.6863 10.2236V10.7236H9.1863V10.2236H8.6863ZM1 10.2236H0.5V10.7236H1V10.2236ZM6.50775 3.16453C6.50775 4.08383 5.76252 4.82907 4.84322 4.82907V5.82907C6.3148 5.82907 7.50775 4.63612 7.50775 3.16453H6.50775ZM4.84322 1.5C5.76252 1.5 6.50775 2.24524 6.50775 3.16453H7.50775C7.50775 1.69295 6.3148 0.5 4.84322 0.5V1.5ZM3.17868 3.16453C3.17868 2.24524 3.92392 1.5 4.84322 1.5V0.5C3.37164 0.5 2.17868 1.69295 2.17868 3.16453H3.17868ZM4.84322 4.82907C3.92392 4.82907 3.17868 4.08383 3.17868 3.16453H2.17868C2.17868 4.63612 3.37164 5.82907 4.84322 5.82907V4.82907ZM8.6863 9.72355H4.84315V10.7236H8.6863V9.72355ZM4.84315 6.11177C6.60804 6.11177 8.1863 7.86345 8.1863 10.2236H9.1863C9.1863 7.48962 7.32329 5.11177 4.84315 5.11177V6.11177ZM1.5 10.2236C1.5 7.86345 3.07827 6.11177 4.84315 6.11177V5.11177C2.36301 5.11177 0.5 7.48962 0.5 10.2236H1.5ZM4.84315 9.72355H1V10.7236H4.84315V9.72355Z" fill="white"/>
<path fill-rule="evenodd" clip-rule="evenodd" d="M11.1569 5.32907C12.3524 5.32907 13.3215 4.35997 13.3215 3.16453C13.3215 1.96909 12.3524 1 11.1569 1C9.9615 1 8.99241 1.96909 8.99241 3.16453C8.99241 4.35997 9.9615 5.32907 11.1569 5.32907ZM11.1569 10.2236H15C15 7.67653 13.2794 5.61177 11.1569 5.61177C9.03436 5.61177 7.31372 7.67653 7.31372 10.2236H11.1569Z" fill="#1E4437"/>
<path d="M15 10.2236V10.7236H15.5V10.2236H15ZM7.31372 10.2236H6.81372V10.7236H7.31372V10.2236ZM12.8215 3.16453C12.8215 4.08383 12.0762 4.82907 11.1569 4.82907V5.82907C12.6285 5.82907 13.8215 4.63612 13.8215 3.16453H12.8215ZM11.1569 1.5C12.0762 1.5 12.8215 2.24524 12.8215 3.16453H13.8215C13.8215 1.69295 12.6285 0.5 11.1569 0.5V1.5ZM9.49241 3.16453C9.49241 2.24524 10.2376 1.5 11.1569 1.5V0.5C9.68536 0.5 8.49241 1.69295 8.49241 3.16453H9.49241ZM11.1569 4.82907C10.2376 4.82907 9.49241 4.08383 9.49241 3.16453H8.49241C8.49241 4.63612 9.68536 5.82907 11.1569 5.82907V4.82907ZM15 9.72355H11.1569V10.7236H15V9.72355ZM11.1569 6.11177C12.9218 6.11177 14.5 7.86345 14.5 10.2236H15.5C15.5 7.48962 13.637 5.11177 11.1569 5.11177V6.11177ZM7.81372 10.2236C7.81372 7.86345 9.39199 6.11177 11.1569 6.11177V5.11177C8.67673 5.11177 6.81372 7.48962 6.81372 10.2236H7.81372ZM11.1569 9.72355H7.31372V10.7236H11.1569V9.72355Z" fill="white"/>
</svg>
