<svg height="12.445" viewBox="0 0 14.935 12.445" width="14.935" xmlns="http://www.w3.org/2000/svg"><path d="m5.156 0a2.845 2.845 0 1 0 2.847 2.845 2.847 2.847 0 0 0 -2.847-2.845zm0 .356a2.489 2.489 0 1 1 -2.489 2.489 2.486 2.486 0 0 1 2.489-2.489zm.322.711a.178.178 0 0 0 -.006.35 1.469 1.469 0 0 1 1.106 1.428.178.178 0 1 0 .356 0 1.821 1.821 0 0 0 -1.383-1.778.18.18 0 0 0 -.072 0zm5.722 1.245a1.956 1.956 0 1 0 1.956 1.956 1.958 1.958 0 0 0 -1.953-1.957zm0 .356a1.6 1.6 0 1 1 -1.6 1.6 1.6 1.6 0 0 1 1.603-1.601zm-6.222 4.089a5.087 5.087 0 0 0 -4.975 5.15c0 .124 0 .253.006.367a.185.185 0 0 0 .178.172h9.945a.185.185 0 0 0 .178-.172c.007-.131.006-.234.006-.361a5.247 5.247 0 0 0 -.111-1.067h4.55a.185.185 0 0 0 .178-.172c.007-.128.006-.239.006-.361a3.43 3.43 0 0 0 -3.556-3.378h-.36a3.578 3.578 0 0 0 -2.511 1.022 4.848 4.848 0 0 0 -3.178-1.2zm0 .356h.356a4.729 4.729 0 0 1 4.622 4.8c0 .066 0 .121-.006.178h-9.588c0-.061-.007-.12-.006-.178a4.729 4.729 0 0 1 4.623-4.801zm6.045.178h.356a3.06 3.06 0 0 1 3.2 3.022c0 .065-.005.119-.006.178-1.484 0-2.978 0-4.457 0a5.225 5.225 0 0 0 -1.343-2.289 3.213 3.213 0 0 1 2.25-.911z" fill="#9aabb8"/></svg>