<svg fill="none" height="13" viewBox="0 0 13 13" width="13" xmlns="http://www.w3.org/2000/svg"><g clip-rule="evenodd" fill="#9aabb8" fill-rule="evenodd"><path d="m6.50476 1.00921c-2.99587 0-5.4245 2.42863-5.4245 5.42451 0 2.99587 2.42863 5.42448 5.4245 5.42448s5.42454-2.42861 5.42454-5.42448c0-2.99588-2.42867-5.42451-5.42454-5.42451zm-6.4337151 5.42451c0-3.55325 2.8804751-6.43372 6.4337151-6.43372s6.43374 2.88047 6.43374 6.43372c0 3.55324-2.8805 6.43368-6.43374 6.43368s-6.4337151-2.88044-6.4337151-6.43368z"/><path d="m6.64501 2.68408c.27869 0 .50461.22592.50461.50461v3.80023c0 .27869-.22592.50461-.5046.50461-.27869 0-.50461-.22592-.50461-.50461v-3.80023c0-.27869.22592-.50461.5046-.50461z"/><path d="m3.95423 6.98898c0-.27869.22592-.5046.50461-.5046h2.15408c.27869 0 .50461.22591.50461.5046s-.22592.50461-.50461.50461h-2.15408c-.27869 0-.50461-.22592-.50461-.50461z"/></g></svg>