<svg fill="none" height="24" viewBox="0 0 21 24" width="21" xmlns="http://www.w3.org/2000/svg"><path d="m10.3068 1.2998c-2.94691 2.14321-4.91152 4.46503-6.16173 6.07243-1.78601 2.41111-2.85761 4.10787-3.03622 6.42967-.178596 3.3934 1.78601 5.6259 2.23251 6.0724.35721.3572 2.85762 3.1255 6.87614 3.1255 3.3041 0 6.0724-1.786 7.6798-4.1078.3572-.5358 1.5181-2.4111 1.5181-5.0008-.0893-2.5897-1.3395-4.37576-3.3041-6.87617-1.1609-1.51811-3.0362-3.66132-5.8045-5.71523z" stroke="#2d9cdb" stroke-width="2"/><path d="m5.75249 13.8916c0 .3572.1786 2.0539 1.51811 3.3041 1.1609 1.1609 2.58971 1.3395 3.0362 1.3395" fill="#2f80ed"/><path d="m5.75249 13.8916c0 .3572.1786 2.0539 1.51811 3.3041 1.1609 1.1609 2.58971 1.3395 3.0362 1.3395" stroke="#2d9cdb" stroke-linecap="round" stroke-linejoin="round" stroke-miterlimit="10" stroke-width="2"/></svg>