<svg fill="none" height="13" viewBox="0 0 17 13" width="17" xmlns="http://www.w3.org/2000/svg"><path d="m8.08728.539062 3.67192 5.411258c1.8924 2.78881-.1053 6.55858-3.47553 6.55858-3.27459 0-5.28968-3.58089-3.59024-6.37997z" fill="#9aabb8"/><path d="m6.20319 10.3501c.22976.1532.5402.0911.69337-.1387.15318-.22976.09109-.5402-.13867-.69337zm-.12265-3.76729c-.28575.381-.63715 1.01598-.74253 1.69847-.10958.70967.04863 1.52443.86518 2.06882l.5547-.83207c-.40395-.2693-.5-.64113-.4316-1.08415.07261-.4702.33146-.95401.55425-1.25107z" fill="#fff"/></svg>