<svg height="17" viewBox="0 0 32 17" width="32" xmlns="http://www.w3.org/2000/svg"><g fill="none"><g stroke="#9aabb8" stroke-width="2" transform="translate(-307.864 -411.9)"><rect height="17" rx="4" stroke="none" width="32" x="307.864" y="411.9"/><rect fill="none" height="15" rx="3" width="30" x="308.864" y="412.9"/><path d="m315.374 414.931a3.2 3.2 0 0 1 -2.939 3.251v5.813"/><path d="m2.939 0a3.2 3.2 0 0 1 -2.939 3.251" transform="matrix(0 -1 1 0 312.435 425.958)"/><g transform="matrix(-1 0 0 -1 335.646 425.958)"><path d="m2.939 0a3.2 3.2 0 0 1 -2.939 3.251v5.813"/><path d="m2.939 0a3.2 3.2 0 0 1 -2.939 3.251" transform="matrix(0 -1 1 0 0 11.027)"/></g></g><path d="m15.8 5.309a3.2 3.2 0 1 1 -3.2 3.2 3.2 3.2 0 0 1 3.2-3.2z"/><path d="m15.79602075 7.30869131c-.66401005 0-1.20422006.54021025-1.20422006 1.20422006s.54021001 1.20422006 1.20422006 1.20422006c.66401004 0 1.20422005-.54021025 1.20422005-1.20422006s-.54021001-1.20422006-1.20422005-1.20422006m0-2c1.76963973 0 3.20422005 1.43457985 3.20422005 3.20422006 0 1.76963973-1.43458032 3.20422006-3.20422005 3.20422006-1.76964021 0-3.20422006-1.43458033-3.20422006-3.20422006 0-1.76964021 1.43457985-3.20422006 3.20422006-3.20422006z" fill="#9aabb8"/></g></svg>