<svg height="22.765" viewBox="0 0 44.252 22.765" width="44.252" xmlns="http://www.w3.org/2000/svg"><g fill="#304351"><path d="m23.341-5.227h-12.417a5.181 5.181 0 0 0 -5.174 5.174v33.9a5.181 5.181 0 0 0 5.174 5.174h12.417a5.181 5.181 0 0 0 5.174-5.174v-33.9a5.18 5.18 0 0 0 -5.174-5.174zm3.105 39.077a3.109 3.109 0 0 1 -3.105 3.105h-12.417a3.109 3.109 0 0 1 -3.105-3.105v-33.903a3.109 3.109 0 0 1 3.105-3.105h12.417a3.109 3.109 0 0 1 3.105 3.105z" transform="matrix(0 -1 1 0 5.227 28.515)"/><path d="m24.208 9.349h-17.14a1.034 1.034 0 0 0 0 2.069h17.14a1.034 1.034 0 1 0 0-2.069z"/><path d="m24.208 6.349h-17.14a1.034 1.034 0 0 0 0 2.069h17.14a1.034 1.034 0 1 0 0-2.069z"/><path d="m38.208 9.349h-6.14a1.034 1.034 0 0 0 0 2.069h6.14a1.034 1.034 0 1 0 0-2.069z"/><path d="m38.208 6.349h-6.14a1.034 1.034 0 0 0 0 2.069h6.14a1.034 1.034 0 1 0 0-2.069z"/></g><rect fill="#02d06c" height="5" rx="2.5" width="20" x="6" y="13.509"/></svg>