<svg width="28" height="28" viewBox="0 0 28 28" fill="none" xmlns="http://www.w3.org/2000/svg">
<path d="M13.125 6.99999V23.2283C13.125 24.0567 12.285 24.6283 11.5267 24.3133C9.35668 23.4033 6.66168 22.61 4.74834 22.3533L4.38668 22.3067C3.25501 22.1667 2.33334 21.1283 2.33334 19.9967V6.12499C2.33334 4.72499 3.46501 3.59332 4.86501 3.59332H4.94668C7.14001 3.77999 10.3717 4.80666 12.5067 5.96166C12.8917 6.17166 13.125 6.55666 13.125 6.99999Z" fill="#292D32" fill-opacity="0.3"/>
<path d="M23.135 3.59332H23.065C22.785 3.61666 22.4817 3.65166 22.1667 3.70999C20.7317 3.94332 19.0283 4.43332 17.5 5.03999C16.7767 5.33166 16.1 5.64666 15.505 5.96166C15.12 6.17166 14.875 6.56832 14.875 6.99999V23.2283C14.875 24.0567 15.715 24.6283 16.4733 24.3133C18.6433 23.4033 21.3383 22.61 23.2517 22.3533L23.6133 22.3067C24.745 22.1667 25.6667 21.1283 25.6667 19.9967V6.12499C25.6667 4.72499 24.535 3.59332 23.135 3.59332ZM22.4817 16.0183C22.4817 16.4733 22.155 16.6717 21.7583 16.45L20.5217 15.7617C20.3933 15.6917 20.1833 15.6917 20.0433 15.7617L18.8067 16.45C18.41 16.6717 18.0833 16.4733 18.0833 16.0183V12.4367C18.0833 11.9 18.5267 11.4567 19.0633 11.4567H21.5133C22.05 11.4567 22.4933 11.9 22.4933 12.4367V16.0183H22.4817Z" fill="#292D32" fill-opacity="0.3"/>
</svg>
