<svg height="37.252" viewBox="0 0 31.833 37.252" width="31.833" xmlns="http://www.w3.org/2000/svg"><g fill="#304351"><path d="m17.591 0h-12.417a5.181 5.181 0 0 0 -5.174 5.174v26.9a5.181 5.181 0 0 0 5.174 5.174h12.417a5.181 5.181 0 0 0 5.174-5.174v-26.9a5.18 5.18 0 0 0 -5.174-5.174zm3.105 32.077a3.109 3.109 0 0 1 -3.105 3.105h-12.417a3.109 3.109 0 0 1 -3.105-3.105v-26.903a3.109 3.109 0 0 1 3.105-3.105h12.417a3.109 3.109 0 0 1 3.105 3.105z"/><circle cx="11.383" cy="32.077" r="2.069"/><path d="m13.451 3.103h-4.14a1.034 1.034 0 0 0 0 2.069h4.14a1.034 1.034 0 1 0 0-2.069z"/></g><rect fill="#02d06c" height="13" rx="4" width="20" x="11.833" y="11.753"/><path d="m31.833 17.253h-20" fill="none" stroke="#304351" stroke-width="3"/></svg>