<svg height="26" viewBox="0 0 25.916 26" width="25.916" xmlns="http://www.w3.org/2000/svg"><g fill="none"><g stroke="#304351" stroke-width="2"><rect height="26" rx="5" stroke="none" width="24"/><rect fill="none" height="24" rx="4" width="22" x="1" y="1"/><g stroke-linecap="round" stroke-linejoin="round"><path d="m21.035 6.779h3.881"/><path d="m21.035 11.075h3.881"/><path d="m21.035 15.371h3.881"/><path d="m21.035 19.667h3.881"/></g><circle cx="11.659" cy="7.603" r="3.448" stroke="none"/><circle cx="11.659" cy="7.603" fill="none" r="2.448"/></g><path d="m11.659 11.817a6.513 6.513 0 0 1 6.513 6.513c0 3.6-13.026 3.6-13.026 0a6.513 6.513 0 0 1 6.513-6.513z"/><path d="m11.65923652 13.81699905c-2.41737222 0-4.39695215 1.91047334-4.50830316 4.3008008.1721096.12826013.57538604.34939336 1.3187828.54476928.8969307.23572016 2.02966023.36554003 3.18952036.36554003 1.15986014 0 2.29258967-.12981987 3.18952036-.36554003.74339676-.19537592 1.1466732-.41650915 1.31878281-.54476928-.11135102-2.39032746-2.09093094-4.3008008-4.50830317-4.3008008m0-2c3.59715987 0 6.51324034 2.91607999 6.51324034 6.51323986 0 1.79858017-3.25662041 2.69787025-6.51324034 2.69787025s-6.51324033-.89929008-6.51324033-2.69787025c0-3.59715987 2.91608047-6.51323986 6.51324033-6.51323986z" fill="#304351"/></g></svg>