<svg fill="none" height="26" viewBox="0 0 26 26" width="26" xmlns="http://www.w3.org/2000/svg"><path d="m1.70163 12.2429-.07075 1.2383 1.22509-.1934c1.96593-.3105 3.88546-.8491 5.49482-2.2285l.02916-.025.02716-.0272c.29987-.2999.6094-.533.95863-.796.1705-.1284.35046-.26389.54337-.41779 1.03649-.76292 1.90229-1.06831 2.67839-1.06831.7753 0 1.6157.30484 2.6011 1.06628l.0148.01151.0154.01094c.4303.30737.7922.63287 1.2107 1.00947.2185.1965.4525.407.7197.6361l.0201.0172.021.0161c1.5066 1.1589 3.3185 1.5891 5.0359 1.8922l1.2752.225-.1047-1.2906c-.3225-3.9783-2.0739-7.10523-5.5082-8.99178-3.8233-2.1816-7.8214-2.06783-11.53175.33301l-.0096.00621-.00946.00643c-2.7741 1.88639-4.41952 4.78046-4.63606 8.56983zm14.39547.5338.0029-.0383v-.0384c0-1.9523-1.5477-3.5-3.5-3.5-1.9908 0-3.36243 1.5733-3.49705 3.3233l-.00569.074.00529.0739c.13075 1.8306 1.48465 3.4288 3.49745 3.4288 1.9908 0 3.3624-1.5733 3.4971-3.3233zm6.2182 4.926.6172-1.4027h-1.5325c-1.6861 0-3.4899.7946-4.9266 1.8419-1.4286 1.0414-2.6968 2.4813-3.1334 3.9781l-.3733 1.28h1.3333c1.4566 0 3.1644-.7886 4.5805-1.7983 1.4333-1.0218 2.7863-2.4252 3.4348-3.899zm-11.2287 5.5935 1.1969-.104-.3195-1.1581c-.4951-1.7947-2.03443-3.2926-3.54453-4.2729-.77476-.5029-1.59375-.9044-2.36-1.1621-.7395-.2488-1.53639-.4001-2.22387-.2855l-1.22549.2042.46141 1.1536c.59515 1.4878 1.92929 2.9254 3.35687 3.9528 1.40252 1.0093 3.14848 1.8033 4.65821 1.672zm1.5134-22.2962c6.4427 0 11.604 5.14892 11.7 11.6072-.0038 6.4393-5.1513 11.5969-11.6072 11.6928-6.43933-.0038-11.59682-5.1513-11.6928-11.6071.00381-6.45481 5.16494-11.6929 11.6-11.6929z" stroke="#009060" stroke-width="2"/></svg>