<svg fill="none" height="13" viewBox="0 0 11 13" width="11" xmlns="http://www.w3.org/2000/svg"><path d="m2.04712 2.1479c0-.80314 2.24917-1.621716 3.37375-1.930615 1.12459.308899 3.37374 1.127475 3.37374 1.930615s.85104 1.31282 1.27659 1.46727c-.2128.38612-.63831 1.49816-.63831 2.85731 0 1.69894.63831 2.78008 0 3.47511-.63828.69501-3.28256 1.54451-4.01202 2.23951-.72946-.695-3.37375-1.5445-4.01202-2.23951-.638281-.69503 0-1.77617 0-3.47511 0-1.35915-.425522-2.47119-.638281-2.85731.425521-.15445 1.276551-.66413 1.276551-1.46727z" fill="#9aabb8"/><path d="m2.64583 7.3916 2.62745 2.03416 2.88173-2.03416" stroke="#fff" stroke-linecap="round" stroke-linejoin="round"/></svg>