<svg fill="none" height="30" viewBox="0 0 17 30" width="17" xmlns="http://www.w3.org/2000/svg"><path d="m2.03472 15.5951.70711-.7071-.70711.7071c.43704.437 1.04563.5754 1.42959.6497.15608.0302.32215.0569.4792.0816.00231.6106.00667 1.2158.01101 1.8167.01861 2.5782.03665 5.0767-.11097 7.5862l-.00172.0293v.0294c0 .5753.14945 1.1232.55796 1.5589.3757.4008.86464.5876 1.26732.7026.02851.0082.05947.0172.09225.0267.13504.0393.30092.0875.45405.1219.19977.0448.45871.0867.74395.0608.67395-.0613 1.16848-.4602 1.53014-1.0372.7829-1.2302 1.5858-2.4696 2.3946-3.7183 1.3416-2.071 2.6996-4.1675 4.0105-6.2899l.0236-.0382.0201-.0401c.1823-.3646.2501-.7634.2668-1.0973.0159-.3182-.0114-.6439-.0768-.9323-.0769-.5395-.2785-1.0149-.646-1.3793-.3711-.3679-.8146-.5255-1.1789-.6036-.2991-.0641-.6169-.0874-.8596-.104v-.0007-.0194-.0193-.0193-.0194-.0193-.0193-.0194-.0193-.0193-.0193-.0194-.0193-.0193-.0194-.0193-.0193-.0193-.0194-.0193-.0193-.0194-.0193-.0193-.0193-.0194-.0193-.0193-.0193-.0194-.0193-.0193-.0193-.0193-.0194-.0193-.0193-.0193-.0194-.0193-.0193-.0193-.0193-.0194-.0193-.0193-.0193-.0193-.0193-.0194-.0193-.0193-.0193-.0193-.0193-.0193-.0194-.0193-.0193-.0193-.0193-.0193-.0193-.0193-.0193-.0194-.0193-.0193-.0193-.0193-.0193-.0193-.0193-.0193-.0193-.0193-.0193-.0193-.0193-.0193-.0193-.0193-.0193-.0193-.0193-.0193-.0193-.0193-.0193-.0193-.0193-.0193-.0193-.0193-.0193-.0193-.0193-.0193-.0193-.0192-.0193-.0193-.0193-.0193-.0193-.0193-.0193-.0192-.0193-.0193-.0193-.0193-.0193-.0192-.0193-.0193-.0193-.0193-.0192-.0193-.0193-.0193-.0192-.0193-.0193-.0192-.0193-.0193-.0193-.0192-.0193-.0193-.0192-.0193-.0193-.0192-.0193-.0192-.0193-.0193-.0192-.0193-.0192-.0193-.0193-.0192-.0193-.0192-.0193-.0192-.0193-.0192-.0193-.0192-.0193-.0192-.0193-.01922-.01924-.01924-.01925-.01924-.01924-.01924-.01924-.01923-.01924-.01924-.01923-.01924-.01923-.01923-.01923-.01923-.01923-.01923-.01923-.01922-.01923-.01922-.01923-.01922-.01922-.01922-.01922-.01922-.01922-.01921-.01922-.01921-.01921-.01922-.01921-.01921-.01921-.0192-.01921-.01921-.0192-.0192-.01921-.0192-.0192-.0192-.01919-.0192-.0192-.01919-.01919-.0192-.01919-.01919-.01919-.01918-.01919-.01919-.01918-.01918-.01919-.01918-.01918-.01917-.01918-.01918-.01917-.01918-.01917-.01917-.01917-.01917-.01917-.01916-.01917-.01916-.01916-.01917-.01916-.01915-.01916-.01916-.01915-.01916-.01915-.01915-.01915-.01915-.01915-.01914-.01915-.01914-.01914-.01914-.01914-.01914-.01914-.01913-.01914-.01913-.01913-.01913-.01913-.01913-.01912-.01913-.01912-.01912-.01912-.01912-.01912-.01912-.01911-.01912-.01911-.01911-.01911-.0191-.01911-.01911-.0191-.0191-.0191-.0191-.0191-.0191-.01909-.01909-.0191-.01909-.01908-.01909-.01909-.01908-.01908-.01909-.01908-.01907-.01908-.01908-.01907-.01907-.01907-.01907-.01907-.01907-.01906-.01906-.01906-.01906-.01906-.01906-.01905-.01906-.01905-.01905-.01905-.01905-.01904-.01904-.01905-.01904-.01904-.01903-.01904-.01903-.01904-.01903-.01903-.01902-.01903-.01902-.01903-.01902-.01902-.01901-.01902-.01901-.01902-.01901-.019-.01901-.01901-.019-.019-.019-.019-.019-.01899-.019-.01899-.01899-.01899-.01898-.01899-.01898-.01898-.01898-.01898-.01897-.01898-.01897-.01897-.01897-.01897-.01896-.01896-.01896-.01896-.01896-.01896-.01895-.01895-.01895-.01895-.01895-.01894-.01894-.01894-.01894-.01894-.01894-.01893-.01893-.01893-.01893-.01892-.01893-.01892-.01892-.01891-.01892-.01891-.01892-.01891-.0189-.01891-.01891-.0189-.0189-.0189-.01889-.0189-.01889-.01889-.01889-.01888-.01889-.01888-.01888-.01888-.01888-.01887-.01887-.01887-.01887-.01887-.01886-.01886-.01886-.01886-.01886-.01885-.01885-.01885-.01885-.01884-.01885-.01884-.01884-.01883-.01884-.01883-.01883-.01883-.01883-.01882-.01882-.01882-.01882-.01882-.01881-.01881-.01881-.01881-.0188-.0188-.0188-.0188-.0188-.01879-.01879-.01879-.01879-.01878-.01879-.01878-.01878-.01877-.01878-.01877-.01877-.01876-.01877-.01876-.01876-.01876-.01876-.01875-.01875c0-.04693.0005-.09957.0009-.15576.0014-.16329.003-.35663-.0051-.52737-.0116-.24548-.0446-.54556-.158-.85168-.2604-.70304-.8276-1.14923-1.6215-1.41387l-.0264-.00878-.0268-.0073c-.72836-.19866-1.41215-.17444-2.01807.20426-.52034.32522-.85303.84665-1.08917 1.22438-.63685.9872-1.24854 1.95614-1.8529 2.91346-1.31282 2.07954-2.59103 4.10428-4.01735 6.14236-.53016.7325-.728314 1.5069-.5797 2.2712.14082.7242.56606 1.2953.98701 1.7162zm6.37287 3.3851c-.01346-.9685-.0188-1.9246.01451-2.8904.06613.1023.13977.2015.22139.2971.26585.3117.58805.5529.9489.7388-.40256.6213-.79728 1.2425-1.1848 1.8545zm-.57153-5.9157c-.28219-.4031-.64599-.7188-1.07386-.9617.41127-.627.81411-1.2535 1.21228-1.8963.01377 1.0217.02082 2.0292-.00774 3.0612-.04058-.0689-.08409-.1366-.13068-.2032z" stroke="#f2c94c" stroke-width="2"/></svg>