<svg fill="none" height="23" viewBox="0 0 23 23" width="23" xmlns="http://www.w3.org/2000/svg"><g fill="#304351"><path d="m16.3192 22.4008h-10.23752c-3.34493 0-6.08168-2.7367-6.08168-6.0816v-10.23752c0-3.34493 2.73675-6.08168 6.08168-6.08168h10.23752c3.3449 0 6.0816 2.73675 6.0816 6.08168v10.23752c0 3.3449-2.7367 6.0816-6.0816 6.0816zm-10.23752-20.37357c-2.22995 0-4.05445 1.8245-4.05445 4.05445v10.23752c0 2.2299 1.8245 4.0544 4.05445 4.0544h10.23752c2.2299 0 4.0544-1.8245 4.0544-4.0544v-10.23752c0-2.22995-1.8245-4.05445-4.0544-4.05445z"/><path d="m11.1497 17.0287c-3.24354 0-5.77757-2.6354-5.77757-5.7776 0-3.24356 2.63539-5.7776 5.77757-5.7776 3.1422 0 5.7776 2.6354 5.7776 5.7776.1014 3.1422-2.534 5.7776-5.7776 5.7776zm0-9.62933c-2.12856 0-3.75034 1.72314-3.75034 3.75033 0 2.0273 1.72314 3.7504 3.75034 3.7504s3.7504-1.7231 3.7504-3.7504c0-2.02719-1.6218-3.75033-3.7504-3.75033z"/><path d="m17.9916 6.89255c.6998 0 1.267-.56726 1.267-1.26701 0-.69976-.5672-1.26702-1.267-1.26702-.6997 0-1.267.56726-1.267 1.26702 0 .69975.5673 1.26701 1.267 1.26701z"/></g></svg>