<svg height="20" viewBox="0 0 33 20" width="33" xmlns="http://www.w3.org/2000/svg"><g fill="none"><path d="m28 20h-23a5.006 5.006 0 0 1 -5-5v-2.07a2.748 2.748 0 0 0 .615.07 2.563 2.563 0 0 0 2.617-2.5 2.564 2.564 0 0 0 -2.617-2.5 2.757 2.757 0 0 0 -.615.069v-3.069a5.006 5.006 0 0 1 5-5h23a5.006 5.006 0 0 1 5 5v3.07a2.735 2.735 0 0 0 -.617-.07 2.564 2.564 0 0 0 -2.617 2.5 2.563 2.563 0 0 0 2.617 2.5 2.755 2.755 0 0 0 .617-.07v2.07a5.006 5.006 0 0 1 -5 5z"/><path d="m28.00097656 18.00048828c1.65429688 0 3-1.34570312 3-3v-.20654297c-1.87207031-.57421875-3.23388672-2.28173828-3.23388672-4.29345703 0-2.01220703 1.36181641-3.71972656 3.23388672-4.29443359v-1.20605469c0-1.65429688-1.34570312-3-3-3h-23.00048828c-1.65429687 0-3 1.34570312-3 3v1.20654297c1.87158203.57470703 3.23242188 2.28222656 3.23242188 4.29394531 0 2.01123047-1.36083985 3.71826172-3.23242188 4.29296875v.20703125c0 1.65429688 1.34570313 3 3 3zm0 2h-23.00048828c-2.75683594 0-5-2.24316406-5-5v-2.0703125c.19970703.04589844.40625.06982422.61523438.06982422 1.44287109 0 2.6171875-1.12109375 2.6171875-2.49951172 0-1.37890625-1.17431641-2.50048828-2.6171875-2.50048828-.20800782 0-.41503907.0234375-.61523438.06933594v-3.06933594c0-2.75683594 2.24316406-5 5-5h23.00048828c2.75683594 0 5 2.24316406 5 5v3.06982422c-.19824219-.04589844-.40527344-.06982422-.61669922-.06982422-1.44287109 0-2.6171875 1.12158203-2.6171875 2.50048828 0 1.37841797 1.17431641 2.49951172 2.6171875 2.49951172.20751953 0 .41503907-.0234375.61669922-.06982422v2.0703125c0 2.75683594-2.24316406 5-5 5z" fill="#304351"/><path d="m22.216 1.392v16.579" stroke="#304351" stroke-dasharray="3" stroke-linecap="round" stroke-width="2"/></g></svg>