<svg width="28" height="28" viewBox="0 0 28 28" fill="none" xmlns="http://www.w3.org/2000/svg">
<path d="M14 2.33334C10.9433 2.33334 8.45831 4.81834 8.45831 7.87501C8.45831 10.8733 10.8033 13.3 13.86 13.405C13.9533 13.3933 14.0466 13.3933 14.1166 13.405C14.14 13.405 14.1516 13.405 14.175 13.405C14.1866 13.405 14.1866 13.405 14.1983 13.405C17.185 13.3 19.53 10.8733 19.5416 7.87501C19.5416 4.81834 17.0566 2.33334 14 2.33334Z" fill="#292D32" fill-opacity="0.3"/>
<path d="M19.9267 16.5083C16.6717 14.3383 11.3633 14.3383 8.08501 16.5083C6.60335 17.5 5.78668 18.8417 5.78668 20.2767C5.78668 21.7117 6.60335 23.0417 8.07335 24.0217C9.70668 25.1183 11.8533 25.6667 14 25.6667C16.1467 25.6667 18.2933 25.1183 19.9267 24.0217C21.3967 23.03 22.2133 21.7 22.2133 20.2533C22.2017 18.8183 21.3967 17.4883 19.9267 16.5083Z" fill="#292D32" fill-opacity="0.3"/>
</svg>
