<svg height="24" viewBox="0 0 24 24" width="24" xmlns="http://www.w3.org/2000/svg"><g fill="none" fill-rule="evenodd"><path d="m0 0h24v24h-24z"/><path d="m2.19 16.875.911-2.708h3.612l.912 2.708h1.19l-3.35-9.463h-1.117l-3.348 9.463zm4.19-3.711h-2.946l1.423-4.224h.1l1.422 4.224zm5.71 3.836c.938 0 1.743-.466 2.17-1.252h.101v1.127h1.033v-9.875h-1.083v3.92h-.095c-.383-.773-1.182-1.239-2.126-1.239-1.724 0-2.85 1.443-2.85 3.66 0 2.223 1.114 3.659 2.85 3.659zm.252-1.017c-1.24 0-1.982-.99-1.982-2.642 0-1.646.749-2.643 1.982-2.643 1.226 0 1.994 1.023 1.994 2.643 0 1.633-.76 2.642-1.994 2.642zm7.355 1.017c.937 0 1.743-.466 2.17-1.252h.101v1.127h1.032v-9.875h-1.082v3.92h-.094c-.385-.773-1.183-1.239-2.127-1.239-1.724 0-2.85 1.443-2.85 3.66 0 2.223 1.114 3.659 2.85 3.659zm.251-1.017c-1.239 0-1.982-.99-1.982-2.642 0-1.646.75-2.643 1.982-2.643 1.228 0 1.995 1.023 1.995 2.643 0 1.633-.761 2.642-1.994 2.642z" fill="#007aff" fill-rule="nonzero"/></g></svg>