<svg fill="none" height="22" viewBox="0 0 23 22" width="23" xmlns="http://www.w3.org/2000/svg"><path d="m15.4 21.025c-.7 0-1.3-.2-1.9-.5l-.6-.4c-.3-.2-.6-.2-1-.2h-.6c-.4 0-.7.1-1 .2l-.6.4c-1.2.7-2.6.7-3.8 0s-1.9-1.9-1.9-3.3v-.7c0-.4-.1-.7-.3-1 0 0-.1-.1-.1-.2l-.1-.1c-.1-.1-.1-.2-.2-.3-.1-.2-.4-.5-.7-.7l-.7-.4c-1.2-.7-1.9-1.9-1.9-3.3s.7-2.6 1.9-3.3l.6-.4c.3-.2.5-.39999.7-.69999l.3-.60001c.2-.3.3-.6.3-1v-.7c0-1.4.7-2.6 1.9-3.3s2.6-.7 3.8 0l.6.399994c.3.199996.6.200016 1 .200016h.6c.4 0 .7-.10002 1-.200016l.6-.399994c1.2-.7 2.6-.7 3.8 0s1.9 1.9 1.9 3.3v.7c0 .4.1.7.3 1 0 0 .1.1.1.2l-.8.6.8-.5c.1.1.1.20001.1.30001.2.3.4.59999.7.69999l.6.4c1.2.7 1.9 1.9 1.9 3.3s-.7 2.6-1.9 3.3l-.6.4c-.3.2-.5.4-.7.7l-.3.6c-.2.3-.3.6-.3 1v.7c0 1.4-.7 2.6-1.9 3.3-.3.3-1 .5-1.6.5zm-3.4-3.1c.7 0 1.3.2 1.9.5l.6.3c.6.3 1.2.3 1.8 0s.9-.9.9-1.6v-.7c0-.7.2-1.4.6-2l.3-.5c.3-.6.8-1.1 1.4-1.5l.6-.4c.6-.3.9-.9.9-1.6 0-.70001-.3-1.3-.9-1.6l-.6-.40001c-.6-.4-1.1-.89999-1.5-1.59999l-.2-.3c-.4-.7-.6-1.40001-.6-2.10001v-.69999c0-.7-.3-1.29999-.9-1.59999s-1.2-.3-1.8 0l-.6.39999c-.6.4-1.3.5-2.1.5h-.6c-.7 0-1.4-.2-2-.5l-.6-.3c-.6-.3-1.2-.3-1.8 0s-.9.9-.9 1.6v.7c0 .7-.2 1.4-.6 2l-.3.5c-.3.6-.8 1.1-1.4 1.5l-.7.39999c-.6.3-.9.90001-.9 1.60001s.3 1.3.9 1.6l.6.4c.6.4 1.1.9 1.5 1.6l.2.3c.4.7.6 1.4.6 2.1v.7c0 .7.3 1.3.9 1.6s1.2.3 1.8 0l.6-.4c.6-.4 1.3-.5 2.1-.5h.6zm-.5-2.5c-.4 0-.9-.1-1.3-.2-1.3-.3-2.3-1.1-2.9-2.3-1.3-2.3-.5-5.3 1.8-6.7 1.1-.6 2.4-.8 3.7-.5s2.3 1.1 2.9 2.3c1.3 2.3.5 5.3-1.8 6.6-.7.6-1.5.8-2.4.8zm0-7.79999c-.5 0-1 .09999-1.4.39999-1.4.8-1.8 2.5-1 3.9.4.7 1 1.1 1.7 1.3s1.5.1 2.2-.3c1.4-.8 1.8-2.6 1.1-3.9-.4-.7-1-1.1-1.7-1.3-.4 0-.6-.09999-.9-.09999z" fill="#304351"/></svg>