<svg width="26" height="25" viewBox="0 0 26 25" fill="none" xmlns="http://www.w3.org/2000/svg">
<path fill-rule="evenodd" clip-rule="evenodd" d="M10.7478 2.48012C8.34474 0.486062 5.01533 2.40829 5.54069 5.48647C5.80949 7.06141 5.01351 8.55234 3.6155 9.09249C0.883136 10.1482 1.01338 14.2183 3.8192 15.458C5.25479 16.0923 6.14798 17.6394 5.97951 19.1998C5.65025 22.2496 9.10989 24.3974 11.3904 22.5589C12.5571 21.6183 14.2463 21.6744 15.4759 22.6947C17.879 24.6887 21.2084 22.7665 20.683 19.6883C20.4142 18.1134 21.2102 16.6225 22.6082 16.0823C25.3406 15.0266 25.2103 10.9565 22.4045 9.7168C20.9689 9.08249 20.0757 7.53544 20.2442 5.97503C20.5735 2.92525 17.1138 0.777434 14.8333 2.61587C13.6665 3.5565 11.9774 3.50038 10.7478 2.48012ZM15.557 16.8224C17.7262 15.57 18.4321 12.7316 17.1336 10.4826C15.8352 8.23365 13.0241 7.42577 10.8549 8.67817C8.68565 9.93057 7.97975 12.769 9.27819 15.018C10.5766 17.2669 13.3877 18.0748 15.557 16.8224Z" stroke="black" stroke-width="2.5"/>
</svg>
