<svg fill="none" height="25" viewBox="0 0 24 25" width="24" xmlns="http://www.w3.org/2000/svg" xmlns:xlink="http://www.w3.org/1999/xlink"><mask id="a" fill="#fff"><path d="m12.41 1.36491c-.3961 0-.7921-.00001-1.1882.09901-.3961 0-.6931.09901-1.0892.19803h-.19803c-2.07935.49508-3.96067 1.58427-5.44591 3.16854-.09902.09902-.29705.29705-.39607.49508-1.88132 2.27738-2.87148 5.14883-2.77247 8.21833.19804 2.9705 1.38624 5.842 3.5646 7.8224 2.17837 1.9803 4.85182 3.1685 7.82228 3.0695 2.8715-.0991 5.644-1.2873 7.6243-3.4656.099-.099.2971-.2971.3961-.4951 1.3862-1.6833 2.2774-3.7626 2.5744-5.941.2971-2.1784 0-4.4557-.8911-6.43608-.8912-1.98033-2.2774-3.76263-4.0597-4.95082-1.6833-1.1882-3.7627-1.78229-5.941-1.78229zm-7.32725 4.05967c.09902-.09902.09902-.09901.19804-.19803l.19803-.19803c.09902-.09902.09902-.09901.19803-.19803.09902-.09902.09902-.09903.19804-.19805.09901-.09901.09901-.09901.19803-.19803.09902-.09901.09902-.09901.19803-.19803.09902-.09901.09902-.09901.19804-.19803.09901 0 .19803-.09901.19803-.19803.09902-.09901.09902-.09902.19803-.09902.09902 0 .19804-.09901.19804-.19803.09901 0 .09901-.09902.19803-.09902s.19803-.09901.19803-.09901l.19804-.09902c.09901 0 .19803-.09902.29705-.09902.09901 0 .19803-.09901.19803-.09901l.29705-.09902c.09902 0 .19803-.09901.19803-.09901.09902 0 .19804-.09903.29705-.09903.09902 0 .19804-.09902.19804-.09902.09901 0 .19803-.09901.29704-.09901.09902 0 .19804 0 .19804-.09902h.09902c-1.08919 1.08918-1.88132 2.47542-2.3764 3.96067-.69312-.19804-1.58427-.5941-2.27739-.99017zm-.59409.59411c.89114.49508 1.78229.89114 2.77246 1.18819-.49508 1.68328-.69312 3.46562-.79213 5.34692h-4.35673c.09901-2.4754.99016-4.75282 2.3764-6.53511zm0 13.66431c-1.48525-1.7823-2.27739-4.0597-2.3764-6.4361h4.45574c0 1.7823.29705 3.5646.69312 5.3469-.89115.198-1.88132.5941-2.77246 1.0892zm5.24788 3.5646c-.09902 0-.19804 0-.19804-.099-.09901 0-.19803-.0991-.29705-.0991-.09901 0-.19803-.099-.19803-.099s-.19803-.099-.29705-.099-.19803-.099-.19803-.099l-.29705-.099c-.09902 0-.19804-.099-.19804-.099l-.29705-.0991c-.09901 0-.09901-.099-.19803-.099s-.19803-.099-.29705-.099c-.09902-.099-.09902-.099-.19803-.099-.09902 0-.19804-.099-.19804-.1981-.09901 0-.09901-.099-.19803-.099s-.19803-.099-.19803-.198c-.09902-.099-.09902-.099-.19804-.198-.09901-.0991-.19803-.099-.19803-.1981-.09902-.099-.09902-.099-.19803-.198-.09902-.099-.09902-.099-.19804-.198-.09901-.099-.09901-.099-.19803-.1981-.09902-.099-.09901-.099-.19803-.198s-.09902-.099-.19804-.198c.79214-.3961 1.68329-.7922 2.47542-.9902.39607 1.4853 1.1882 2.8715 2.17837 3.9607zm2.37636.297c-1.5842-.198-2.97046-1.9803-3.86161-4.4557 1.28721-.2971 2.57441-.4951 3.86161-.4951zm0-5.6439c-1.3862 0-2.67341.198-4.05965.4951-.49508-1.6833-.69311-3.3666-.69311-5.1489h4.75276zm0-5.4459h-4.85178c0-1.7823.29705-3.46561.69312-5.1489 1.28721.29705 2.67346.49509 4.05966.49509zm0-5.34694c-1.2872 0-2.5744-.19803-3.86161-.49508.89115-2.57444 2.27741-4.25772 3.86161-4.45575zm8.2184-1.08917c1.4853 1.78229 2.2774 4.05971 2.3764 6.43611h-4.4557c0-1.7823-.2971-3.56464-.7922-5.34694 1.0892-.19803 1.9804-.59409 2.8715-1.08917zm-5.2479-3.56461c.099 0 .1981.00001.1981.09902.099 0 .198.09901.297.09901s.198.09902.198.09902c.0991 0 .1981.09903.2971.09903s.198.09901.198.09901l.2971.09902c.099 0 .198.09901.198.09901l.2971.09902c.099 0 .099.09902.198.09902s.198.09901.297.09901c.0991 0 .0991.09902.1981.09902s.198.09901.198.19803c.099 0 .099.09902.198.09902.0991 0 .1981.09902.1981.19803.099.09902.099.09902.198.19803.099.09902.198.09902.198.19803.0991.09902.0991.09902.1981.19803.099.09902.099.09903.198.19805s.099.09901.198.19803c.0991.09902.0991.09901.1981.19803s.099.09901.198.19803c-.7921.39607-1.6833.79213-2.4754.99017-.3961-1.48525-1.1882-2.87149-2.1784-3.96067zm-2.2774-.29705c1.5843.19803 2.9705 1.98033 3.8617 4.45575-1.2872.29705-2.5744.49508-3.8617.49508zm0 5.74296c1.3863 0 2.7725-.19803 4.0597-.49508.4951 1.68328.6931 3.36659.6931 5.14889h-4.7528zm0 5.34691h4.7528c0 1.7823-.297 3.4656-.6931 5.1489-1.2872-.2971-2.6734-.4951-4.0597-.4951zm0 10.2977v-4.9508c1.2873 0 2.5745.198 3.8617.4951-.8912 2.5744-2.2774 4.2577-3.8617 4.4557zm7.0302-3.1685c-.099.099-.099.099-.198.198s-.099.099-.198.1981c-.0991.099-.0991.099-.1981.198s-.099.099-.198.198-.099.099-.198.1981c-.0991.099-.0991.099-.1981.198s-.099.099-.198.198c-.099 0-.198.099-.198.198-.0991.0991-.0991.0991-.1981.0991s-.198.099-.198.198l-.198.099c-.0991 0-.1981.099-.1981.099l-.198.0991c-.099 0-.198.099-.2971.099-.099 0-.198.099-.198.099l-.297.099c-.0991 0-.1981.099-.1981.099-.099 0-.198.099-.297.099s-.1981.0991-.1981.0991c-.099 0-.198.099-.297.099s-.198 0-.198.099h-.0991c1.0892-1.0892 1.8814-2.4754 2.3764-3.9607.6932.1981 1.4853.4951 2.2774.9902zm.4951-.6931c-.8911-.4951-1.7823-.8912-2.7725-1.1882.4951-1.6833.6932-3.5646.7922-5.3469h4.4557c-.198 2.4754-.9901 4.7528-2.4754 6.5351z" fill="#fff"/></mask><path d="m12.41 1.36491c-.3961 0-.7921-.00001-1.1882.09901-.3961 0-.6931.09901-1.0892.19803h-.19803c-2.07935.49508-3.96067 1.58427-5.44591 3.16854-.09902.09902-.29705.29705-.39607.49508-1.88132 2.27738-2.87148 5.14883-2.77247 8.21833.19804 2.9705 1.38624 5.842 3.5646 7.8224 2.17837 1.9803 4.85182 3.1685 7.82228 3.0695 2.8715-.0991 5.644-1.2873 7.6243-3.4656.099-.099.2971-.2971.3961-.4951 1.3862-1.6833 2.2774-3.7626 2.5744-5.941.2971-2.1784 0-4.4557-.8911-6.43608-.8912-1.98033-2.2774-3.76263-4.0597-4.95082-1.6833-1.1882-3.7627-1.78229-5.941-1.78229zm-7.32725 4.05967c.09902-.09902.09902-.09901.19804-.19803l.19803-.19803c.09902-.09902.09902-.09901.19803-.19803.09902-.09902.09902-.09903.19804-.19805.09901-.09901.09901-.09901.19803-.19803.09902-.09901.09902-.09901.19803-.19803.09902-.09901.09902-.09901.19804-.19803.09901 0 .19803-.09901.19803-.19803.09902-.09901.09902-.09902.19803-.09902.09902 0 .19804-.09901.19804-.19803.09901 0 .09901-.09902.19803-.09902s.19803-.09901.19803-.09901l.19804-.09902c.09901 0 .19803-.09902.29705-.09902.09901 0 .19803-.09901.19803-.09901l.29705-.09902c.09902 0 .19803-.09901.19803-.09901.09902 0 .19804-.09903.29705-.09903.09902 0 .19804-.09902.19804-.09902.09901 0 .19803-.09901.29704-.09901.09902 0 .19804 0 .19804-.09902h.09902c-1.08919 1.08918-1.88132 2.47542-2.3764 3.96067-.69312-.19804-1.58427-.5941-2.27739-.99017zm-.59409.59411c.89114.49508 1.78229.89114 2.77246 1.18819-.49508 1.68328-.69312 3.46562-.79213 5.34692h-4.35673c.09901-2.4754.99016-4.75282 2.3764-6.53511zm0 13.66431c-1.48525-1.7823-2.27739-4.0597-2.3764-6.4361h4.45574c0 1.7823.29705 3.5646.69312 5.3469-.89115.198-1.88132.5941-2.77246 1.0892zm5.24788 3.5646c-.09902 0-.19804 0-.19804-.099-.09901 0-.19803-.0991-.29705-.0991-.09901 0-.19803-.099-.19803-.099s-.19803-.099-.29705-.099-.19803-.099-.19803-.099l-.29705-.099c-.09902 0-.19804-.099-.19804-.099l-.29705-.0991c-.09901 0-.09901-.099-.19803-.099s-.19803-.099-.29705-.099c-.09902-.099-.09902-.099-.19803-.099-.09902 0-.19804-.099-.19804-.1981-.09901 0-.09901-.099-.19803-.099s-.19803-.099-.19803-.198c-.09902-.099-.09902-.099-.19804-.198-.09901-.0991-.19803-.099-.19803-.1981-.09902-.099-.09902-.099-.19803-.198-.09902-.099-.09902-.099-.19804-.198-.09901-.099-.09901-.099-.19803-.1981-.09902-.099-.09901-.099-.19803-.198s-.09902-.099-.19804-.198c.79214-.3961 1.68329-.7922 2.47542-.9902.39607 1.4853 1.1882 2.8715 2.17837 3.9607zm2.37636.297c-1.5842-.198-2.97046-1.9803-3.86161-4.4557 1.28721-.2971 2.57441-.4951 3.86161-.4951zm0-5.6439c-1.3862 0-2.67341.198-4.05965.4951-.49508-1.6833-.69311-3.3666-.69311-5.1489h4.75276zm0-5.4459h-4.85178c0-1.7823.29705-3.46561.69312-5.1489 1.28721.29705 2.67346.49509 4.05966.49509zm0-5.34694c-1.2872 0-2.5744-.19803-3.86161-.49508.89115-2.57444 2.27741-4.25772 3.86161-4.45575zm8.2184-1.08917c1.4853 1.78229 2.2774 4.05971 2.3764 6.43611h-4.4557c0-1.7823-.2971-3.56464-.7922-5.34694 1.0892-.19803 1.9804-.59409 2.8715-1.08917zm-5.2479-3.56461c.099 0 .1981.00001.1981.09902.099 0 .198.09901.297.09901s.198.09902.198.09902c.0991 0 .1981.09903.2971.09903s.198.09901.198.09901l.2971.09902c.099 0 .198.09901.198.09901l.2971.09902c.099 0 .099.09902.198.09902s.198.09901.297.09901c.0991 0 .0991.09902.1981.09902s.198.09901.198.19803c.099 0 .099.09902.198.09902.0991 0 .1981.09902.1981.19803.099.09902.099.09902.198.19803.099.09902.198.09902.198.19803.0991.09902.0991.09902.1981.19803.099.09902.099.09903.198.19805s.099.09901.198.19803c.0991.09902.0991.09901.1981.19803s.099.09901.198.19803c-.7921.39607-1.6833.79213-2.4754.99017-.3961-1.48525-1.1882-2.87149-2.1784-3.96067zm-2.2774-.29705c1.5843.19803 2.9705 1.98033 3.8617 4.45575-1.2872.29705-2.5744.49508-3.8617.49508zm0 5.74296c1.3863 0 2.7725-.19803 4.0597-.49508.4951 1.68328.6931 3.36659.6931 5.14889h-4.7528zm0 5.34691h4.7528c0 1.7823-.297 3.4656-.6931 5.1489-1.2872-.2971-2.6734-.4951-4.0597-.4951zm0 10.2977v-4.9508c1.2873 0 2.5745.198 3.8617.4951-.8912 2.5744-2.2774 4.2577-3.8617 4.4557zm7.0302-3.1685c-.099.099-.099.099-.198.198s-.099.099-.198.1981c-.0991.099-.0991.099-.1981.198s-.099.099-.198.198-.099.099-.198.1981c-.0991.099-.0991.099-.1981.198s-.099.099-.198.198c-.099 0-.198.099-.198.198-.0991.0991-.0991.0991-.1981.0991s-.198.099-.198.198l-.198.099c-.0991 0-.1981.099-.1981.099l-.198.0991c-.099 0-.198.099-.2971.099-.099 0-.198.099-.198.099l-.297.099c-.0991 0-.1981.099-.1981.099-.099 0-.198.099-.297.099s-.1981.0991-.1981.0991c-.099 0-.198.099-.297.099s-.198 0-.198.099h-.0991c1.0892-1.0892 1.8814-2.4754 2.3764-3.9607.6932.1981 1.4853.4951 2.2774.9902zm.4951-.6931c-.8911-.4951-1.7823-.8912-2.7725-1.1882.4951-1.6833.6932-3.5646.7922-5.3469h4.4557c-.198 2.4754-.9901 4.7528-2.4754 6.5351z" fill="#304351" mask="url(#a)" stroke="#304351" stroke-width="34"/><path d="m12.41 24.7328c-2.87149 0-5.64396-1.0891-7.72331-3.1685-.49508-.4951-.89114-.9902-1.28721-1.4852h-.29705l.19803-.0991c-1.38623-1.8813-2.17836-4.1587-2.27738-6.5351-.198033-3.0695.89115-6.13898 2.77247-8.41636.09901-.19804.29704-.29705.39606-.49509 1.48525-1.68328 3.46558-2.77246 5.64395-3.26755h.19804c.3961-.09901.6931-.09901 1.0892-.19803 2.5744-.297046 5.2479.39607 7.4262 1.78231 1.8813 1.28721 3.2676 2.97048 4.1587 5.04983.8912 2.07935 1.1882 4.35669.8912 6.63409-.2971 2.2774-1.2873 4.3568-2.6735 6.1391-.099.198-.297.297-.396.495-2.0794 2.2774-4.8519 3.4656-7.9214 3.5646 0 0-.099 0-.198 0zm-1.3862-.7921c.495.099.8911.099 1.3862.099l-.3961-.099c-.6931-.099-1.3862-.4951-2.07933-1.0892.09903.099.09903.099.19803.1981zm1.3862-.3961v.3961h.297c.3961 0 .7922 0 1.1882-.099l.8912-.8912c.099-.099.198-.198.198-.198-.6931.6931-1.3862 1.0892-2.0793 1.1882l-.099-.3961zm-8.11937-3.4655c.29705.297.5941.6931.89115.9901 1.58426 1.4853 3.56459 2.4754 5.64392 2.8715l-1.28719-.3961c-.19803-.099-.29705-.099-.39607-.099l-.99016-.396c-.09902 0-.19804-.0991-.19804-.0991l-1.1882-.6931c-.09901-.099-.09901-.099-.19803-.099l.09902-.3961-.19804.2971c-.09901 0-.09901-.099-.19803-.099l-.29705-.1981c-.09902-.099-.19803-.099-.19803-.198l-.99017-.9902-.29705-.396.19803-.099zm14.95147.8911.2971.2971-.3961.396c-.099.099-.198.099-.198.1981-.099.099-.198.099-.198.198l-.0991.099-.099.099-.099.099c-.099.0991-.198.1981-.297.1981l-.6932.396c-.099 0-.198.0991-.297.0991l-.6931.297c-.099 0-.1981.099-.2971.099l-.198.099c-.099 0-.198.0991-.2971.0991l-.297.099-.8912.198c2.2774-.3961 4.2578-1.4852 5.842-3.1685.099-.099.2971-.2971.3961-.3961l-.8912.8912zm-6.04-1.9803v4.0597c1.1882-.3961 2.1784-1.7823 2.9705-3.7627-.9901-.099-1.9803-.198-2.9705-.297zm-4.45572.396c.79213 1.9804 1.78232 3.3666 2.97052 3.7627v-4.0597c-.9902 0-1.98036.099-2.97052.297zm8.81252.3961c-.2971.9902-.7922 1.8813-1.3863 2.7725l.4951-.1981c.099 0 .198-.099.198-.099l.6932-.396c.099 0 .198-.0991.198-.0991l.297-.198.0991-.099c.099 0 .099-.099.198-.099.099-.099.198-.099.198-.1981l.6931-.5941c-.495-.396-1.0891-.6931-1.6832-.7921zm-11.98106.5941.5941.4951c.09902.099.19804.198.29705.198l.19804.1981s.09901.099.19803.099l.09902.099s.09901.099.19803.099c0 0 .09902.099.19803.099l.99017.5941c.09902 0 .09902.099.19803.099l.29705.0991c-.5941-.7922-1.08918-1.7823-1.38623-2.7725-.79213.198-1.28722.4951-1.88132.6931zm11.38696-1.1882c-.2971.8912-.6932 1.7823-1.1882 2.4754.495-.7921.8911-1.5842 1.1882-2.4754zm-9.10957-.198v.198c.29705.7921.5941 1.5843 1.08918 2.3764-.39607-.6931-.79213-1.3862-1.08918-2.2774zm9.20857-.099.297.099c.8912.297 1.7823.5941 2.5745 1.0892l.297.198-.198-.099c-.8912-.4951-1.7823-.8912-2.6735-1.0892l-.297-.198-.2971-.0991c-1.2872-.297-2.6734-.495-3.9606-.495h-.3961-.3961c-1.2872 0-2.67343.198-3.96064.495l-.39607.0991-.09901-.2971c-.29705-.9902-.49509-2.0793-.5941-3.1685.09901 1.0892.29705 2.0793.5941 3.1685l.09901.3961-.39606.099c-.79214.198-1.58427.4951-2.27739.8911.79214-.396 1.58427-.6931 2.3764-.8911l.39607-.099.39607-.099c1.28721-.2971 2.57442-.4951 3.86162-.4951h.3961.3961c1.2872 0 2.5744.198 3.8616.4951zm3.6636.8911c.7921-1.0892 1.4852-2.2774 1.8813-3.6636-.3961 1.3862-.9902 2.5744-1.8813 3.6636zm-18.91219-6.6341v.297c.09902 2.2774.89115 4.3568 2.17837 6.1391-1.28722-1.7823-2.07935-4.0597-2.17837-6.3371zm16.23869 5.1489c.7922.198 1.4853.5941 2.2774.8911 1.1882-1.5843 1.8813-3.5646 2.0794-5.6439h-3.6636c-.0991 1.6832-.2971 3.2675-.6932 4.7528zm-15.54557-4.6538c.09902 2.0793.89115 3.9606 2.07935 5.6439.69311-.396 1.48525-.6931 2.27738-.8911-.39607-1.4853-.5941-3.0695-.69312-4.6538h-3.66361zm10.69377 3.8616c1.1882 0 2.2774.1981 3.3666.3961.3961-1.3862.5941-2.8715.5941-4.3567h-4.0597zm-5.54491-3.8616c0 1.4852.29705 2.8715.5941 4.3567 1.08919-.198 2.27741-.3961 3.46561-.3961v-3.9606zm4.75281-.7922h10.6938-21.28859zm-1.6833-10.99079c-.198 0-.297.09901-.4951.09901h-.198c-1.98034.49508-3.86166 1.58427-5.24789 3.06952-.09902.09901-.29705.29704-.39607.39606-1.68328 1.98033-2.57443 4.45574-2.67344 7.1292v-.198c.09901-2.47545.99016-4.85186 2.47541-6.73317l.09902-.09901h.29705.09901c.89115.49508 1.7823.89114 2.67345 1.08917l.39607.09903-.09902.39606c0 .09901-.09901.19804-.09901.39607 0-.09901.09901-.19804.09901-.39607l.09902-.29704.39607.09901c1.28721.29705 2.67342.49508 3.96062.49508h.3961.3961c1.2872 0 2.6734-.19803 3.9606-.49508l.3961-.09901.3961-.09902c.9901-.29705 1.8813-.59411 2.6734-1.08919l.099-.09901.2971.09901.099.09902c.5941.79213 1.0892 1.58427 1.4852 2.47542-.396-.99017-.9901-1.98034-1.6832-2.77247l-.3961.29705c-.7921.39607-1.6833.79214-2.5744 1.08919l-.3961.09901-.3961.09902c-1.2872.29705-2.5744.49508-3.8616.49508h-.3961-.396c-1.2873 0-2.57448-.19803-3.86169-.49508l-.39607-.09902-.39606-.09901c-.89115-.29705-1.7823-.59411-2.57444-1.08919l-.39606-.19803.49508-.5941.19803-.19803.5941-.59411c.09902-.09902.19804-.09901.19804-.19803.09901-.09902.19803-.09901.19803-.19803 0 0 .09902-.00001.09902-.09902l.29705-.19803c.09901 0 .19803-.09902.29705-.19803l.19803-.09903c.09902-.09901.19803-.09901.29705-.19803l.19803-.099c.09902 0 .19804-.09903.29705-.09903l1.7823-.69311zm7.9213 10.29769h3.6636c-.099-2.0793-.8911-4.05965-2.0793-5.64391-.6931.39606-1.4852.69311-2.2774.89114.4951 1.58427.6931 3.16857.6931 4.75277zm-10.99081 0h4.05971v-3.86161c-1.1882 0-2.27741-.19804-3.36659-.39608-.39607 1.28722-.5941 2.77249-.69312 4.25769zm-5.14886 0h3.66361c0-1.5842.29705-3.1685.69312-4.65375-.79213-.19803-1.48525-.59411-2.27738-.89116-1.1882 1.48525-1.88132 3.46561-2.07935 5.54491zm10.69377 0h4.0597c0-1.4852-.297-2.87145-.5941-4.35669-1.0892.19803-2.2774.39606-3.4656.39606zm2.6735-8.02032c.396.69312.7921 1.48526 1.0892 2.37641l.099.29705-.099-.19805c-.1981-.89115-.5941-1.78229-1.0892-2.47541zm-7.12922 2.17838c.99016.19803 1.98032.29704 2.97052.39606v-4.05969c-1.1882.39607-2.27741 1.68329-2.97052 3.66363zm.09901-1.98034c-.39606.69312-.79213 1.48524-.99016 2.27737v.19805l.09901-.19805c.19804-.89115.5941-1.68327.89115-2.27737zm4.35671-1.68329v4.05969c.9902 0 1.9804-.19803 2.9705-.39606-.7921-1.98034-1.8813-3.26756-2.9705-3.66363zm-7.62426 2.67346c.49509.29705 1.08919.49508 1.68329.69311.29705-.99016.79213-1.88131 1.38623-2.77246l-.49508.19803c-.09902 0-.19804.09902-.19804.09902l-.19803.19803c-.09902 0-.19803.09902-.19803.09902l-.19804.09901c-.09901 0-.19803.09902-.19803.09902l-.29705.19803c-.09902 0-.09902.09902-.09902.09902-.09901 0-.09901.09901-.19803.09901-.09902.09902-.19803.09902-.19803.19803l-.79214.69313c.09902 0 .09902 0 0 0zm10.59476-2.07935c.5941.79213 1.0892 1.7823 1.3863 2.77246.5941-.19803 1.0891-.39606 1.6832-.69311l-.396-.39607c-.099-.09902-.1981-.09902-.1981-.19803l-.099-.09903-.099-.09901c-.099-.09901-.198-.09901-.198-.19803 0 0-.099-.09902-.1981-.09902-.099-.09901-.198-.09901-.198-.19803l-1.3862-.79213zm-1.9803-1.38623.9902.29704c.099 0 .198 0 .297.09902.099 0 .198.09902.2971.09902l1.7823.79212.297.19805c.099 0 .099.09901.198.09901l.1981.19803c.099 0 .099.09902.198.09902.099.09902.198.09901.2971.19803l.099.09902c.099.09902.198.09902.198.19803l.099.09902c.099.09902.099.09902.1981.19803l1.0891 1.08918c-.5941-.79213-1.3862-1.38623-2.1783-1.98033-1.2872-.99017-2.6735-1.48524-4.0597-1.78229zm-1.7823-.09902h.4951c.6931.09901 1.3862.49509 2.0793 1.08919-.099-.09902-.099-.09903-.198-.19805l-.8912-.89114c-.495 0-.9901 0-1.4852 0zm-1.4853.09902-.7921.89114-.099.09903c.5941-.5941 1.2872-.99018 1.9803-1.08919l.3961-.09903c-.3961 0-.7921.00001-1.0892.09903-.099 0-.297.09902-.3961.09902z" fill="#304351"/><path d="m17.0638 18.9899-.099.198m0 0c-.2971.8912-.6932 1.7823-1.1882 2.4754.495-.7921.8911-1.5842 1.1882-2.4754zm.099-.297.297.099c.8912.297 1.7823.5941 2.5745 1.0892l.297.198-.198-.099c-.8912-.4951-1.7823-.8912-2.6735-1.0892zm0 0-.2971-.0991c-1.2872-.297-2.6734-.495-3.9606-.495h-.3961-.3961c-1.2872 0-2.67343.198-3.96064.495l-.39607.0991-.09901-.2971m9.50562.2971h-.3961c-1.2872-.2971-2.5744-.4951-3.8616-.4951h-.3961-.3961c-1.2872 0-2.57441.198-3.86162.4951l-.39607.099-.39607.099c-.79213.198-1.58426.4951-2.3764.8911.69312-.396 1.48525-.6931 2.27739-.8911l.39606-.099-.09901-.3961m0 0c-.29705-.9902-.49509-2.0793-.5941-3.1685.09901 1.0892.29705 2.0793.5941 3.1685zm-2.9705-13.07018h-.29705l-.09902.09901c-1.48525 1.88131-2.3764 4.25771-2.47541 6.73317v.198c.09901-2.67346.99016-5.14887 2.67344-7.1292.09902-.09902.29705-.29705.39607-.39606 1.38623-1.48525 3.26755-2.57444 5.24789-3.06952h.198c.1981 0 .2971-.09901.4951-.09901l-.99016.19803-1.7823.69311c-.09901 0-.19803.09903-.29705.09903l-.19803.099c-.09902.09902-.19803.09902-.29705.19803l-.19803.09903c-.09902.09901-.19804.19803-.29705.19803l-.29705.19803c0 .09901-.09902.09902-.09902.09902 0 .09902-.09902.09901-.19803.19803 0 .09902-.09902.09901-.19804.19803l-.5941.59411c-.09901.09901-.09901.09901-.19803.19803zm0 0h.09901c.89115.49508 1.7823.89114 2.67345 1.08917l.39607.09903-.09902.39606m-3.06951-1.58426.39606.19803c.79214.49508 1.68329.79214 2.57444 1.08919l.39606.09901.39607.09902c1.28721.29705 2.57439.49508 3.86169.49508h.396.3961c1.2872 0 2.5744-.19803 3.8616-.49508l.3961-.09902.3961-.09901c.8911-.29705 1.7823-.69312 2.5744-1.08919l.3961-.29705c.6931.79213 1.2872 1.7823 1.6832 2.77247-.396-.89115-.8911-1.68329-1.4852-2.47542l-.099-.09902-.2971-.09901-.099.09901c-.7921.49508-1.6833.79214-2.6734 1.08919l-.3961.09902-.3961.09901c-1.2872.29705-2.6734.49508-3.9606.49508h-.3961-.3961c-1.2872 0-2.67341-.19803-3.96062-.49508l-.39607-.09901-.09902.29704m0 0c0 .09901-.09901.19804-.09901.39607 0-.09901.09901-.19804.09901-.39607zm-2.07935-1.78229c.49509.29705 1.08919.49508 1.68329.69311.29705-.99016.79213-1.88131 1.38623-2.77246l-.49508.19803c-.09902 0-.19804.09902-.19804.09902l-.19803.19803c-.09902 0-.19803.09902-.19803.09902l-.19804.09901c-.09901 0-.19803.09902-.19803.09902l-.29705.19803c-.09902 0-.09902.09902-.09902.09902-.09901 0-.09901.09901-.19803.09901-.09902.09902-.19803.09902-.19803.19803zm0 0c.09902 0 .09902 0 0 0zm12.67416-1.68329-.1981-.19803c-.099 0-.099-.09901-.198-.09901l-.297-.19805-1.7823-.79212c-.0991 0-.1981-.09902-.2971-.09902-.099-.09902-.198-.09902-.297-.09902l-.9902-.29704c1.3862.29705 2.7725.79212 4.0597 1.78229zm0 0c.099 0 .099.09902.198.09902.099.09902.198.09901.2971.19803l.099.09902c.099.09902.198.09902.198.19803l.099.09902c.099.09902.099.09902.1981.19803l1.0891 1.08918c-.5941-.79213-1.3862-1.38623-2.1783-1.98033zm-5.842 21.0905c-2.87149 0-5.64396-1.0891-7.72331-3.1685-.49508-.4951-.89114-.9902-1.28721-1.4852h-.29705l.19803-.0991c-1.38623-1.8813-2.17836-4.1587-2.27738-6.5351-.198033-3.0695.89115-6.13898 2.77247-8.41636.09901-.19804.29704-.29705.39606-.49509 1.48525-1.68328 3.46558-2.77246 5.64395-3.26755h.19804c.3961-.09901.6931-.09901 1.0892-.19803 2.5744-.297046 5.2479.39607 7.4262 1.78231 1.8813 1.28721 3.2676 2.97048 4.1587 5.04983.8912 2.07935 1.1882 4.35669.8912 6.63409-.2971 2.2774-1.2873 4.3568-2.6735 6.1391-.099.198-.297.297-.396.495-2.0794 2.2774-4.8519 3.4656-7.9214 3.5646 0 0-.099 0-.198 0zm-1.3862-.7921c.495.099.8911.099 1.3862.099l-.3961-.099c-.6931-.099-1.3862-.4951-2.07933-1.0892.09903.099.09903.099.19803.1981zm1.3862-.3961v.3961h.297c.3961 0 .7922 0 1.1882-.099l.8912-.8912c.099-.099.198-.198.198-.198-.6931.6931-1.3862 1.0892-2.0793 1.1882l-.099-.3961zm-8.11937-3.4655c.29705.297.5941.6931.89115.9901 1.58426 1.4853 3.56459 2.4754 5.64392 2.8715l-1.28719-.3961c-.19804-.099-.29705-.099-.39607-.099l-.99016-.396c-.09902 0-.19804-.0991-.19804-.0991l-1.1882-.6931c-.09901-.099-.09901-.099-.19803-.099l.09902-.3961-.19804.2971c-.09901 0-.09901-.099-.19803-.099l-.29705-.1981c-.09902-.099-.19803-.099-.19803-.198l-.99017-.9902-.29705-.396.19803-.099zm14.95147.8911.2971.2971-.3961.396c-.099.099-.198.099-.198.1981-.099.099-.198.099-.198.198l-.0991.099-.099.099-.099.099c-.099.0991-.198.1981-.297.1981l-.6932.396c-.099 0-.198.0991-.297.0991l-.6931.297c-.099 0-.1981.099-.2971.099l-.198.099c-.099 0-.198.0991-.2971.0991l-.297.099-.8912.198c2.2774-.3961 4.2578-1.4852 5.842-3.1685.099-.099.2971-.2971.3961-.3961l-.8912.8912zm-6.04-1.9803v4.0597c1.1882-.3961 2.1784-1.7823 2.9705-3.7627-.9901-.099-1.9803-.198-2.9705-.297zm-4.45572.396c.79213 1.9804 1.78232 3.3666 2.97052 3.7627v-4.0597c-.9902 0-1.98036.099-2.97052.297zm8.81252.3961c-.2971.9902-.7922 1.8813-1.3863 2.7725l.4951-.1981c.099 0 .198-.099.198-.099l.6932-.396c.099 0 .198-.0991.198-.0991l.297-.198.0991-.099c.099 0 .099-.099.198-.099.099-.099.198-.099.198-.1981l.6931-.5941c-.495-.396-1.0891-.6931-1.6832-.7921zm-11.98106.5941.5941.4951c.09902.099.19804.198.29705.198l.19804.1981s.09901.099.19803.099l.09902.099s.09901.099.19803.099c0 0 .09902.099.19803.099l.99017.5941c.09902 0 .09901.099.19803.099l.29705.099c-.5941-.7921-1.08918-1.7822-1.38623-2.7724-.79213.198-1.28722.4951-1.88132.6931zm2.27739-1.3862v.198c.29705.7921.5941 1.5843 1.08918 2.3764-.39607-.6931-.79213-1.3862-1.08918-2.2774zm12.87217.7921c.7921-1.0892 1.4852-2.2774 1.8813-3.6636-.3961 1.3862-.9902 2.5744-1.8813 3.6636zm-18.91219-6.6341v.297c.09902 2.2774.89115 4.3568 2.17837 6.1391-1.28722-1.7823-2.07935-4.0597-2.17837-6.3371zm16.23869 5.1489c.7922.198 1.4853.5941 2.2774.8911 1.1882-1.5843 1.8813-3.5646 2.0794-5.6439h-3.6636c-.0991 1.6832-.2971 3.2675-.6932 4.7528zm-15.54557-4.6538c.09902 2.0793.89115 3.9606 2.07935 5.6439.69311-.396 1.48525-.6931 2.27738-.8911-.39607-1.4853-.5941-3.0695-.69312-4.6538h-3.66361zm10.69377 3.8616c1.1882 0 2.2774.1981 3.3666.3961.3961-1.3862.5941-2.8715.5941-4.3567h-4.0597zm-5.54491-3.8616c0 1.4852.29705 2.8715.5941 4.3567 1.08918-.198 2.27741-.3961 3.46561-.3961v-3.9606zm4.75281-.7922h10.6938-21.28859zm6.238-.6931h3.6636c-.099-2.0793-.8911-4.05965-2.0793-5.64391-.6931.39606-1.4852.69311-2.2774.89114.4951 1.58427.6931 3.16857.6931 4.75277zm-10.99081 0h4.05971v-3.86161c-1.1882 0-2.27741-.19804-3.36659-.39608-.39607 1.28722-.5941 2.77249-.69312 4.25769zm-5.14886 0h3.66361c0-1.5842.29705-3.1685.69312-4.65375-.79213-.19803-1.48525-.59411-2.27738-.89116-1.1882 1.48525-1.88132 3.46561-2.07935 5.54491zm10.69377 0h4.0597c0-1.4852-.297-2.87145-.5941-4.35669-1.0892.19803-2.2774.39606-3.4656.39606zm2.6735-8.02032c.396.69312.7921 1.48526 1.0892 2.37641l.099.29705-.099-.19805c-.1981-.89114-.5941-1.78229-1.0892-2.47541zm-7.12922 2.17838c.99016.19803 1.98032.29704 2.97052.39606v-4.05969c-1.1882.39607-2.27741 1.68329-2.97052 3.66363zm.09901-1.98034c-.39606.69312-.79213 1.48524-.99016 2.27737v.19805l.09901-.19805c.19804-.89114.5941-1.68327.89115-2.27737zm4.35671-1.68329v4.05969c.9902 0 1.9804-.19803 2.9705-.39606-.7921-1.98034-1.8813-3.26756-2.9705-3.66363zm2.9705.59411c.5941.79213 1.0892 1.7823 1.3863 2.77246.5941-.19803 1.0891-.39606 1.6832-.69311l-.396-.39607c-.099-.09902-.1981-.09902-.1981-.19803l-.099-.09903-.099-.09901c-.099-.09901-.198-.09901-.198-.19803 0 0-.099-.09902-.1981-.09902-.099-.09901-.198-.09901-.198-.19803l-1.3862-.79213zm-3.7626-1.48525h.4951c.6931.09901 1.3862.49509 2.0793 1.08919-.099-.09902-.099-.09903-.198-.19805l-.8912-.89114c-.495 0-.9901 0-1.4852 0zm-1.4853.09902-.7921.89114-.099.09903c.5941-.5941 1.2872-.99018 1.9803-1.08919l.3961-.09903c-.3961 0-.7921.00001-1.0892.09903-.099 0-.297.09902-.3961.09902z" stroke="#304351" stroke-width=".25"/></svg>