<svg height="27.013" viewBox="0 0 22.397 27.013" width="22.397" xmlns="http://www.w3.org/2000/svg"><g fill="none"><path d="m17.397 27.013h-12a5.006 5.006 0 0 1 -5-5v-13.531l7.291-7.469h9.709a5.006 5.006 0 0 1 5 5v16a5.006 5.006 0 0 1 -5 5z"/><path d="m17.39620082 25.01309918c1.65443039 0 3.00040054-1.34597015 3.00040054-3.00040054v-15.99929905c0-1.65442991-1.34597015-3.00039995-3.00040054-3.00039995h-8.86589813l-6.13330197 6.28358305v12.71611595c0 1.65443039 1.34596991 3.00040054 3.00039982 3.00040054zm0 2h-11.99880028c-2.7572298 0-5.00039986-2.24316978-5.00039986-5.00040054v-13.53039885l7.29066018-7.4693002h9.70853996c2.75723076 0 5.00040054 2.24316996 5.00040054 5.0004v15.99929905c0 2.75723076-2.24316978 5.00040054-5.00040054 5.00040054z" fill="#304351"/></g><g fill="#fff" stroke="#304351" stroke-linecap="round" stroke-linejoin="round" stroke-width="2" transform="translate(-340.603 -479.987)"><path d="m347.551 496.805h9.541"/><path d="m347.551 493.277h9.541"/><path d="m347.551 500.522h9.541"/><path d="m5.293.707a1 1 0 0 1 1.414 0l4.787 4.787-.371.371-9.057.1-1.016-1.015z" transform="matrix(-.70710678 .70710678 -.70710678 -.70710678 354.364 484.879)"/></g></svg>