<svg height="19.284" viewBox="0 0 19.536 19.284" width="19.536" xmlns="http://www.w3.org/2000/svg"><g fill="none" stroke="#000" stroke-linecap="round" stroke-linejoin="round" stroke-width="2"><path d="m0 10.348v-10.348" transform="matrix(-1 0 0 -1 14.768 11.348)"/><path d="m3.928 1.082a1 1 0 0 1 1.606 0l2.743 3.7a1 1 0 0 1 -.8 1.6h-5.49a1 1 0 0 1 -.8-1.6z" transform="matrix(-1 0 0 -1 19.499 18.034)"/><path d="m4.768 18.285v-10.348"/><path d="m3.965 2.333a1 1 0 0 1 1.606 0l2.743 3.7a1 1 0 0 1 -.8 1.6h-5.49a1 1 0 0 1 -.8-1.6z"/></g></svg>