<svg width="18" height="23" viewBox="0 0 18 23" fill="none" xmlns="http://www.w3.org/2000/svg">
<circle cx="11.5" cy="11.5" r="2.5" stroke="#304351" stroke-width="1.2"/>
<path d="M14.4813 7H10.6282C9.89805 7 9.21102 7.28429 8.69469 7.80062L1.93917 14.5568C1.60995 14.886 1.42102 15.3416 1.42102 15.8093C1.42102 16.2746 1.60995 16.7302 1.93917 17.0595L5.94109 21.0614C6.26975 21.39 6.72534 21.5789 7.19306 21.5789C7.65836 21.5789 8.11395 21.39 8.4432 21.0608L15.1993 14.3047C15.7157 13.7889 16 13.1019 16 12.3717V8.51863C16 7.68097 15.319 7 14.4813 7Z" stroke="#304351" stroke-width="1.2"/>
<path d="M14.151 2.22097L13.6772 2.38063L14.151 2.22097ZM11.0174 11.3696C10.9452 11.6361 11.1028 11.9107 11.3694 11.9828C11.6359 12.055 11.9105 11.8973 11.9826 11.6308L11.0174 11.3696ZM13.6772 2.38063C13.7789 2.68252 13.7574 3.22735 13.5841 4.00527C13.4168 4.75629 13.1308 5.63236 12.8011 6.53914C12.4715 7.44535 12.1061 8.36118 11.7808 9.20066C11.4596 10.0294 11.1728 10.7953 11.0174 11.3696L11.9826 11.6308C12.1219 11.1162 12.3886 10.3997 12.7132 9.56202C13.0337 8.73503 13.4065 7.80023 13.7409 6.88091C14.075 5.96216 14.3786 5.03779 14.5602 4.2227C14.7358 3.43452 14.8224 2.6476 14.6248 2.06132L13.6772 2.38063ZM14.6248 2.06132C14.4112 1.42712 13.9955 0.933317 13.3977 0.802432C12.803 0.67222 12.2149 0.942565 11.7445 1.42194C10.8101 2.3742 10.0961 4.35829 10.1058 7.37886L11.1058 7.37564C11.0964 4.45994 11.7952 2.79805 12.4583 2.12232C12.7866 1.7877 13.0434 1.74855 13.1839 1.77929C13.3212 1.80937 13.5311 1.94698 13.6772 2.38063L14.6248 2.06132Z" fill="#304351"/>
</svg>
