<svg fill="none" height="23" viewBox="0 0 22 23" width="22" xmlns="http://www.w3.org/2000/svg" xmlns:xlink="http://www.w3.org/1999/xlink"><clipPath id="a"><path d="m0 0h22v22.7h-22z"/></clipPath><g clip-path="url(#a)" clip-rule="evenodd" fill="#304351" fill-rule="evenodd"><path d="m0 3.2 1.99998-.00671.00046.06929c.01059.74179.20936 1.13301.41917 1.34282.21601.21601.59863.3946 1.28039.3946h13.2c.5523 0 1 .44772 1 1 0 .55229-.4477 1-1 1h-13.2c-.58928 0-1.16153-.0909-1.67652-.30491l.07654 11.40491c0 1.5665 1.06397 2.6 2.19998 2.6h10.4c1.136 0 2.2-1.0335 2.2-2.6v-.8c0-.5523.4477-1 1-1s1 .4477 1 1v.8c0 2.4335-1.736 4.6-4.2 4.6h-10.4c-2.4628 0-4.198318-2.1644-4.199999-4.5965l-.09948184-14.82279c-.00034666-.02683-.00051916-.05373-.00051916-.08071z"/><path d="m15.8 7c-2.3704 0-4.5 2.17166-4.5 5v4.5c0 .0138.0036.0483.0222.0966.0183.0475.0455.0934.0772.1308.0316.0371.0597.0566.0764.0652.014.0073.0202.0074.0242.0074h4c2.3704 0 4.5-2.1717 4.5-5v-4.5c0-.0138-.0035-.04834-.0222-.09662-.0183-.04748-.0455-.09339-.0772-.13073-.0316-.03718-.0597-.05662-.0764-.06528-.014-.00722-.0202-.00737-.0242-.00737zm-6.5 5c0-3.77166 2.8704-7 6.5-7h4c.704 0 1.2651.35456 1.6244.77735.3515.41353.5756.96364.5756 1.52265v4.5c0 3.7717-2.8704 7-6.5 7h-4c-.704 0-1.2651-.3546-1.62444-.7774-.3515-.4135-.57556-.9636-.57556-1.5226z"/><path d="m16.2912 11.1774c.3991.3817.4132 1.0147.0314 1.4138l-4.4 4.6c-.3817.3991-1.0147.4132-1.4138.0314-.3991-.3817-.4132-1.0147-.0314-1.4138l4.4-4.6c.3817-.3991 1.0147-.4132 1.4138-.0314z"/><path d="m4 2c-.66187 0-1.09875.21297-1.39289.50711l-.03917.03916-.04325.0346c-.29634.23707-.45753.50035-.52469.81215v.10698c0 .75122.75057 1.5 1.7 1.5h13.3c.5523 0 1 .44772 1 1s-.4477 1-1 1h-13.3c-1.85057 0-3.7-1.45122-3.7-3.5v-.28276l.0136061-.08164c.1397769-.83866.5621119-1.54129 1.2190339-2.08185.70209-.681015 1.65045-1.05375 2.76736-1.05375h10.5c.5523 0 1 .447715 1 1 0 .55228-.4477 1-1 1z"/></g></svg>