<svg fill="none" height="22" viewBox="0 0 22 22" width="22" xmlns="http://www.w3.org/2000/svg"><g fill="#304351"><path d="m5.94444 21.075c.8 0 1.5-.1 2.2-.4s1.3-.7 1.89996-1.3l3.8-3.8c.1-.1.1-.2.2-.3 0-.1.1-.2.1-.3s0-.2-.1-.3c0-.1-.1-.2-.2-.3l-2.9-2.9 4.4-4.4c.3.3.6.49999 1 .69999s.8.2 1.2.2.8-.1 1.2-.2c.4-.2.7-.39999 1-.69999l1.1-1.10001c.1-.1.1-.2.2-.3 0-.1.1-.20001.1-.30001s0-.19998-.1-.29998c0-.1-.1-.20001-.2-.30001l-4.4-4.400005c-.1-.1-.2-.099997-.3-.199997-.1 0-.2-.0999911-.3-.0999911s-.2-.0000091-.3.0999911c-.1 0-.2.099997-.3.199997l-1.1 1.100005c-.3.3-.5.6-.7 1s-.2.8-.2 1.2.1.79999.2 1.19999c.2.4.4.7.7 1l-4.39996 4.40002-2.9-2.90002c-.1-.1-.2-.09999-.3-.19999-.1 0-.2-.09999-.3-.09999s-.2-.00001-.3.09999c-.1 0-.2.09999-.3.19999l-3.8 3.80002c-.8.8-1.399997 1.9-1.599997 3-.1999995 1.1-.099999 2.3.300001 3.4s1.199996 2 2.099996 2.6 2.2.9 3.3.9zm9.49996-18.40001.5-.5 3.1 3.1-.5.5c-.1.1-.3.20001-.4.30001-.2.1-.3.09999-.5.09999s-.3.00001-.5-.09999-.3-.20001-.4-.30001l-1.3-1.3c-.1-.1-.2-.29999-.3-.39999-.1-.2-.1-.3-.1-.5s0-.3.1-.5.2-.30001.3-.40001zm-12.39996 9.70001 3.2-3.20001 2.3 2.30001-2.4 2.4c-.1.1-.1.2-.2.3 0 .1-.1.2-.1.3s0 .2.1.3c0 .1.1.2.2.3s.2.1.3.2c.1 0 .2.1.3.1s.2 0 .3-.1c.1 0 .2-.1.3-.2l2.4-2.4 2.29996 2.3-3.19996 3.2c-.4.4-.8.7-1.3.9s-1 .3-1.6.3c-.5 0-1.1-.1-1.6-.3s-1-.5-1.3-.9c-.4-.4-.7-.8-.9-1.3s-.3-1-.3-1.6c0-.5.1-1.1.3-1.6s.6-.9.9-1.3z"/><path d="m5.94444 21.175c-1.2 0-2.3-.3-3.3-1s-1.699996-1.6-2.199996-2.7c-.3999996-1.1-.6-2.3-.3-3.4.2-1.2.8-2.2 1.599996-3l3.8-3.8c.1-.1.2-.2.3-.2.2-.1.5-.1.7 0 .1 0 .2.1.3.2l2.8 2.8 4.29996-4.3c-.3-.3-.5-.6-.6-1-.2-.4-.2-.8-.2-1.2s.1-.80001.2-1.20001c.2-.4.4-.7.7-1l1.1-1.099993c.1-.1.2-.199997.3-.199997.2-.1.5-.1.7 0 .1 0 .2.099997.3.199997l4.4 4.399993c.1.1.2.2.2.3s.1.2.1.4 0 .30001-.1.40001c0 .1-.1.2-.2.3l-1.1 1.09999c-.3.3-.6.5-1 .7-.8.3-1.6.3-2.4 0-.4-.2-.7-.39999-1-.59999l-4.3 4.3 2.8 2.8c.1.1.2.2.2.3s.1.2.1.4 0 .3-.1.4c0 .1-.1.2-.2.3l-3.8 3.8c-.59996.6-1.19996 1-1.89996 1.3-.6.1-1.4.3-2.2.3zm.3-14.00001c-.1 0-.2.00001-.3.10001-.1 0-.2.09999-.3.19999l-3.8 3.80001c-.8.8-1.299996 1.8-1.599996 2.9-.1999996 1.1-.099999 2.3.300001 3.3.4 1.1 1.199995 1.9 2.099995 2.6.9.6 2 1 3.2 1 .7 0 1.5-.1 2.2-.4s1.3-.7 1.9-1.2l3.79996-3.8c.1-.1.1-.2.2-.3s.1-.2.1-.3 0-.2-.1-.3c0-.1-.1-.2-.2-.3l-3-3 .1-.1 4.5-4.50001.1.1c.3.3.6.5 1 .7.7.3 1.5.3 2.3 0 .4-.2.7-.39999 1-.59999l1.1-1.10001c.1-.1.1-.2.2-.3s.1-.2.1-.3 0-.19999-.1-.29999c0-.1-.1-.2-.2-.3l-4.4-4.400012c-.1-.1-.2-.099997-.3-.199997-.2-.1000002-.4-.1000002-.6 0-.1 0-.2.099997-.3.199997l-1.1 1.100002c-.3.3-.5.6-.6 1-.2.4-.2.70001-.2 1.10001s.1.79999.2 1.09999c.1.4.4.7.6 1l.1.10001-.1.09999-4.49996 4.50001-.1-.1-2.9-2.90001c-.1-.1-.2-.1-.3-.2.1 0 0 0-.1 0zm-.3 12.30001c-.5 0-1.1-.1-1.6-.3s-1-.5-1.4-.9-.7-.9-.9-1.4-.3-1.1-.3-1.6c0-.6.1-1.1.3-1.6s.5-1 .9-1.4l3.2-3.30001.1.10001 2.3 2.3-.1.1-2.3 2.5c-.1.1-.1.2-.2.3 0 .1-.1.2-.1.3s0 .2.1.3c0 .1.1.2.2.3s.2.1.3.2c.2.1.4.1.6 0 .1 0 .2-.1.3-.2l2.5-2.5.1.1 2.29996 2.3-.1.1-3.19996 3.2c-.39999.4-.8.7-1.4.9-.5.1-1 .2-1.6.2zm.3-10.10001-3.1 3.10001c-.4.4-.7.8-.9 1.3s-.3 1-.3 1.5.1 1.1.3 1.5c.2.5.5.9.9 1.3s.8.7 1.3.9 1 .3 1.5.3 1-.1 1.5-.3.90001-.5 1.3-.9l3.09996-3.1-2.09996-2.1-2.4 2.4c-.1.1-.2.2-.3.2-.2.1-.5.1-.7 0-.1-.1-.2-.1-.3-.2s-.2-.2-.2-.3-.1-.2-.1-.4c0-.1 0-.3.1-.4 0-.1.1-.2.2-.3l2.4-2.4zm11.39996-3.09999c-.2 0-.4-.00001-.5-.10001-.2-.1-.3-.2-.5-.3l-1.3-1.29999c-.1-.1-.2-.3-.3-.5s-.1-.4-.1-.5 0-.4.1-.5c.1-.2.2-.3.3-.5l.5-.5.1.09999 3.2 3.2-.5.5c-.1.1-.3.2-.5.3-.1.1-.3.10001-.5.10001zm-1.8-3.90001-.4.40001c-.1.1-.2.19999-.3.39999-.1.1-.1.3-.1.5s0 .3.1.5c.1.1.2.30001.3.40001l1.3 1.29999c.1.1.2.2.4.3.3.1.6.1.9 0 .1-.1.3-.2.4-.3l.4-.4z"/></g></svg>