<svg fill="none" height="30" viewBox="0 0 23 30" width="23" xmlns="http://www.w3.org/2000/svg"><path d="m2.53192 7.93045c0-2.95655 2.39675-5.3533 5.3533-5.3533 2.95658 0 5.35328 2.39675 5.35328 5.3533v9.51695c0 2.9566-2.3967 5.3533-5.35328 5.3533-2.95655 0-5.3533-2.3967-5.3533-5.3533z" fill="#1e4437" stroke="#1e4437"/><path d="m1.33944 7.93062c0-3.61356 2.92936-6.54292 6.54292-6.54292 3.61354 0 6.54294 2.92936 6.54294 6.54292v9.51698c0 3.6136-2.9294 6.5429-6.54294 6.5429-3.61356 0-6.54292-2.9293-6.54292-6.5429z" stroke="#1e4437" stroke-width="2"/><path d="m2.53192 7.93045c0-2.95655 2.39675-5.3533 5.3533-5.3533 2.95658 0 5.35328 2.39675 5.35328 5.3533v4.75845c0 2.9566-2.3967 5.3534-5.35328 5.3534-2.95655 0-5.3533-2.3968-5.3533-5.3534z" fill="#009060"/><path d="m2.53192 7.93045c0-2.95655 2.39675-5.3533 5.3533-5.3533 2.95658 0 5.35328 2.39675 5.35328 5.3533v1.18963c0 2.95652-2.3967 5.35332-5.35328 5.35332-2.95655 0-5.3533-2.3968-5.3533-5.35332z" fill="#02d06c"/><path d="m7.78735 8.22949v20.76841" stroke="#1e4437" stroke-linecap="round" stroke-width="2"/><path d="m7.80581 6.2207c-.47057 0-.93057.13954-1.32184.40098-.39126.26143-.69622.63302-.8763 1.06777-.18007.43475-.22719.91314-.13539 1.37467.09181.46153.31841.88547.65115 1.21818.33274.3328.75669.5594 1.21821.6512.46153.0918.93992.0447 1.37467-.1354s.80634-.485 1.06777-.87631c.26142-.39127.40102-.85127.40102-1.32184 0-.63102-.25071-1.23619-.69691-1.68238-.44619-.4462-1.05136-.69687-1.68238-.69687z" fill="#1e4437"/><path d="m13.9231 15.0175c0-1.9621 1.5905-3.5527 3.5526-3.5527s3.5526 1.5906 3.5526 3.5527v6.3158c0 1.962-1.5905 3.5526-3.5526 3.5526s-3.5526-1.5906-3.5526-3.5526z" fill="#1e4437"/><path d="m13.1334 15.0169c0-2.3981 1.944-4.3421 4.3421-4.3421s4.3421 1.944 4.3421 4.3421v6.3158c0 2.3981-1.944 4.3421-4.3421 4.3421s-4.3421-1.944-4.3421-4.3421z" stroke="#1e4437" stroke-width="2"/><path d="m13.9231 15.0175c0-1.9621 1.5905-3.5527 3.5526-3.5527s3.5526 1.5906 3.5526 3.5527v3.1579c0 1.962-1.5905 3.5526-3.5526 3.5526s-3.5526-1.5906-3.5526-3.5526z" fill="#009060"/><path d="m13.9231 15.0175c0-1.9621 1.5905-3.5527 3.5526-3.5527s3.5526 1.5906 3.5526 3.5527v.7894c0 1.9621-1.5905 3.5527-3.5526 3.5527s-3.5526-1.5906-3.5526-3.5527z" fill="#02d06c"/><path d="m17.4114 15.2148v13.7827" stroke="#1e4437" stroke-linecap="round" stroke-width="2"/><path d="m17.425 13.8828c-.3123 0-.6176.0926-.8773.2661-.2596.1735-.462.4201-.5815.7086s-.1508.606-.0898.9123c.0609.3063.2113.5876.4321.8084.2208.2209.5021.3712.8084.4322.3063.0609.6238.0296.9123-.0899s.5351-.3219.7086-.5815c.1735-.2597.2661-.565.2661-.8772 0-.4188-.1663-.8204-.4625-1.1165-.2961-.2961-.6977-.4625-1.1164-.4625z" fill="#1e4437"/></svg>