<svg fill="none" height="18" viewBox="0 0 26 18" width="26" xmlns="http://www.w3.org/2000/svg"><g clip-rule="evenodd" fill-rule="evenodd"><path d="m7.33818 8.19355c1.98916 0 3.60172-1.61253 3.60172-3.60169s-1.61256-3.601687-3.60172-3.601687c-1.98915 0-3.60169 1.612527-3.60169 3.601687s1.61254 3.60169 3.60169 3.60169zm5.40322 8.14425c.5468 0 .9972-.4452.9389-.9889-.4043-3.7711-3.0897-6.68494-6.34223-6.68494-3.25254 0-5.93793 2.91384-6.342229 6.68494-.058296.5437.390889.9889.937749.9889h5.40448z" fill="#fff"/><path d="m7.33818 1.98033c-1.44231 0-2.61152 1.16922-2.61152 2.61152 0 1.44231 1.16921 2.61153 2.61152 2.61153 1.4423 0 2.61152-1.16922 2.61152-2.61153 0-1.4423-1.16922-2.61152-2.61152-2.61152zm-4.59186 2.61152c0-2.53601 2.05585-4.59185 4.59186-4.59185s4.59182 2.05584 4.59182 4.59185c0 1.51122-.73 2.85193-1.8566 3.68871 2.5019 1.16534 4.2605 3.87634 4.5914 6.96274.1288 1.2015-.8634 2.0846-1.9234 2.0846h-10.80782c-1.061798 0-2.050911-.8847-1.9222681-2.0846.3309061-3.0864 2.0895981-5.79751 4.5915981-6.96281-1.12659-.83678-1.85659-2.17746-1.85659-3.68864zm-.75381 10.75575h10.69109c-.4047-3.3656-2.76822-5.69348-5.34554-5.69348-2.57731 0-4.94088 2.32788-5.34555 5.69348z" fill="#304351"/><path d="m17.8439 8.19355c1.9892 0 3.6017-1.61253 3.6017-3.60169s-1.6125-3.601687-3.6017-3.601687c-1.9891 0-3.6017 1.612527-3.6017 3.601687s1.6126 3.60169 3.6017 3.60169zm5.4032 8.14425c.5469 0 .9972-.4452.9389-.9889-.4043-3.7711-3.0896-6.68494-6.3422-6.68494-3.2525 0-5.9379 2.91384-6.3422 6.68494-.0583.5437.3909.9889.9377.9889h5.4045z" fill="#fff"/><path d="m17.8439 1.98033c-1.4423 0-2.6115 1.16922-2.6115 2.61152 0 1.44231 1.1692 2.61153 2.6115 2.61153s2.6115-1.16922 2.6115-2.61153c0-1.4423-1.1692-2.61152-2.6115-2.61152zm-4.5918 2.61152c0-2.53601 2.0558-4.59185 4.5918-4.59185s4.5919 2.05584 4.5919 4.59185c0 1.51122-.7301 2.85193-1.8567 3.68871 2.5019 1.16533 4.2606 3.87634 4.5915 6.96274.1288 1.2015-.8634 2.0846-1.9235 2.0846h-10.8078c-1.0618 0-2.0509-.8847-1.9222-2.0846.3309-3.0864 2.0896-5.7975 4.5916-6.96281-1.1266-.83678-1.8566-2.17746-1.8566-3.68864zm-.7538 10.75575h10.6911c-.4047-3.3656-2.7683-5.69348-5.3456-5.69348s-4.9409 2.32788-5.3455 5.69348z" fill="#304351"/></g></svg>